<?xml version="1.0" encoding="UTF-8"?>
<svg xmlns="http://www.w3.org/2000/svg" version="1.1" viewBox="0 0 49.3 48.7">
  <defs>
    <style>
      .cls-1 {
        fill: #ff3131;
      }
    </style>
  </defs>
  <!-- Generator: Adobe Illustrator 28.7.1, SVG Export Plug-In . SVG Version: 1.2.0 Build 142)  -->
  <g>
    <g id="Layer_2">
      <g id="Layer_1-2">
        <path class="cls-1" d="M3.4,25.4c10.4.3,28.7.2,39.1.1-1.3,2-3.3,3.5-4.7,5.4-.4.6.5,1.3,1,.8,2.2-2.2,5.2-3.3,7.5-5.5.3-.2.3-.6,0-.9-1.9-2.1-4.5-3.5-7-4.8-2.6-1.4-5.2-2.5-7.9-3.7-.8-.3-1.1.9-.3,1.2,2.6,1.1,5.1,2.2,7.6,3.5,1.5.8,3.1,1.6,4.5,2.7-9.9,0-27.8.1-37.8-.1.1-.5-.3-1.1-.9-.8-.6.3-1.1.5-1.5.9s-.1,1.1.4,1.1h0ZM45,25.7c-.7.6-1.4,1.1-2.2,1.7.6-.7,1.1-1.4,1.5-2.2,0,0,0,0,0-.1.2.2.5.4.7.6Z"/>
      </g>
    </g>
  </g>
</svg>