<?xml version="1.0" encoding="UTF-8"?>
<svg id="Layer_2" xmlns="http://www.w3.org/2000/svg" version="1.1" viewBox="0 0 279.7 278.4">
  <!-- Generator: Adobe Illustrator 29.8.2, SVG Export Plug-In . SVG Version: 2.1.1 Build 3)  -->
  <defs>
    <style>
      .st0 {
        fill: #ff0049;
      }

      .st1 {
        fill: #ff0080;
      }

      .st2 {
        fill: #ffff39;
      }
    </style>
  </defs>
  <path class="st0" d="M142,150c-4-10.5-10.5-20-18.9-27.4l-.4,2.9c3.8-2.4,5.4-6.7,6.3-10.9s2.4-10.9,3.6-16.4c2.5-11.3,5-22.6,7.5-33.9s2.8-12.7,4.2-19l-3.7-.5c1.1,16,4,31.9,8.8,47.2s5.9,15,7.2,22.9.4,7.8-.8,11.6c-1.2,3.6-3.2,7-5.1,10.3-4.6,8.3-9.3,16.5-13.9,24.8s2.1,4,3.2,1.9c4.2-7.5,8.4-14.9,12.6-22.4s8.2-13.7,8.1-21.8c0-8.2-3.6-15.8-6.2-23.5-2.7-7.7-4.8-15.6-6.5-23.6-1.9-9-3.1-18.1-3.7-27.3s-3.2-2.7-3.7-.5c-4.8,21.8-9.6,43.5-14.5,65.3s-1.5,10.1-5.5,12.7-1.3,2.1-.4,2.9c7.9,7,14.1,15.9,17.9,25.8s4.5,1.3,3.6-1h0Z"/>
  <path class="st0" d="M139.2,153.7c2.3,7.4,5.5,14.6,9.5,21.3s4.3,6.5,6.6,9.6,1.6,2.8.7,4.7-1.9,3.3-2.8,5c-7.6,13.8-12.6,28.8-15.8,44.1s-3.2,17.6-4.2,26.5h3.8c-.6-16.3-3.2-32.5-7.6-48.1s-4.9-15.6-8.1-23.1-3.5-7.2-1.7-11.1,3.6-6.8,5.6-10c4.6-7.2,10.1-13.7,16.3-19.5s-.9-4.3-2.7-2.7c-5.7,5.3-10.8,11.2-15.1,17.6s-4.2,6.5-6,9.9-1.9,3.5-2.4,5.4-.3,4,.3,6,1.5,3.8,2.3,5.7,1.6,3.9,2.3,5.8c1.5,3.9,2.8,7.8,4.1,11.8,2.5,8,4.5,16.1,6,24.3s2.7,18.6,3,28,3.5,2.4,3.8,0c1.8-15.7,4.7-31.4,9.8-46.5s5.6-14.7,9.4-21.7c1.7-3.2,4.7-6.8,4.1-10.6s-1.6-3.3-2.7-4.8-2.3-3.1-3.3-4.7c-4.9-7.4-8.8-15.4-11.4-23.9s-4.3-1.3-3.6,1h0Z"/>
  <path class="st0" d="M160.2,121.6c13.1.6,25.7,4.3,37.9,8.8s25.3,10,37.9,15.1,14.5,5.8,21.7,8.8l.5-3.7c-7.9.5-15.8.4-23.6,1.9s-13.3,3.4-19.6,6c-12.9,5.2-25,12-37.7,17.8s-14.4,6.1-21.9,8.1-1.3,4.2,1,3.6c13.4-3.5,25.8-9.8,38.2-15.9,12.2-6.1,24.5-12.2,37.9-15.3s7.5-1.5,11.3-1.8,9.6-.4,14.4-.6,2.4-2.9.5-3.7c-13.1-5.3-26.2-10.6-39.2-15.8s-24.4-10.1-37.2-13.4-14.6-3.1-22-3.5-2.4,3.6,0,3.8h0Z"/>
  <path class="st0" d="M120.7,118.7c-24.1.4-47.8,5.8-71,12.3-6.6,1.8-13.1,3.8-19.6,5.7s-1.3,4.2,1,3.6c12.2-3.1,25-1,35.7,5.5s10.2,7.1,15.1,11,9.6,7.6,14.6,11.1,11.7,7.5,18.1,10.1,2.1-.4,2.3-1.3-.4-1.9-1.3-2.3c-11.5-4.7-21.4-12.6-31.1-20.3s-10-8-15.5-11.3-11.4-5.7-17.6-6.8-14.4-1-21.4.7l1,3.6c22.8-6.8,45.9-13.6,69.6-16.5s13.4-1.3,20.1-1.4,2.4-3.8,0-3.8h0Z"/>
  <path class="st0" d="M159.3,100.2c15.2-10.9,29.3-23.3,42-37l-3.1-1.8c-6,15.4-10.8,31.3-14.1,47.5s-1.8,9.3-2.6,14,.3,2,1.3,2.3,2.1-.3,2.3-1.3c2.6-16.3,6.5-32.5,11.8-48.2s3.1-8.9,4.8-13.3-1.9-3.1-3.1-1.8c-12.5,13.5-26.3,25.8-41.3,36.4s0,4.6,1.9,3.2h0Z"/>
  <path class="st0" d="M189.3,176c11.9,17.4,23.8,34.9,35.6,52.3l1.1-2.8c-2.4.7-4.7,0-6.9-1.1s-4.3-2.4-6.5-3.5c-4.5-2.4-9-4.6-13.6-6.6-9.1-4-18.5-7.3-28.2-9.9s-11.1-2.7-16.8-3.7-3.4,3.2-1,3.6c20.3,3.5,39.9,10.3,58,20,4.8,2.6,10.2,6.6,15.9,4.8s1.8-1.7,1.1-2.8c-11.9-17.4-23.8-34.9-35.6-52.3s-4.6-.1-3.2,1.9h0Z"/>
  <path class="st0" d="M118.7,205c-15.5,5.5-30.3,13.1-43.6,22.7-3.8,2.7-7.5,5.6-11,8.6l3.1.8c-1.5-9.4,5.4-17.8,10.7-24.8s12.5-17.5,18.2-26.6c3.2-5.1,6.4-10.3,9.5-15.5s-2-4-3.2-1.9c-5.8,9.5-11.6,19-17.8,28.2s-6.4,9.1-9.7,13.6-6,7.8-8.3,12.2-3.9,10.2-3,15.8,2.2,1.6,3.1.8c12.2-10.3,25.9-18.9,40.5-25.4,4.1-1.8,8.3-3.5,12.5-5s1.3-4.4-1-3.6h0Z"/>
  <path class="st0" d="M103.8,118.3c-3-18.4-7.4-36.5-13.3-54.1s-3.5-10-5.4-15l-2.8,2.1c2.5,1.7,3.6,4.8,4.8,7.4s3.2,5.9,5.9,8.1,6.5,4.5,9.8,6.6,7.4,4.7,11.1,7,8.3,5.3,12.5,7.9,3.9-1.9,1.9-3.2c-7.4-4.7-14.7-9.4-22.1-14s-6.9-4.1-10-6.6-4.4-4.7-5.8-7.8-3.1-6.4-6.1-8.6-3.3.6-2.8,2.1c6.7,17.4,12,35.2,15.8,53.4s2.1,10.4,2.9,15.6,4,1.4,3.6-1h0Z"/>
  <path class="st0" d="M148,150.8c-.8-29.8-1.6-59.6-2.5-89.3-.2-6.5-9.4-6.3-10,0-2.1,22.8,9.6,43.4,14.1,65.3l9.6-2.7c-3.3-13-6.6-25.9-9.9-38.9l-9.6,2.7c1.7,6.4,3.5,12.8,5.2,19.2s1.7,6.1,2.5,9.2.5,3.5,1.2,4.6l.5,1.8c1.9-.7,2.2-1.5,1-2.6-3.2-4.9-10.2-1.7-9.1,3.9s2.4,14.1,3.2,21.2l8.5-3.5c-1.1-1.4-1.7-3-1.8-4.7-.6-6.3-10-6.5-10,0,0,1,0,2,0,3,0,6.4,10,6.4,10,0,0-1,0-2,0-3h-10c.4,4.6,1.9,8.2,4.7,11.8s9,.6,8.5-3.5c-.9-8-2.1-15.9-3.6-23.9l-9.1,3.9c2.4,3.6,5.5,7.1,10.3,6.8s8.1-4.8,7.4-9.7-3.1-12-4.7-17.7-3.5-12.8-5.2-19.2c-1.7-6.2-11.2-3.6-9.6,2.7,3.3,13,6.6,25.9,9.9,38.9,1.6,6.3,10.9,3.6,9.6-2.7-4.2-20.9-15.7-40.8-13.7-62.6h-10c.8,29.8,1.6,59.6,2.5,89.3s10.2,6.4,10,0h0Z"/>
  <path class="st0" d="M143.7,155.2c26.7,3.1,53.5-.6,80-3.4s15-1.5,22.5-2,2.4-3.9,0-3.8c-26.7,1.8-53.3,6.5-80.1,6.6s-15-.3-22.4-1.2-1.9.9-1.9,1.9.9,1.8,1.9,1.9h0Z"/>
  <path class="st0" d="M145,161.7c4.5,4.6,9,9.3,13.5,13.9s10,0,8.4-4.9-3.5-9.7-5.6-14.4c-2.6,2-5.2,4-7.9,6.1,3.9,4.1,9.9,13.7,16.7,11.9s4.7-3.1,5.5-5.6.6-2.4.7-3.6-.9-4,0-4.7l-8.5-3.5c.5,10.9,6.6,20.8,16.5,25.4s4.4.9,6.1-.8c2.7-2.6,3.7-5.9,3.6-9.6s-.9-4.3-.3-5.8-.1-.7,1-.9,2.5,1.1,3.4,1.3c7,2.1,14.7-3.8,11.2-11.2-2.7-5.8-11.4-.7-8.6,5,1.4-2.2,1.2-3.5-.6-3.8-.9-.4-1.8-.8-2.7-1.1-1.3-.4-2.7-.8-4-.7-2.8,0-5.4,1.3-7.1,3.5s-2.4,5-2.5,7.7,1.4,6.7-.4,8.4l6.1-.8c-6.8-3.2-11.2-9.2-11.5-16.8s-5.3-6.4-8.5-3.5-4.3,7.2-2.9,10.7v1.1c1-.2,1.9-.4,2.8-.6,0-.3-2.2-2.3-2.5-2.6-2.1-2.2-4.1-4.3-6.2-6.5-4.2-4.4-9.9,1.2-7.9,6.1,1.7,4,3.2,8,4.5,12.1l8.4-4.9c-4.5-4.6-9-9.3-13.5-13.9s-11.6,2.4-7.1,7.1h0Z"/>
  <path class="st0" d="M133.1,160.7v82.7c0,2.4,3.8,2.4,3.8,0v-3.6c0-2.4-3.8-2.4-3.8,0v3.6c0,2.4,3.8,2.4,3.8,0v-82.7c0-2.4-3.8-2.4-3.8,0h0Z"/>
  <path class="st0" d="M139.4,214.7l-4.8-5.8c-.7-.9-1.5-2.2-2.4-2.9l-1.2-1.5c-2.4,1.3-2.9,1.9-1.5,1.8,2.4,1.9,8.2-1,9.8-2.8,2.4-2.5,1.7-7.7-2.2-8.4s-12.6-3.9-15.1-9.3v5c-2.8,1.1-2.9,1.5-.3,1.2,1.2,0,2.5,0,3.7,0,2.5,0,4.9,0,7.4-.1,3.9,0,7.2-5.7,3.5-8.5s-7.4-5-11.8-6.5l3,7.3.5-.8-3,2.3c2.2-.8,4.6,0,6.7-1.4s3.4-3.5,3.9-5.9c1.1-5.8-3.1-9.8-7.4-12.8v8.6c2.6-1.7,5.3-3.3,7.9-5,5.4-3.4.4-12.1-5-8.6s-5.3,3.3-7.9,5-3.1,6.5,0,8.6,1.4,1.4,3.9,1.3c-1,0-2,0-3.1.1-2.4.4-3.8,1.5-5.1,3.5-2,2.8.2,6.4,3,7.3s5.1,2.2,7.4,3.9l3.5-8.5c-5.2,0-24.3-1.9-19.5,9s13.3,12.5,21.1,13.9l-2.2-8.4c.1-.1-2.2-.2-3.3-.2s-2.4.2-3.5.6c-2.6.8-4.8,2.9-5.3,5.6s1.6,6.5,3.8,9.2,5.6,6.8,8.4,10.2c4.1,5,11.1-2.1,7.1-7.1h0Z"/>
  <path class="st0" d="M139,144.3c-16,3-32-1.8-47.1-6.8s-28.4-9.6-43.5-10.5-6.4,9.6,0,10,17,3.7,24.3,8.9,6.4-.2,7.3-3c1.7-5.2,7.9-5.9,10.7-1.3s7.7,2.8,9.1-1.2,1.9-5.1,2.8-7.6l-9.6-2.7c-1.6,7.3-.5,14.4,3.7,20.7s7.8,3.1,9.1-1.2,2.9-9.5,4.3-14.3l-9.8-1.3c.2,6.7,2.7,12.6,7.6,17.2s7.1,1.3,8.4-2.2,2.8-7.8,4.1-11.8l-9.8-1.3c.6,7.2,3.5,16.2,12.4,15.9s10.1-8.4,10.3-14.9l-9.3,2.5c.6.9.6,1.8.2,2.7l4.8-3.7c-1.2-.1-2.7-3.5-3.4-4.4-1.4-2-3-3.7-5-5.2-3.9-2.9-8.7-4.1-13.4-4.8-11.8-1.7-24.7-2.1-36.3,1s-3.6,11.3,2.7,9.6,12.6-2,19.1-1.7,10.9.2,16.1,1.5,7.2,3.4,10,7.3,5.4,6.2,10.2,6.8,4.3-1.7,4.8-3.7c1-3.7.6-7-1.2-10.4s-9.2-2.2-9.3,2.5,0,4.5-.7,4.8c-1.4.5-1.9-4.8-2-5.7-.5-5.6-7.9-6.8-9.8-1.3s-2.8,7.8-4.1,11.8l8.4-2.2c-3-2.8-4.6-6-4.7-10.2s-8.2-6.8-9.8-1.3-2.9,9.5-4.3,14.3l9.1-1.2c-2.7-4-3.8-8.2-2.7-12.9s-7.5-8.7-9.6-2.7-1.9,5.1-2.8,7.6l9.1-1.2c-7.6-12-24.7-9.8-29,3.7l7.3-3c-8.7-6.2-18.7-9.5-29.4-10.2v10c32.1,1.9,60.3,23.1,93.3,17,6.3-1.2,3.6-10.8-2.7-9.6h0Z"/>
  <path class="st0" d="M168.9,118.2c7.9-11.4,15.7-22.8,23.6-34.2l-9.1-3.9c-4,12.4-8.1,24.8-12.1,37.2l7.3-3c-.2-.1-5.1-3-5.1-3,.6,3.1,1.2,3.5,1.6,1.4.2-.6.5-1.3.8-1.9.9-2,2.6-5.5,5.1-5.8,6.3-.8,6.4-10.8,0-10s-11.5,5.6-14.3,12-2.8,5.8-1.9,8.7,5.6,5.4,8.7,7.2,6.4,0,7.3-3c4-12.4,8.1-24.8,12.1-37.2,1.8-5.7-6.1-8.3-9.1-3.9-7.9,11.4-15.7,22.8-23.6,34.2s5,10.3,8.6,5h0Z"/>
  <path class="st0" d="M224.3,224.6c-15.7-8-33.9-14.8-46.6-27.4s-10.8-12.2-17.7-12.6c-9.1-.6-6.9,11.9-6.7,17.3s3.1,5.6,6.3,4.8c5.8-1.4,11.6-2,17.5-1.5s12.3,1.3,16.3,4.2,2,3.1,2.9,5,2.6,4,4.2,5.7c3.5,3.5,7.9,5.9,12.3,8.2s10-3.6,6.1-7.9c-16.4-17.5-32.8-38.9-56.6-46.3s-8.8,7.7-2.7,9.6c21.8,6.8,37.1,27.8,52.1,43.7l6.1-7.9c-4.8-2.5-10.3-5.2-12.9-10.3s-1.8-5-4-6.9-4.4-2.5-6.7-3.4c-11.9-4.6-25.1-5-37.4-2,2.1,1.6,4.2,3.2,6.3,4.8,0-1.9-.2-3.8-.2-5.6v-1.9c.1-2,0-2.5-.4-1.3l-3.5,1.5c1.8,0,4.6,2.9,5.9,4.1,2.2,1.9,4.1,4.1,6.2,6.1,4.1,4.1,8.7,7.5,13.6,10.5,11,6.7,22.9,12,34.4,17.9s10.8-5.7,5-8.6h0Z"/>
  <path class="st0" d="M109.9,174c-10.9,10.5-21.4,21.3-31.4,32.6-8.5,9.6-19.3,19.8-22.2,32.7s3.4,7.9,7.3,5.6,9.2-8.1,12.4-13.4c3.8-6.3,7.7-11.9,12.7-17.3,9.4-10.1,19.8-21.4,18.4-36.3l-5,5c1.4,0,2.8,0,4.2,0,6.4,0,6.4-10,0-10s-2.8,0-4.2,0c-2.5,0-5.3,2.3-5,5,1.3,13.5-9.6,22.7-17.8,31.8-4,4.4-7.4,9.1-10.4,14.2s-5.4,9.6-10.4,12.4l7.3,5.6c2.7-12.2,14.1-22.2,22.1-31.1,9.3-10.3,18.9-20.2,28.9-29.8s-2.4-11.5-7.1-7.1h0Z"/>
  <path class="st0" d="M128.4,113.1c-10.3-17.7-21-35.1-32.3-52.1s-11.1-.8-8.6,5,6.5,14,12.9,18.1,6.5,2.8,10.2,3.3,3.7.2,3.9,2.7-1,4.3-1.8,6l9.1,3.9c.4-2.7,1.3-4.7,2.9-6.8l-9.3-2.5c.2,5.6.4,11.3.6,16.9s8,6.7,9.8,1.3,3.1-10.4,3.9-15.7l-9.8-1.3c0,3.9,0,7.9.1,11.8,0,6.4,10.1,6.4,10,0s0-7.9-.1-11.8-8.9-7.1-9.8-1.3-2.2,10.6-3.9,15.7l9.8,1.3c-.2-5.6-.4-11.3-.6-16.9s-6.4-6.4-9.3-2.5-3.4,5.8-3.9,9.2c-.9,5.1,6.5,9.4,9.1,3.9s5.7-19.6-5-22.9-9-.6-12.9-4.6-5.4-8.3-7.4-12.8l-8.6,5c11.2,17.1,22,34.5,32.3,52.1s11.9.5,8.6-5h0Z"/>
  <path class="st2" d="M213.9,59.1c-.5-5.6-.5-11.3,0-16.9.2-2.8.6-5.5,1-8.2s.4-2.8.8-4.1.5-2,1.3-1.9l-1.4-1.4c-.8,9.3,7.9,14.8,12,22l1.2-2.1c-11.2.1-22.3-.5-33.4-1.9l1,2.4c.6-.8,1.6-1,2.5-1.4s1.8-.8,2.7-1.1c1.9-.8,3.7-1.6,5.6-2.5,3.6-1.7,7.1-3.6,10.5-5.7,6.9-4.1,13.4-8.9,19.4-14.2l-2-2c-10.4,10.7-18.7,23.3-24.4,37.1-.7,1.7,2,2.4,2.7.7,5.5-13.3,13.6-25.5,23.7-35.9s-.6-3.2-2-2c-6.1,5.3-12.7,10.1-19.6,14.2s-7,3.9-10.6,5.6-3.7,1.7-5.6,2.5-3.7,1.2-4.9,2.6-.2,2.2,1,2.4c11.1,1.4,22.3,2,33.4,1.9s1.7-1.2,1.2-2.1c-3.8-6.6-12.3-12.1-11.6-20.6s-.7-1.4-1.4-1.4c-2.5,0-3.7,2.4-4.2,4.5-.7,3.2-1.2,6.4-1.5,9.7-.7,6.6-.8,13.2-.2,19.8s3,1.8,2.8,0h0Z"/>
  <path class="st1" d="M20.3,100.1c4.2-3.6,8.7-6.8,13.4-9.6s4.7-2.7,7.1-3.9,2.4-1.1,3.6-1.7,2.3-1,2.8-.3l.5-1.9c-8.1,4.8-7.5,14.9-11,22.5h2.4c-6.6-9-12.5-18.5-17.8-28.3l-1.2,2.1c.9,0,1.8.8,2.5,1.3s1.8,1.1,2.6,1.6c1.6,1,3.3,2,5,2.9,3.5,1.9,7.1,3.7,10.8,5.3,7.3,3.2,14.9,5.7,22.6,7.6l.7-2.7c-14.8-2.3-29.9-1.8-44.4,1.5s-1,3.1.7,2.7c14.1-3.2,28.7-3.8,42.9-1.5s2.5-2.3.7-2.7c-7.9-1.9-15.7-4.5-23.2-7.9s-7.2-3.4-10.7-5.4-3.6-2.1-5.3-3.2-3.1-2.2-5.1-2.4-1.7,1.2-1.2,2.1c5.3,9.8,11.3,19.3,17.8,28.3s1.9,1.1,2.4,0c1.8-4,2.5-8.3,3.8-12.4s2.9-7.1,6.2-9,.9-1.3.5-1.9c-1.6-2.4-4.4-1.6-6.6-.7s-6,2.8-8.8,4.4c-5.7,3.2-11,7-15.9,11.2s.6,3.1,2,2h0Z"/>
  <path class="st0" d="M150.7,153.7h92.4v-10c-8,.7-15.6-1.1-23.4-2.7s-14.4-2.5-21.6-2.9-14.9-.3-22.2.5-6.4.8-9.6,1.3-7.8,2.5-10.1,2l2.2,8.4c1.4-1.6,2.8-3.2,4.2-4.8,2.1-2.4,1.9-6.1-1-7.9-6.1-3.7-13.6,1.8-12.1,8.8,1.7,8.2,10.6,8.3,17.1,9.6s8.2,2.1,11.8,4.5,4.8,4.9,8.3,5.5,7.8-2.2,11.5-3.5,9-2.2,13.7-2.3,6.4-10.1,0-10-10,.7-14.7,2.2-5,2.2-7.5,2.9l-1.5.7v-.5c-1-.3-2.2-1.8-2.9-2.4-3.6-2.7-7.8-4.6-12.1-5.9s-4.6-1.1-6.9-1.5-1.9-.2-2.9-.4c-.9,0-1.8-.3-2.7-.5-1.5-.6-2.8-.2-4,1.4l-1-7.9c-1.4,1.6-2.8,3.2-4.2,4.8-2.3,2.7-1.7,7.5,2.2,8.4,6.3,1.4,14.1-1.9,20.5-2.7s15.4-1.1,23.2-.7c15.3.8,30.6,7,46,5.6s6.5-10,0-10h-92.4c-6.4,0-6.4,10,0,10h0Z"/>
</svg>