<?xml version="1.0" encoding="UTF-8"?>
<svg id="Layer_2" xmlns="http://www.w3.org/2000/svg" version="1.1" viewBox="0 0 186 330.4">
  <!-- Generator: Adobe Illustrator 29.8.2, SVG Export Plug-In . SVG Version: 2.1.1 Build 3)  -->
  <defs>
    <style>
      .st0 {
        fill: #ff0080;
      }
    </style>
  </defs>
  <path class="st0" d="M93.9,10.6c-2.7,9.2-10.3,15.9-15.8,23.4s-5.5,8.8-6.8,13.8-1.6,11.4-.4,17c1.9,9.2,7.4,17.1,12.7,24.6s10.7,15,12.5,24-1.5,21.4-6.6,30.6-12.7,17.9-18.4,27.3-5.1,9.3-6.3,14.4-1.2,10.9,0,16.2c2.5,10.6,9.1,19.8,16.1,27.8,7,7.9,14.7,15.2,20.4,24.1s8.3,20.4,9,31.6c0,1.4.1,2.7.2,4.1s0,1.5,0,2.3,0,.7,0,.9c.1.6-.2.3.1,0l1.1-.6h-.2c.4,0,.9,0,1.3,0l1,1.1v1.3-.2c-.2.4-.4.7-.6,1.1h.2c1-1,.9-2.8,0-3.7s-2.5-.9-3.5,0c-3,2.5,1.5,7,4.3,4.5s1.3-2.2,1.4-3.5,0-3.2-.1-4.8c-.2-6-.8-12.1-2.1-18s-3.3-11.1-6.2-16.2c-2.7-4.8-6.1-9.1-9.7-13.3-13.1-15.2-34.1-32.7-27.4-55.4s10.7-18.9,16.8-27.7,12.6-19.8,14.2-31.2c.8-5.6.6-11.2-.9-16.6-1.3-4.6-3.4-8.9-5.9-13-5-8.2-11.3-15.6-15.5-24.2s-5.2-20.3-.4-29.8,12.6-15.4,17.4-24.1,2.1-4.4,2.8-6.7-3.9-4.4-4.8-1.3h0Z"/>
  <path class="st0" d="M117.7,18.8c-3.7,11.1-11.6,20-19.5,28.3s-16.9,16.9-22.9,27.2-5.3,10.5-6.3,16.3-.7,11.1.6,16.5c2.4,10.4,7.8,19.9,13.3,28.9s11,16.5,14.5,25.3,2.7,8.8,2.8,13.5-.1,4.6-.7,6.9-1,3.5-1.9,5.1c-1.8,3.5-4.1,6.2-6.3,9.1s-5.8,8.4-8.6,12.7c-7,10.7-14.4,21.6-17.6,34.2s-2.2,12.4-1.4,18.6,2.9,11.3,6.1,16.3,6.3,8.3,9.6,12.4,5.9,7.5,7.6,11.8,1.4,4.3,1.5,6.5,1.1,2.5,2.5,2.5,2.6-1.1,2.5-2.5c-.7-10.6-7.9-18.6-14.3-26.4s-6.2-7.9-8.3-12.5-3-11.6-2.5-17.5c1.1-12.7,7.5-24,14.3-34.4,3.3-5.1,6.4-10.2,9.9-15.1s4.6-5.8,6.8-9.1,4.1-7,4.9-10.9.8-10.7-.2-15.9c-1.8-9-7.2-17.2-12-24.9s-11.4-17.6-15.2-27.4-3.2-9.5-3.6-14.5.7-11.2,2.8-16.4c9-22.1,32-34.3,42.8-55.2,1.3-2.6,2.5-5.2,3.4-8s-3.8-4.4-4.8-1.3h0Z"/>
  <path class="st0" d="M96.5,21c4.6,3.9,9.6,7.2,15,9.9s2.8.4,3.4-.9.4-2.8-.9-3.4c-2.6-1.3-5-2.7-7.4-4.3s-2.3-1.5-3.4-2.4-.6-.4-.8-.6c.3.2-.1-.1-.2-.2-.1-.1-.3-.2-.4-.3-.6-.5-1.1-.9-1.7-1.4-1-.8-2.6-1.1-3.5,0s-1.1,2.6,0,3.5h0Z"/>
  <path class="st0" d="M105.6,37.6c-3.4.7-6.8-1.5-9.7-3.1s-7.1-3.8-10.7-5.7-5.4,2.8-2.5,4.3,7.9,4.2,11.9,6.3,7.9,3.8,12.4,3,2.1-1.8,1.7-3.1-1.7-2-3.1-1.7h0Z"/>
  <path class="st0" d="M77.5,43.5c6.5,3.2,13,6.6,19.3,10.2s5.3-2.7,2.5-4.3c-6.3-3.6-12.8-7-19.3-10.2s-2.7-.3-3.4.9-.3,2.8.9,3.4h0Z"/>
  <path class="st0" d="M86.2,56.5c-2.2.2-4.5.2-6.7,0s-1.1,0-1.7-.1-.5,0-.8,0c-.5,0,.2,0-.4,0-1.1-.2-2.2-.4-3.4-.6s-2.8.4-3.1,1.7.4,2.8,1.7,3.1c4.7,1,9.5,1.4,14.3,1.1s2.6-1.1,2.5-2.5-1.1-2.6-2.5-2.5h0Z"/>
  <path class="st0" d="M73.2,89.1c.2,0,.3,0,.5,0-.2,0-.2,0,0,0,.3,0,.7.1,1,.2.6.1,1.2.2,1.8.4,1.2.3,2.4.6,3.6,1,2.1.8,4.2,1.8,6.4,3.2s2.8.3,3.4-.9.3-2.7-.9-3.4c-4.8-3-10.2-4.8-15.9-5.5s-2.6,1.3-2.5,2.5,1.1,2.3,2.5,2.5h0Z"/>
  <path class="st0" d="M90,97.8c-6.9,0-13.8,0-20.6,0s-3.2,5,0,5c6.9,0,13.8,0,20.6,0s3.2-5,0-5h0Z"/>
  <path class="st0" d="M74.6,116.5c8.2,2.2,16.1-1.8,23-5.7s.3-5.9-2.5-4.3c-5.7,3.2-12.4,7-19.2,5.2s-4.4,4-1.3,4.8h0Z"/>
  <path class="st0" d="M96.3,121.9c-.5.3-1.1.6-1.6.8s-.6.3-.9.4c.4-.2-.3.1-.4.1-1.2.5-2.4.8-3.6,1.1s-1.2.3-1.8.4c-.1,0-.3,0-.4,0,.2,0,.2,0-.1,0-.3,0-.6,0-.9,0-1.2.1-2.5.1-3.7,0s-2.6,1.2-2.5,2.5,1.1,2.4,2.5,2.5c5.5.3,11.1-1,15.9-3.8s1.6-2.3.9-3.4-2.2-1.6-3.4-.9h0Z"/>
  <path class="st0" d="M84,164.8c2.2-.1,4.5-.1,6.7,0s3.9.4,6.2,1,2.8-.4,3.1-1.7-.4-2.8-1.7-3.1c-4.7-1.1-9.5-1.5-14.2-1.2s-2.6,1.1-2.5,2.5,1.1,2.6,2.5,2.5h0Z"/>
  <path class="st0" d="M100.8,178.5c-8.8.9-17.7-.8-25.4-5.2s-5.3,2.7-2.5,4.3c8.4,4.8,18.3,6.9,28,5.9s2.5-1,2.5-2.5-1.1-2.6-2.5-2.5h0Z"/>
  <path class="st0" d="M67.2,193.6c4.6-.5,9,1,13.4,2.4s9,3,13.5,4.5,4.4-3.8,1.3-4.8c-4.6-1.5-9.3-3.1-13.9-4.6s-9.4-3-14.3-2.4-2.5,1-2.5,2.5,1.2,2.7,2.5,2.5h0Z"/>
  <path class="st0" d="M84.6,205.1c-4.2.4-8.3.5-12.5.2s-2.6,1.2-2.5,2.5,1.1,2.4,2.5,2.5c4.2.2,8.4.2,12.5-.2s2.6-1.1,2.5-2.5-1.1-2.6-2.5-2.5h0Z"/>
  <path class="st0" d="M84.2,233.6c-2.1.9-4.8,1.9-7.2,2.6s-5.2,1.5-7.8,2-2.1,1.9-1.7,3.1,1.7,2,3.1,1.7c5.6-1.1,10.9-2.9,16.2-5.1s1.6-2.4.9-3.4-2.1-1.4-3.4-.9h0Z"/>
  <path class="st0" d="M66.1,257.7c10.5,2.4,22,.2,30.7-6.2,1.1-.8,1.6-2.2.9-3.4s-2.3-1.7-3.4-.9c-7.7,5.6-17.5,7.8-26.8,5.7s-4.5,4.1-1.3,4.8h0Z"/>
  <path class="st0" d="M103.3,252.6c-10.9,6.7-20.7,16.4-33.6,19.3s-1.8,5.5,1.3,4.8c13.4-3,23.5-12.8,34.8-19.8,2.7-1.7.2-6-2.5-4.3h0Z"/>
  <path class="st0" d="M76.9,288.8c6.6,2.1,12.9-1.5,17.8-5.7s4.6-4.3,7.1-6.2,6-3.7,9.1-5.4.3-5.8-2.5-4.3-5.7,3-8.3,4.9c-2.6,1.8-4.9,3.9-7.2,6.1-3.9,3.5-9,7.6-14.5,5.8s-4.4,3.8-1.3,4.8h0Z"/>
  <path class="st0" d="M110.3,279.3c-4.2,2.8-7.1,7-11.1,10s-8.4,4.8-13.1,5.8-2.1,1.8-1.7,3.1,1.7,2,3.1,1.7c5-1,9.8-3.1,14-6s4-3.1,5.8-4.9,3.5-3.8,5.7-5.3.2-6.1-2.5-4.3h0Z"/>
</svg>