<?xml version="1.0" encoding="UTF-8"?>
<svg xmlns="http://www.w3.org/2000/svg" version="1.1" viewBox="0 0 184.3 149.1">
  <!-- Generator: Adobe Illustrator 29.8.2, SVG Export Plug-In . SVG Version: 2.1.1 Build 3)  -->
  <defs>
    <style>
      .st0 {
        fill: #bd29ed;
      }

      .st1 {
        fill: #bcb3ff;
      }

      .st2 {
        fill: #000d35;
      }

      .st3 {
        fill: #ffec64;
      }
    </style>
  </defs>
  <g id="Layer_2">
    <g>
      <path class="st2" d="M134.5,98.8c-1.6-1.6-.6-4.4-.2-6.3.7-2.8,1.3-5.6,1.8-8.5,1.1-5.5,1.9-11.1,2.6-16.7,1.3-11.3,1.9-22.7,1.5-34.1-.2-6.5-.6-13-1.4-19.5l-1.4,1.4c.2,0,.4,0,.5,0,.3.1.5,0,.6-.4-1.2,0-1.5,1.8-.3,2.1,1.3.4,2.5-.8,2.5-2.1,0-1.8-1.9-2.3-3.4-2.5-.7,0-1.5.7-1.4,1.4,2.7,23.5,1.8,47.3-2.5,70.7-.6,3.2-1.4,6.3-1.9,9.5-.4,2.3-.4,4.6,1.4,6.3s2.2-.5,1.3-1.3h0Z"/>
      <path class="st2" d="M135.8,17.6c.3,1.1.6,2,1.1,3,.5,1,1,2.1,1.5,3.1,1.1,2.1,2.1,4.3,3.2,6.4,2.1,4.2,4.3,8.4,6.4,12.6,4.2,8.3,8.4,16.6,12.6,24.9,2.4,4.8,4.8,9.6,7.2,14.4.8,1.7,3.3.2,2.5-1.4-.6-1.3-1.2-2.5-2-3.7s-2.9-.4-2.3,1,1.2,2.8,1.8,4.2l2.5-1.4c-8.3-16.7-16.9-33.2-25.5-49.7-1.2-2.3-2.4-4.5-3.6-6.8-.6-1.2-1.2-2.3-1.9-3.5-.3-.6-.6-1.2-1-1.7-.4-.7-.9-1.1-1.4-1.8-.4-.6-1.5-.3-1.3.5h0Z"/>
      <path class="st2" d="M171.2,74.7c.7,0,1.3.2,1.9.4,1,.4,1.5-1.3.4-1.7-2.1-.7-4.4-.9-6.6-1.4s-4.3-1.2-6.5-1.8c-4.3-1.3-8.5-2.8-12.7-4.1s-8.5-2.7-12.7-4c-2-.7-4.1-1.3-6.1-2.1-1-.4-2-.8-3-1.3-.1,0-1.4-.6-.7.2.1.2,1.5.2,1.8.2,1.4.2,1.8-1.9.7-2.5-1.5-.9-3.5-1.1-4.8.3s-.8,3.2.6,4.1c1.6,1,3.5,1.6,5.2,2.2,1.9.7,3.9,1.3,5.9,2,8.2,2.5,16.4,5.1,24.6,7.4,2.2.6,4.5,1.2,6.8,1.8s4.8,1.2,7.2,1l-.2-1.7c-.6.1-1.2,0-1.9,0-.8,0-.7,1,0,1.1h0Z"/>
      <path class="st2" d="M119.8,63.7c-1,0-2.1,0-3.1,0l.5,1.8c9.1-6.1,18.1-12.4,27.1-18.7,4.5-3.1,9-6.3,13.5-9.4,3.8-2.6,8.3-5.1,10.9-8.9,2.4-3.5,2.4-8.6-1.2-11.3-.8-.6-2,0-2.2.9-4.8,19.2-11.2,38-19,56.1-2.2,5.2-4.7,10.3-6.9,15.4-.7,1.7,1.6,3.2,2.6,1.5,4.7-8.8,8.4-18.2,12.1-27.5s6.9-18.8,9.8-28.5c1.6-5.4,3.1-10.9,4.5-16.3l-2.2.9c2.9,2.2.9,6.7-1.1,8.7-1.4,1.5-3.2,2.6-4.9,3.9-2,1.4-3.9,2.8-5.9,4.2-8.1,5.8-16.2,11.5-24.2,17.3-4.6,3.3-9.2,6.6-13.8,10-.9.7-.4,2,.8,1.8.9-.2,1.9-.3,2.8-.4s1-1.5,0-1.5h0Z"/>
    </g>
  </g>
  <g id="Layer_3">
    <path class="st2" d="M133.9,16.5c-17.2,7.8-30.7,21.5-46.1,32.2-16.1,11.1-33.8,20.5-52.4,26.5-10.9,3.6-22.4,5.7-33.9,4.6-1.3-.1-1.3,1.9,0,2,20.2,2,40.1-5.7,58-14.3,8.8-4.3,17.4-9.1,25.6-14.6,8-5.3,15.4-11.2,23-17.2,8.4-6.6,17-13.1,26.8-17.5,1.2-.5.2-2.3-1-1.7Z"/>
    <path class="st2" d="M128,97.3c-16.8,2.3-33.7,4.6-50.5,6.9-8.2,1.1-16.3,2.4-24.5,3.3-7.8.9-15.8,1.3-23.5,0-7.4-1.3-15.9-4.2-19.5-11.4-.6-1.1-2.3-.1-1.7,1,3.1,6.2,9.7,9.5,16,11.2,7.7,2.1,15.8,2.3,23.7,1.7,8.3-.6,16.6-2,24.9-3.1l26.3-3.6c9.8-1.3,19.6-2.7,29.5-4,1.3-.2.7-2.1-.5-1.9Z"/>
    <path class="st0" d="M126.8,26.1c-5.8,6.2-11.7,12.3-17.7,18.3-5.7,5.7-11.6,11.3-18.2,15.9-6.8,4.8-14.4,8.4-21.8,12.2-7.4,3.8-14.7,7.7-22.2,11.3-8.1,3.8-16.6,7-25.6,7-1.3,0-1.3,2,0,2,7.9,0,15.5-2.4,22.7-5.5,7.7-3.3,15-7.3,22.5-11.1,7.7-3.9,15.5-7.6,22.8-12.3,6.8-4.4,12.9-9.8,18.7-15.5,7-6.8,13.7-13.8,20.4-20.9.9-.9-.5-2.4-1.4-1.4Z"/>
    <path class="st1" d="M124,85.1c-21.5-4.2-41.5,6.5-61.5,12.4-5.8,1.7-11.7,3.1-17.8,3.6-1.3.1-1.3,2.1,0,2,21.1-1.8,39.7-13.3,60.6-16.3,6-.9,12.2-.9,18.2.2,1.3.2,1.8-1.7.5-1.9Z"/>
    <path class="st3" d="M110.5,69.6c-9-1.8-17.5,2.7-25.2,6.8-7.9,4.2-15.8,8.5-24.3,11.4-4.8,1.6-9.7,2.8-14.7,3.2-1.3.1-1.3,2.1,0,2,8.6-.7,16.7-3.5,24.5-7,8.1-3.7,15.7-8.5,23.9-12,4.8-2.1,10-3.5,15.3-2.4,1.3.3,1.8-1.7.5-1.9Z"/>
  </g>
</svg>