<?xml version="1.0" encoding="UTF-8"?>
<svg id="Layer_2" xmlns="http://www.w3.org/2000/svg" version="1.1" viewBox="0 0 272.2 234.2">
  <!-- Generator: Adobe Illustrator 29.8.2, SVG Export Plug-In . SVG Version: 2.1.1 Build 3)  -->
  <defs>
    <style>
      .st0 {
        fill: #231f20;
      }

      .st1 {
        fill: #ffff39;
      }
    </style>
  </defs>
  <path class="st1" d="M39.4,58.4l1.9,10c.5,2.6,4.1,2.2,4.8,0,1.4-4.3,2.7-8.7,4.1-13h-4.8c.9,6.1,1.9,12.1,3.2,18.1s.9,6.3,4.2,6.3,4.5-5.5.9-6-3.3.6-3.2,2.4c.4,6.2,1.3,12.3,2.8,18.3s2.8,2.3,4.2,1.1,2.9-3,3.9-4.9l-4.7-1.3c.2,2.5.9,4.9,2.2,7.1s3.4,1.7,4.3,0,2.3-4.2,3.4-6.2l-4.7-1.3c.4,4.4,1,8.8,1.9,13.1s3.6,2.4,4.6.6c1.6-2.9,3.3-5.8,4.9-8.8l-4.6-.6c.7,2.5,1.4,5,2,7.5s3.5,2.5,4.6.6,2.8-4.9,4.1-7.3l-4.6-.6c.9,2.6,1.8,5.2,2.7,7.8s3.3,2.3,4.6.6,2.9-3.4,4.7-4.7l-3.4-.9c1.9,4.3,3.2,8.9,3.9,13.6s2.4,2.3,3.7,1.5c2-1.3,3.6-2.9,5-4.8l-4.6-.6c.8,3.9,1.5,7.8,2.3,11.7s3.7,2.5,4.6.6,2.4-4.6,4-6.6l-4.2-1.1c1.2,4.6,2.4,9.2,3.5,13.8l4.8-1.3c-2.9-7-7.5-13-13.5-17.6s-5.1,2-3,3.9c3.1,2.9,6.4,5.5,9.9,7.9l2.5-4.3c-11.4-5-23-9.4-34.9-13.2l-1.3,4.8c16.9,3.6,33.6,7.8,50.2,12.5,4.7,1.3,9.4,2.7,14.1,4.1l-1.8-2.4c-.4,3.5-2.7,6.7-5.8,8.4l3.7,2.8c4.4-17.3,10.9-34.1,17.9-50.5,1.9-4.6,3.9-9.2,5.9-13.8l-4.6-1.9c-4.6,16.3-10.6,32.1-18,47.3l4.7,1.3c-.3-19,1.9-38,6.7-56.4s2.9-10.3,4.7-15.4l-4.6.6c11.3,20.9,11.7,45.5,8.6,68.5-.9,7-2.2,14-3.6,20.9l2.4-1.8c-.2,0-.7-.8-.8-1.2-.5-.9-.8-2-1.1-3-.7-2.4-1.4-4.9-1.9-7.3-1.1-4.8-1.7-9.6-2-14.5-.6-10,.3-20,2.8-29.6s3.2-10.7,5.5-15.7h-4.3c9.4,16.2,9,37.2.1,53.6s-4.9,7.9-8.2,11.2-.9.8-1.3,1.3-.4.2-.4.3c0-.1.5.2.5.2-.1.1-1.7-3.3-1.8-3.6-1.2-2.6-2.2-5.3-3.1-7.9-3.9-10.9-6.2-22.4-6.9-34-.8-13.1.5-26.2,3.9-38.8l-3.7,1.5c8.2,5.5,12.5,14.9,14.5,24.4,2.3,10.8,1.8,22.4,0,33.3s-6.3,23.6-12.3,34.1-.7,1.3-1.1,1.9-.5.6-.6.9-.7.5.2.3h.5c.5.2.5.2.2,0,0,0-.1-.2-.1-.3-.3-.6-.3-1.3-.4-1.9-.5-3.3-.7-6.6-.6-9.9.1-6.6,1.1-13.1,2.3-19.6,2.7-14.3,6.9-28.4,12.7-41.7l-4.6-.6c4.1,15.4,2.9,31.9-3.1,46.7s-3.8,8.1-6.2,11.9l4.6.6c-3.1-15.9-3.2-32.5-.4-48.5s1.8-9.1,3.1-13.5l-4.6.6c6.2,13.6,5.8,30.1-.4,43.7-1.8,3.8-4,7.5-6.6,10.8l4.2,1.1c-2.3-10.6-2.5-21.7-.5-32.4s.8-5.1,1.9-7.4,2.4-2.2,4.2-2.4,4.6-.3,6.8-1,4-1.8,5.7-3.1c4-3.1,6.4-7.9,6.8-12.9l-4.7,1.3c8.6,11.2,10.3,25.6,11.7,39.2s.9,2.3,2.2,2.5,2.4-.6,2.7-1.8c3.4-13.2,4.6-26.9,3.3-40.4-.3-2.7-4.1-3.5-4.9-.7-2,7-2.3,14.2-1.3,21.4s1.7,2,2.7,1.8,2.1-1.2,2.2-2.5c1.1-14,.4-28.1-2-41.9s-3.5-2.2-4.6-.6c-3.3,5.1-4.4,11.1-3.6,17,.4,2.8,5.3,2.1,4.9-.7s-1.2-4.6-2.8-6.5-1.7-.9-2.4-.6c-5.3,1.9-8.6,8.2-6.4,13.6s3.9,2.4,4.8,0c3-7.4,4.1-15.6,3.1-23.5s-3.9-3.4-4.9-.7c-5.5,15.2-1.6,31.6,3.9,46.2,1.6,4.3,3.4,8.6,5.2,12.9s4.7,1.1,4.7-1.3c0-5.1-.2-10.2-.3-15.3h-5c1.9,17.7,2.9,35.5,3,53.3s0,10.2-.2,15.3h5c.4-21.2,0-42.4-.8-63.5s-.6-11.9-.9-17.8-4.9-3.2-5,0c-.5,17.1-1,34.3-1.5,51.4,0,2.8,4.3,3.4,4.9.7,2-8.8,3.9-17.6,5.9-26.3l-4.9-.7c-1.3,14.1-3.4,28.2-6.3,42.1-.6,3.1,4,4.5,4.8,1.3s2.1-8,3.2-12l-4.9-.7c.5,4.8.3,9.7-.6,14.5s2.3,4.3,4.2,2.4c5.2-5.3,9.9-11,14.2-17.1l-4.3-2.5c-2.9,6.6-5.7,13.3-8.6,19.9s2.5,5.2,4.3,2.5c4.3-6.4,8.7-12.8,13-19.1l-4.6-1.9c-2.5,6.9-6.2,13.4-10.7,19.1l3.9,3c6-13.9,14.5-26.6,25.1-37.3l-4.2-2.4c-1.2,7.6-3.3,15-6.2,22.1s.4,2.5,1.4,2.9,2.5,0,3.1-1c5-9,10.7-17.5,17.2-25.5l-4.3-1.8c-.9,7.5-3.2,14.9-6.7,21.5l4.6,1.9c4.5-12.1,9.9-23.7,16-35s.4-2.5-.6-3.2-2.5-.8-3.3.2c-5.1,6.5-10.1,13-15.2,19.6l4.2,2.4c4.7-13.2,9.4-26.4,14-39.6s-3.1-4.3-4.6-1.9c-4.3,7.1-8.6,14.2-12.9,21.3l4.3,2.5c7.2-13.3,14.7-26.4,22.5-39.4l-4.6-.6c1.7,7.4.2,15.3-4,21.7l4.3,2.5c1.1-2.1,2.3-4.2,3.4-6.3l-4.6-1.9c-2,9.3-5.8,18.1-11.2,25.9l4.6,1.9c3.3-9.8,7.9-19.1,13.9-27.6s-2.1-5.2-3.9-3c-18.1,21.9-36.4,43.6-54.7,65.3s-10.3,12.3-15.5,18.4l3.9,3c7.4-12.7,20.1-21.8,34.4-25l-3.1-1.7c1.5,7,1.1,14.3-.8,21.1s3.7,4.3,4.8,1.3,2.4-6.7,3.7-10.1-1.3-3.8-3.1-3.1c-9.8,3.9-20.1,6.1-30.6,6.6l2.2,3.8c2.3-5.2,6.2-9.4,11.2-12l-3.4-3.4c-8.2,10.6-18.1,19.9-29.3,27.4l3,3.9c3.2-2.6,6.3-5.2,9.5-7.8l-4.2-2.4c-2.3,7.9-4.7,15.8-7,23.7l4.8,1.3c.7-4,2.3-7.7,4.7-11.1l-4.6-.6c2.5,16.8-3.8,33.4-9.6,48.8l4.8,1.3c1-5,1.9-10.1,2.9-15.1l1.5-7.8c.4-1.9.5-4,1.4-5.7s.3-.6.4-.6c.1-.1.3-.3.4-.4,0,0,0,.1-.2.1.2-.5.3.2,0,0s.2.3.3.4c.8,1.5.7,3.7.7,5.4,0,4.9-.6,9.8-2,14.5h4.8c-4.6-15.2-6.6-31-6.1-46.9l-3.2,2.4c6.2,1.9,12.4,4.6,16.8,9.4s5.4,9.5,4.3,14.7-2,5.2-4.3,6.8l3.4.9c-4.7-8.9-6.7-19.1-5.7-29.2h-5c.8,13.8-1.5,27.6-6.7,40.4l4.6-.6c-8.1-15.5-8.9-33.5-9.6-50.6-.1-2.8-4.1-3.4-4.9-.7-4.3,14.3-11.3,27.9-20.4,39.7l4.2,2.4c4.8-17.1,13.1-33.1,24.5-46.8l-4.3-1.8c-1.9,17.1-6.4,34.1-13.2,50s-4.1,9.1-6.5,13.5h4.3c-4.7-6.7-6-15.1-3.6-22.9s-.5-2.7-1.7-3.1-2.6.5-3.1,1.7c-2.1,5.2-6.4,9.6-11.7,11.7l3.2,2.4c.2-5.2,1.6-10.3,4.2-14.8l-4.6-1.9c-1,6.1-3.5,11.8-7.2,16.8l4.7,1.3c.6-13.4,3.5-26.7,8.4-39.2s-.5-2.7-1.7-3.1-2.6.5-3.1,1.7c-5.4,13.2-12.2,25.8-20.1,37.6l4.6.6c-2-9-1.2-18.6,2.4-27.1l-4.6-1.9c-3.2,9.1-7.7,17.6-13.5,25.3l4.7,1.3c.1-13.6,3.5-27.1,9.8-39.2l-4.6-1.9c-1.2,8.7-5.1,16.7-11.4,22.7l3.9,3c8.6-13.9,18.2-27.1,28.9-39.5s6.2-7.1,9.5-10.5l-4.2-2.4c-7.1,17.6-15.7,34.5-25.6,50.7s-5.7,9.1-8.7,13.5l4.3,2.5c9.2-15,19.1-29.6,29.5-43.8s6-8.1,9-12.1l-4.6-1.9c-4.7,15.5-10.6,30.7-17.6,45.3s-4.1,8.2-6.2,12.3l4.6,1.9c5.8-14.2,13.1-27.8,21.5-40.6,2.4-3.7,4.9-7.3,7.5-10.8l-4.3-2.5c-7.9,13.7-15.8,27.5-23.7,41.2s2.6,5.2,4.3,2.5c10.1-15.4,20.2-30.8,30.4-46.2l-4.6-1.9c-3.3,15.4-9.2,30.1-17.5,43.4l4.3,2.5c7.9-15.4,16.8-30.4,26.5-44.7,2.7-4.1,5.6-8.1,8.4-12l-4.6-1.9c-5.8,19.6-13.1,38.8-22,57.2s-5.1,10.3-7.9,15.3l4.6,1.9c5.2-14.2,12.1-27.7,20.4-40.3s2.4-3.6,3.7-5.4,1.8-2.6,2.7-2.4l-1.8-2.4c.9,11-1.7,22-7.6,31.3l4.6,1.9c4.1-19.7,11-38.7,20.7-56.3s5.7-9.8,8.8-14.6l-4.7-1.3c-.2,18.6-4.2,37.1-11.8,54l4.6,1.9c2.5-8.9,5-17.9,7.5-26.8.3-1.2-.3-2.5-1.4-2.9s-2.6-.1-3.1,1c-1.8,4-3.5,8-5.3,12.1l2.8-1.1c-9.9-3-19.7-6.1-29.6-9.1s-9.5-2.8-14.2-4.4-3-1.2-4.3-2.2-1.7-1.8-1.8-3c0-1.8-2.1-3.3-3.8-2.2-4,2.8-8.2,5.4-12.6,7.8l3.7,1.5c-.5-2.3-.7-4.7-.3-7l-3.7,1.5c2,1.3,3.6,3.1,4.8,5.2l3.9-3c-7.3-8.8-14.1-18.1-20.3-27.7l-3.4,3.4c10.7,6.8,21.4,13.6,32.1,20.5s5.2-2.6,2.5-4.3c-10.7-6.8-21.4-13.6-32.1-20.5-2.1-1.3-4.8,1.3-3.4,3.4,6.4,10,13.4,19.6,21.1,28.7s5.2-.6,3.9-3-3.8-5.2-6.6-7-3.4,0-3.7,1.5c-.6,3.3-.5,6.5.3,9.7s2.3,2.2,3.7,1.5c4.3-2.4,8.5-5,12.6-7.8l-3.8-2.2c.2,7.4,8.5,9.7,14.3,11.4,8.4,2.6,16.7,5.2,25.1,7.7l14.1,4.3c1,.3,2.4-.2,2.8-1.1,1.8-4,3.5-8,5.3-12.1l-4.6-1.9c-2.5,8.9-5,17.9-7.5,26.8s.3,2.5,1.4,2.9,2.6.1,3.1-1c7.9-17.8,12.2-37.1,12.5-56.6s-3.3-3.3-4.7-1.3c-11.3,17-20,35.8-25.8,55.3s-3,11.1-4.2,16.7,3,4.4,4.6,1.9c6.3-10,9.3-22,8.3-33.8s-.7-2.2-1.8-2.4c-4.3-.8-6.9,2.6-9.2,5.8s-4.7,6.9-6.9,10.5c-4.3,7-8.2,14.3-11.5,21.9s-3.8,8.8-5.4,13.3,3.2,4.4,4.6,1.9c9.9-18.2,18.3-37.2,25-56.8s3.7-11.2,5.4-16.9-.3-2.5-1.4-2.9-2.4,0-3.1,1c-10.2,14-19.5,28.7-28,43.8-2.4,4.3-4.7,8.6-6.9,13s2.6,5.3,4.3,2.5c8.6-13.7,14.7-28.8,18-44.6s-3-4.3-4.6-1.9c-10.1,15.4-20.2,30.8-30.4,46.2l4.3,2.5c7.9-13.7,15.8-27.5,23.7-41.2s.3-2.7-.9-3.4-2.6-.2-3.4.9c-9.3,12.6-17.3,26-24,40.2s-3.8,8.2-5.5,12.4,3.3,4.4,4.6,1.9c7.8-14.6,14.4-29.8,20-45.5s3-8.8,4.4-13.3-.3-2.5-1.4-2.9-2.3,0-3.1,1c-10.7,14-20.9,28.4-30.4,43.2s-5.4,8.5-8,12.7,2.5,5.2,4.3,2.5c10.8-15.9,20.2-32.7,28.3-50.2s4.5-10.1,6.5-15.2-2.6-4.1-4.2-2.4c-11.5,12.2-22,25.3-31.4,39.2-2.6,3.9-5.2,7.8-7.7,11.9s1.9,5,3.9,3c6.8-6.6,11.4-15.5,12.7-24.9s-.2-2.4-1.4-2.9-2.5,0-3.1,1c-6.7,12.9-10.4,27.2-10.5,41.7s.8,2.1,1.8,2.4,2.2-.2,2.8-1.1c6-8.1,10.6-17,14-26.5s-3.4-4.5-4.6-1.9c-4.2,9.8-5.3,20.6-2.9,31s3.4,2.3,4.6.6c8.1-12.2,15-25.2,20.6-38.8l-4.8-1.3c-5.1,12.9-8,26.7-8.6,40.5s.8,2.1,1.8,2.4,2.1-.3,2.8-1.1c4-5.3,6.6-11.5,7.7-18s-.2-2.5-1.4-2.9-2.5,0-3.1,1c-3,5.3-4.7,11.3-4.9,17.4s1.7,3,3.2,2.4c7-2.8,12.4-8.2,15.2-15.2l-4.8-1.3c-2.8,8.9-1.3,19.1,4.1,26.8s3.4,1.8,4.3,0c8.5-15.9,14.6-33,18-50.7,1-5.1,1.7-10.1,2.3-15.3s-2.9-3.4-4.3-1.8c-9.3,11.2-16.7,23.8-21.9,37.4s-2.7,7.7-3.8,11.6,2.6,4.5,4.2,2.4c9.7-12.5,17.1-26.7,21.7-41.9l-4.9-.7c.8,18.1,1.8,36.7,10.3,53.1s3.8,1.2,4.6-.6c5.4-13.2,7.7-27.5,6.9-41.7-.2-3.3-4.7-3.2-5,0-1,10.9,1.2,22,6.4,31.7s2.3,1.6,3.4.9c5.9-4,7.8-11.1,6.8-17.9s-6.5-13.2-12.7-17-7.9-3.9-12.1-5.2-3.1.8-3.2,2.4c-.5,16.3,1.6,32.6,6.3,48.2s4.1,2.4,4.8,0c1.3-4.4,2.1-9.1,2.2-13.7s.4-8.8-2.5-11.5-3.6-1.8-5.4-1-2.8,2.3-3.5,4-1,3.7-1.3,5.6l-1.3,7.1c-1,5.4-2,10.7-3.1,16.1s3.7,4.3,4.8,1.3c6.2-16.4,12.3-33.6,9.6-51.4-.1-.9-1.2-1.7-2.1-1.8s-1.9.3-2.5,1.2c-2.6,3.6-4.4,7.9-5.2,12.3s3.9,4.5,4.8,1.3c2.3-7.9,4.7-15.8,7-23.7.3-1.1-.2-2.3-1.1-2.8s-2.2-.3-3,.4c-3.2,2.6-6.3,5.2-9.5,7.8s.7,5.5,3,3.9c11.9-8,22.3-17.8,31.1-29.2s.3-2.3-.4-3-2-.9-3-.4c-5.7,3-10.4,7.9-13,13.8s0,3.8,2.2,3.8c10.9-.4,21.8-2.7,32-6.7l-3.1-3.1c-1.2,3.4-2.4,6.7-3.7,10.1l4.8,1.3c2.2-7.8,2.5-15.9.8-23.8-.3-1.4-1.8-2-3.1-1.7-15.6,3.4-29.4,13.5-37.4,27.3-1.4,2.4,2.1,5.3,3.9,3,18.3-21.7,36.6-43.4,54.8-65.2s10.3-12.3,15.4-18.5l-3.9-3c-6.2,8.8-11,18.5-14.4,28.8-.4,1.2.4,2.5,1.4,2.9s2.4,0,3.1-1c5.6-8.2,9.6-17.4,11.7-27.1s-3.2-4.5-4.6-1.9l-3.4,6.3c-1.5,2.8,2.5,5.2,4.3,2.5,5-7.5,6.5-16.8,4.5-25.5s-3.5-2.4-4.6-.6c-7.8,13-15.3,26.1-22.5,39.4-1.5,2.8,2.6,5.3,4.3,2.5,4.3-7.1,8.6-14.2,12.9-21.3l-4.6-1.9c-4.7,13.2-9.4,26.4-14,39.6-.8,2.3,2.6,4.4,4.2,2.4,5.1-6.5,10.1-13,15.2-19.6l-3.9-3c-6.4,11.7-11.9,23.8-16.5,36.2-1,2.7,3.3,4.4,4.6,1.9,3.9-7.5,6.4-15.6,7.3-24.1s-2.9-3.4-4.3-1.8c-6.7,8.3-12.8,17.1-18,26.5l4.6,1.9c2.9-7.1,5-14.5,6.2-22.1s-.1-2.2-1.1-2.8-2.2-.4-3,.4c-10.9,11-19.8,24.1-25.9,38.3s-.4,2.4.6,3.2,2.5.8,3.3-.2c5.1-6.5,9.1-13.6,12-21.3s-.4-2.5-1.4-2.9-2.4,0-3.1,1c-4.3,6.4-8.7,12.8-13,19.1l4.3,2.5c2.9-6.6,5.7-13.3,8.6-19.9,1.3-2.9-2.4-5.2-4.3-2.5-4,5.7-8.5,11.1-13.4,16.1l4.2,2.4c1-5.2,1.3-10.5.8-15.8s-.9-2.3-2.2-2.5-2.4.6-2.7,1.8c-1.1,4-2.1,8-3.2,12l4.8,1.3c2.9-14.4,5.1-28.9,6.4-43.4s-4.3-3.4-4.9-.7l-5.9,26.3,4.9.7c.5-17.1,1-34.3,1.5-51.4h-5c1.3,21.1,2,42.3,1.9,63.5s0,11.9-.2,17.9,4.9,3.2,5,0c.4-17.8,0-35.6-1.4-53.3s-.9-10.2-1.4-15.3-1-2.5-2.5-2.5-2.5,1.1-2.5,2.5c0,5.1.2,10.2.3,15.3l4.7-1.3c-5.8-13.6-11.8-28.2-11-43.2.2-4.1,1-8.1,2.4-12l-4.9-.7c.9,7.6,0,15.1-2.9,22.2h4.8c-1.1-2.7,0-6.3,3-7.4l-2.4-.6c.7.8,1.2,1.9,1.4,3l4.9-.7c-.7-4.6.6-9.3,3.1-13.1l-4.6-.6c2.3,13.4,2.9,27,1.8,40.6l4.9-.7c-.9-6.3-.4-12.7,1.3-18.7l-4.9-.7c1.2,13.1.2,26.4-3.1,39.1l4.9.7c-1.5-14.4-3.3-29.8-12.4-41.7s-4.5-1.4-4.7,1.3c-.3,3.7-2.5,7.4-5.5,9.5s-3.4,1.9-5.4,2.2-4.5.2-6.6.8c-5.5,1.6-6.5,7.3-7.5,12.2s-1.7,11.2-1.7,16.8.7,12.7,2,18.9,3,2.6,4.2,1.1c10.6-13.1,14.9-30.5,12-47.1s-2.3-9.2-4.2-13.5-4-1.3-4.6.6c-4.6,16.3-6.2,33.4-4.7,50.3s1.1,9.6,2,14.4,3.5,2.3,4.6.6c9.2-14.2,13.5-31.4,12.2-48.3-.4-4.8-1.2-9.5-2.4-14.1s-3.7-2.6-4.6-.6c-5.6,13.1-10,26.7-12.7,40.6s-2.6,14.3-2.9,21.5,0,7.2.4,10.8.9,7,4.3,7.8,5.6-3.7,7-6.3,3.1-5.8,4.4-8.8c2.7-6.2,4.9-12.5,6.5-19.1,3-12.3,4-25.4,2.2-38-1.8-12.3-7-24.6-17.6-31.8s-3.3,0-3.7,1.5c-6.5,24.4-5.6,50.8,2.7,74.7s2.3,6.2,3.6,9.2,2.2,6,5.3,6.6,5.6-2.5,7.5-4.6,3.3-4,4.7-6.1c5.8-8.6,9.1-18.9,9.9-29.2s-1.5-23.6-7.4-33.8c-.9-1.5-3.5-1.7-4.3,0-9.2,20.1-11.6,43-6.6,64.6s1.4,5.8,2.5,8.7,2.7,5.3,6,5.7,2.2-.8,2.4-1.8c4.8-24.5,8.3-50,1.8-74.6-1.7-6.5-4.2-12.8-7.4-18.7s-3.9-1.3-4.6.6c-6.3,18.2-10.1,37.3-11.2,56.6s-.4,11-.3,16.5,3.5,3.6,4.7,1.3c7.6-15.6,13.8-31.8,18.5-48.5.3-1.2-.3-2.5-1.4-2.9s-2.6-.1-3.1,1c-7.2,16.7-14.4,33.4-20,50.7s-3,9.8-4.3,14.8,1.8,3.9,3.7,2.8c4.7-2.7,7.6-7.4,8.3-12.7s-.9-2.1-1.8-2.4c-16.5-5-33.2-9.5-50-13.4s-9.5-2.2-14.3-3.2-4.4,3.8-1.3,4.8c11.4,3.6,22.7,7.9,33.7,12.7,2.9,1.3,5.2-2.5,2.5-4.3s-6.1-4.6-8.9-7.1l-3,3.9c4.9,3.7,8.9,8.9,11.2,14.6s1.7,2.1,3.1,1.7,2.1-1.8,1.7-3.1c-1.2-4.6-2.4-9.2-3.5-13.8s-3-2.6-4.2-1.1c-1.9,2.3-3.5,4.8-4.8,7.6l4.6.6c-.8-3.9-1.5-7.8-2.3-11.7s-3.5-2.2-4.6-.6-1.9,2.2-3.2,3l3.7,1.5c-.8-5.1-2.3-10-4.4-14.8s-2.4-1.6-3.4-.9c-2.5,1.8-4.6,4-6.5,6.5l4.6.6c-.9-2.6-1.8-5.2-2.7-7.8s-3.5-2.6-4.6-.6-2.8,4.9-4.1,7.3l4.6.6c-.7-2.5-1.4-5-2-7.5s-3.5-2.5-4.6-.6c-1.6,2.9-3.3,5.8-4.9,8.8l4.6.6c-.8-3.9-1.4-7.8-1.7-11.8s-3.4-3.6-4.7-1.3-2.3,4.2-3.4,6.2h4.3c-.8-1.4-1.3-2.9-1.5-4.6s-.7-2.1-1.8-2.4-2.3.2-2.8,1.1c-.8,1.5-1.8,2.8-3.1,3.9l4.2,1.1c-1.4-5.6-2.3-11.3-2.6-17l-3.2,2.4h.2c-.4-.2-.7-.4-1.1-.6h.1c-.2-.3-.4-.6-.6-1l.7-1.8,1.3-.3c1.1,1.1,1.5,1.3,1.2.5v-.3c-.2-.5-.3-.9-.4-1.4-.2-.9-.4-1.9-.6-2.8-.4-1.8-.7-3.6-1.1-5.5-.7-3.7-1.3-7.5-1.8-11.2s-1.4-1.8-2.4-1.8-2.1.8-2.4,1.8c-1.4,4.3-2.7,8.7-4.1,13h4.8l-1.9-10c-.2-1.3-1.9-2.1-3.1-1.7s-2,1.7-1.7,3.1h0Z"/>
  <path class="st0" d="M115.7,109.8c-1.4-13.6-2.5-27.7.9-41.1s8.3-20.4,17.2-26.5c8.9-6.1,9.3-5.1,14.5-5.4s5.1,0,7.3,1.3,3.9,3.6,4.9,6.1c2.5,6.4,4.2,13.2,5.5,19.9s1.9,13.4,2.1,20.2c.3,10.1,1,24.2,11.8,29s2.8.4,3.4-.9c6.2-12.4,12.9-24.6,19.9-36.5s7.1-11.9,10.9-17.7,3.7-5.8,5.6-8.7,3.1-5.5,5.4-7.5,1.5-1.2,2.1-1.1.9,1.5,1.1,2.2c.7,2.5.9,5.1.7,7.8-.4,5.5-2.7,10.8-5.2,15.6-2.5,4.8-6.2,10.5-9.4,15.7s-5.6,10-7.9,15.3c-4.3,10-7.9,20.8-14.9,29.3s-8.8,8.2-13.9,11.6-10.3,7.3-13.5,12.8-2.5,5.5-2.8,8.5.5,6.1,1.5,9c1.8,4.9,5,9.9,3,15.1s-1.9,3.2-3.1,3.6-1.3.3-2.2,0-2.2-1.4-3.2-2.2c-2-1.4-4.5-2.2-6.9-1.6s-3.5,1.7-4.9,3-2.5,2.8-3.8,4.2-1.2,1.3-2,1.9c.3-.3-.5.3-.6.4s-.3.2-.5.3c-.2,0-.1,0,.1,0-.1,0-.3,0-.4.1,0,0-.8.1-.2,0h-.4c0,0-.8,0-.2,0-.3,0-.6-.1-.9-.2-1.1-.5-2.1-1.3-3.1-1.9-2.8-1.5-5.9-1.3-8.6.4s-4,3.7-6.4,4.9-1.6.7-2.5.6-.4,0-.6-.1c-.3-.2-.5-.7-.7-1.2-.7-2.6-1.6-5-4.2-6.1s-4.8-.8-7.1-.1-4.5,1.8-6.5,3.3l3.7,2.8c.8-5.2-1.9-10.4-7-12.4s-10.4.3-13.2,4.6l3.9-.5c-2.4-2.8-2.6-6.8-1.8-10.3s3.8-8.3,6.2-12.1c5.3-8.1,9-16.9,10.5-26.5s1.2-9.3-.7-13.5-5.9-6.4-9.9-8.5c-7.3-3.8-14.1-8.4-20.2-13.9-12.1-10.9-22-25.1-27-40.7s-1.3-4.5-.6-6.6,1.5-2.5,2.7-2.7c3-.5,4.4,4.7,5.2,6.8,3,7.7,7.1,14.8,12.2,21.3,10,12.7,23.6,22.4,38.9,27.6s3.8,1.2,5.7,1.7c3.1.8,4.4-4,1.3-4.8-15.8-4.1-30-13.3-40.5-25.7s-9.5-13.2-12.5-20.7-2.6-8-6.2-10.2-9-.2-11,3.8-.6,9.8,1.1,14.4,3.4,8.1,5.5,12c4.1,7.6,9.2,14.6,15,21s12.5,11.9,19.7,16.6,7.4,4.2,11.2,6.3,3.5,2.2,4.5,4.1,1.1,3.8,1,5.7c0,9.5-3.6,19.2-8.5,27.2s-11.3,16-8.7,25.7,1.6,4,3.1,5.7,3.1.8,3.9-.5c1.5-2.3,4.6-3.4,7.2-2.4s4.2,3.8,3.8,6.3,0,2,.9,2.6,2,.8,2.8.2c1.9-1.4,4-2.5,6.3-3s1.7-.2,2.3,0,1,.5,1.3,1.3c.5,1.2.6,2.6,1.3,3.8s2,2.4,3.5,2.8c2.7.8,5.7-.2,7.9-1.7s3.8-3.8,6.3-4.7c2.5-.9,1.9-.2,2.8.4,1.3.8,2.5,1.7,4,2.2,4.3,1.5,7.9-1.5,10.6-4.5s2.5-3,4-4.2.1-.1,0,0c.2-.1.4-.3.6-.4s.4-.2.6-.3c.6-.3-.3,0,.1,0s.3-.1.5-.2c.6-.2-.5,0,.2,0h.7c-.6,0,.4,0,.5.1,1.1.4,2.1,1.3,3.1,2s2.5,1.6,4,2c2.6.5,5-.3,7-2,4.2-3.6,5.1-9.8,3.6-14.9s-5.6-11-4.3-17,5.8-10.1,10.3-13.4,11.1-7.1,15.7-11.8c8.2-8.5,12.5-19.7,16.9-30.3s4.7-10.6,7.6-15.6,6.6-10.5,9.7-16,5.6-10.7,6.6-16.6.7-5.9.3-8.9-.9-6.5-3.3-8.5-6.1-1.1-8.5.8-4,4.8-5.7,7.4c-4,6-7.8,12-11.6,18.1-7.5,12.2-14.5,24.6-21.2,37.2-1.6,3.1-3.2,6.2-4.8,9.2l3.4-.9c-8.9-3.9-9-16.1-9.3-24.7s-.9-14.2-2.3-21.3-3-14-5.7-20.6c-1.3-3.2-3-6-5.8-7.9s-5.5-2.5-8.4-2.7c-5.7-.5-11.7,1.4-16.6,4.1-10.1,5.6-17.2,15.6-21,26.3-5.4,15.2-4.2,31.8-2.6,47.6s1.1,2.5,2.5,2.5,2.6-1.1,2.5-2.5h0l.9-.9Z"/>
  <path class="st0" d="M125.3,90.6c.2,0,.4-.2.6-.3s.6-.3.2,0c.3,0,.6-.2,1-.3.5,0,1.2-.2,2.1,0-.3,0,.6,0,.7.2.4,0,.8.2,1.1.4-.3,0,0,0,.1,0,.2,0,.3.2.5.2.3.2.8.5.9.6.3.2.6.5.9.8.4.4.2.2.5.6.5.8.6,1.1.9,2,.3,1.4.2,2.9-.3,4.4s-1.4,2.7-2.6,3.8-1,.8-1.7.9c0,0-.5,0-.3,0,0,0-.4-.2-.2,0q-.3-.2-.2,0c-.2-.2-.4-.4-.6-.6-.4-.4-.8-1.3-1.2-2-.6-1.1-1.1-2.2-1.6-3.4-.9-2.1-1.7-4.2-2.4-6.4s-.4-1.2-.5-1.8,0-.3,0-.5c0-.5,0,.2,0-.3v-.5c0-.6,0,.2,0-.3s0,0,0,0l-.6.3h0c.2,0,.5,0,.7.2.4,0,.7.3,1.1.4.6.3,1.2.5,1.9.8,1.4.6,2.7,1.1,4.1,1.7s2.7-.5,3.1-1.7-.5-2.6-1.7-3.1-3-1.2-4.5-1.8-3.1-1.5-4.7-1.4c-3.1,0-4.5,3.2-4.1,5.9s1.6,5.7,2.6,8.4,2.2,5.5,3.8,7.9,4.5,4.1,7.6,2.9,4.6-3,6-5.3c2.6-4.4,2.6-10.2-.8-14.2s-9.9-5.5-14.5-2.6-1.6,2.2-.9,3.4,2.3,1.6,3.4.9h-.2Z"/>
  <path class="st0" d="M153.7,101c-.6-3-1.8-7.9,1.9-9.4s1.9,0,2.4,1,.6,3.3.6,4.9v7.7c0,2.5,0,3.4-.5,5-.7,2.7-2.7,4.3-5.3,2.6-3.8-2.6-2.8-8.2-2.1-12s-.4-2.7-1.7-3.1-2.8.4-3.1,1.7c-1,5.7-1.8,12.4,3,16.6s4.6,2.7,7.3,2.3,4.7-2.1,5.8-4.4,1.4-4.7,1.5-7.2,0-6.2,0-9.3-.1-5.4-1.5-7.7-3.8-3.6-6.4-3.3-5.7,2.6-6.9,5.5-.6,7,0,10.4,5.5,1.8,4.8-1.3h.2Z"/>
  <path class="st0" d="M125.3,125.3c1.8,3.7,6.5,5.9,10.5,4.6s6.7-5.9,6-10.3-1.6-2-2.7-1.8-2.1,1.2-2.2,2.5c-.4,7.1,4.7,13.9,11.6,15.6,1.3.3,2.7-.4,3.1-1.7.7-2.9,1.4-5.8,2.2-8.6s-4-4.5-4.8-1.3-1.4,5.8-2.2,8.6l3.1-1.7c-4.8-1.2-8.2-5.9-7.9-10.8l-4.9.7c.3,1.7-1,3.8-2.8,4.3s-3.7-.6-4.5-2.4-2.3-1.5-3.4-.9-1.5,2.2-.9,3.4h0l-.2-.2Z"/>
</svg>