<?xml version="1.0" encoding="UTF-8"?>
<svg id="Layer_2" xmlns="http://www.w3.org/2000/svg" version="1.1" viewBox="0 0 305.7 234.2">
  <!-- Generator: Adobe Illustrator 29.8.2, SVG Export Plug-In . SVG Version: 2.1.1 Build 3)  -->
  <defs>
    <style>
      .st0, .st1 {
        fill: #2c37ff;
      }

      .st2 {
        fill: #ff00f3;
      }

      .st1 {
        stroke: #2c37ff;
        stroke-miterlimit: 10;
      }

      .st3 {
        fill: #42e000;
      }
    </style>
  </defs>
  <path class="st0" d="M68.4,68.4c-.3-8.1-.2-16.1.4-24.2l-3.4,1.4c1.8,2,3.6,4,5.4,6s3.3,3.9,5.1,5.6,3.7,2.4,6.1,2,4.4-1.6,6.8-1.8c4.8-.4,9.6.5,14.4-.2s8.6-2.2,12.2-4.7,3.8-3,5.4-4.7,3-3.6,5.1-2.9l-1.5-1.9c.2,16.3,2.7,34.4-7.5,48.5s-4.5,5.2-7.3,7-7,3.1-10.9,3.6-4.5.4-6.7.5-4.2,0-6.3-.5c-3.7-1-6.5-4.3-8.9-7.2-5.5-6.8-8.8-15.3-9.5-24s-4.2-2.6-4,0c.6,8.5,3.5,16.8,8.4,23.8s5.4,7.1,9,9.4,8.7,2.6,13.2,2.3,9.5-.7,13.8-2.6,6.6-3.7,9.3-6.4c5.5-5.7,8.9-13.2,10.4-20.8,2.2-11.1,1.1-22.4.9-33.6s-.6-1.6-1.5-1.9c-4.4-1.6-7.6,2.6-10.3,5.3s-6.7,5.1-10.7,6.2-8.9.9-13.4.7-4.8,0-7.1.6-4.2,2.2-6,1.1-1.7-1.6-2.4-2.4l-2.8-3.1c-2-2.3-4-4.5-6-6.8s-3.3-.2-3.4,1.4c-.5,8-.7,16.1-.4,24.2.3,8.1,4.1,2.6,4,0h.1Z"/>
  <path class="st0" d="M124.1,90.1c9.1-2.1,18.5-.8,27.5,1.2,9.4,2.1,18.7,4.8,28.3,5.8s9.5.9,13.1-2.3,2.6-3.2,3.5-5.1,2.1-4.6,3-6.9c1.8-4.6,3.2-9.5,4.1-14.3s1.1-9.2-.9-13.5-4.5-6.6-6.8-9.8-4-5.9-3.2-9.5l-1.9,1.5c10.7-.2,18.8,9.1,21.1,18.8,3.1,12.8-1.7,25.8-6.2,37.6s-4.8,12.3-6.6,18.7-2.8,12.9-3.4,19.4c-.6,6.5-.5,13.1.2,19.6.3,3.3,1.1,6.6,1.1,9.9s-.7,5.2-2.9,6.6-4.9-.4-6.3-2.4-3-5.5-3.9-8.4c-1.9-6.5-1.9-13.3,0-19.8s0-1.4-.5-1.9c-4.5-4.5-12.1-2.7-15.9,1.8s-4,14.6-3.6,21.8.7,10.1,1,15.1l1.5-1.9c-5.9,1.9-12-1.1-15.9-5.6s-5.7-13-5.7-19.9.1-3.8.2-5.7.3-2,.2-2.9-1-1.6-1.8-2.1c-2.6-1.6-5.8-1.3-8.5-.1-6.8,3.1-7.4,11.1-7,17.7.4,6.6.6,8.3.8,12.5s.3,4.1.4,6.1-.2,2.7-1.7,3.4-3.8,1-5.7,1.3-4,.5-6,.5-2.8-.3-3.6-1.6-1-2.5-1.1-3.7c-.3-3.8,0-7.8,0-11.6s.2-8.6.2-12.9.2-8.8.2-13.2,0-3.9-1.1-5.4-2.8-1.9-4.5-1.9c-6.2,0-10.3,5.6-11.9,11s0,14.2,0,21.4-.2,3.9-.7,5.8l.9-1.2c-5,2.4-9.6-2.5-11.5-6.6s-3-9-3.1-13.7c-.3-9.2,2.7-18.3,8.1-25.7s6.8-7.5,11.2-10.1.2-4.8-2-3.5c-12.4,7.3-20.2,21-21.2,35.3-1,14.3.8,15.2,4.5,21.4s5.4,6.4,9.6,7.1,4.2.2,6.1-.7,2-4.5,2.1-6.4c.5-8-2.9-16.5.5-24.2s3.2-5.2,6.1-5.9,1.5-.3,2.2,0,.8,1,.8,1.8c0,2.5,0,4.9,0,7.4-.2,9.9-.6,19.9-.5,29.9s.6,7.4,3.6,9.7,3.9,1.6,6.1,1.5,5-.4,7.4-.9,4.4-.8,6.2-1.9,2.8-3.1,3-5.3-.2-4.5-.3-6.8-.3-5-.5-7.6c-.4-6.1-2.6-18.7,6.2-20.1s2.5,0,3.4.9l-.6-1.4c-.7,7.7-1,15.7,1.8,23.1s7.1,11.8,13.6,14.2c3.5,1.3,7.3,1.5,10.9.4s1.5-1,1.5-1.9c-.3-4.9-.6-9.7-1-14.6s-.9-8.8-.2-13.1,2-6.7,5.2-8.5,5.5-1.7,7.6.4l-.5-1.9c-1.9,6.3-2.1,13-.7,19.4s1.8,6.3,3.3,9.2,3.1,5.2,5.7,6.6,5.8,1.2,8.2-.6,3.9-4.7,4.2-7.8-.5-7.2-.9-10.8-.6-7.2-.7-10.7c0-7.1.5-14.2,1.9-21.1s3.6-13.8,6.1-20.5c5-13.2,10.9-26.8,9-41.3-.9-6.8-3.7-13.2-8.6-18.1s-10.6-7.5-17.1-7.4-1.7.6-1.9,1.5c-1.7,7.3,3.9,12.7,7.8,18s3.8,6.1,3.7,10-1.6,9.6-3,14.1-3,9-5.4,13-2.3,3-4.3,3.5-4.5.2-6.6,0c-9.3-.8-18.3-3.5-27.3-5.5-10.1-2.3-20.5-3.8-30.7-1.5s-1.4,4.4,1.1,3.9h0Z"/>
  <path class="st0" d="M179.3,112.3c-.4-1.3,0-2.8,1.1-3.6s1.2-.6,1.9-.7.3,0,.5,0,.2.3.3.4c.2.3.4.7.6,1,.3.7.5,1.4.7,2.1s.3,1.5-.2,2.1-1.1.8-1.7.9-.7.2-1.1.2-.6-.2-.9-.5c-1.1-1.4-1.1-3.3-1-4.9s-1-.6-1,0c0,2,0,4.1,1.3,5.6s.6.6,1,.8,1,0,1.4,0c.9,0,1.8-.5,2.5-1.1s.9-1.6.8-2.5-.3-1.9-.7-2.7-.4-.8-.6-1.2-.5-.9-1-1.1c-.8-.4-1.9,0-2.6.4-1.8.9-2.7,3.1-2.1,5s1.2.4,1-.3h-.2Z"/>
  <path class="st0" d="M187.1,114.1v-4.6c0-1.5.1-1.1.4-1.5s1.1-.6,1.7-.5.9,1,1.1,1.5.4,1.3.5,2,.1,1.3,0,2-.4,1.2-1,1.6-.7.3-1.1.4-.9.2-1.1,0-.2-.8-.2-1c0-.4-.2-.9-.2-1.3-.1-.6-1.1-.4-1,.3s.2,1,.3,1.5.1.8.4,1.1c.5.7,1.6.5,2.3.3s1.7-.7,2.2-1.4.5-1.7.5-2.5c0-1.7-.5-3.7-1.5-5s-1.4-.6-2.2-.5-1.4.6-1.7,1.3-.3,1.7-.4,2.6,0,2.4,0,3.6,1,.6,1,0h0Z"/>
  <path class="st0" d="M182.3,119.6s0,.2,0,0v.9c0,.3.2.6.4.9.5.7,1.4.9,2.1.4s.9-.9,1.1-1.5.5-1.2.7-1.8l-1.7.4v-.2h-.1v.6c0,.3.3.6.6.9.4.4,1.1.7,1.7.8s1.4,0,1.9-.7.6-1.1.7-1.8-.1-1.1-.7-1.2-1.1,0-1.2.7,0,.4-.1.7-.1.3,0,0c0,0,0,.2-.1.2.1-.2,0,0,0,0h0q.1,0,0,0h0q-.1,0,0,0s-.3,0-.1,0c-.2,0-.3-.2-.5-.2h-.1c-.2-.2,0,0,0,0,0,0,0-.3,0,0v-.4c0-.3-.2-.6-.4-.8-.5-.6-1.5-.3-1.7.4s-.2.8-.4,1.2c0-.2,0,0,0,0,0,0,0,.2-.1.3s0,.2-.1.3-.2.3-.1.2c.1,0-.2.2,0,0h.2c.1,0,.2,0,.3,0-.2,0,0,0,0,0,0,0,0,0,0,0,0-.2,0,0,0,0,0-.3,0-.6-.1-.9,0-.5-.7-.9-1.2-.7s-.8.7-.7,1.2h-.3Z"/>
  <path class="st0" d="M186.5,108.2v1.6c0,.5.2,1.1.6,1.5s1,.7,1.5.6.5,0,.8,0,.3,0,.1,0h.2-.1l-.4-.4h0v.2c0,.2,0,.3.1.5v1.1h0c.1-.2,0,0,0,0-.3.2-.6.3-.9.4s-.3,0-.4.2c-.1,0-.2,0,0,0-.3,0-.1,0,.4.2.1.2.2.3,0,0v-.2c0-.2,0-.3-.1-.5,0-.3-.2-.7-.2-1v-.7q0-.2,0,0l-.3.4c-.4.3-.8.2-1,0v.2c0,0,.1.3.2.4.2.4.4.7.8.9.7.3,1.5-.2,2.1-.4.9-.3,1-1.6,0-1.9s-1.1-.2-1.7,0-.8.8-.7,1.2.7.8,1.2.7.4,0,.7,0v-1.9c-.2,0-.5.2-.7.2s-.2,0-.3,0h-.1c-.1,0-.2,0,0,0l.7.3c.1,0,0,0,0,0,0,0,0,0-.1-.2,0,0-.1-.3-.2-.4-.2-.3-.4-.6-.8-.8s-.8,0-1.2,0-.6.8-.6,1.3.2,1.5.4,2.2.4,1.5,1.3,1.7,1.6-.4,2.3-.8.6-.3.9-.5.5-.7.6-1.1c0-.7,0-1.5-.2-2.2s-.2-.7-.4-1-.8-.5-1.3-.5-.7,0-1.1.2c.2,0,0,0,0,0,.2,0-.2,0,0,0s.2.2,0,0,0,0,0,0v-.2c0,.2,0,0,0,0,0,0,0-.2,0,0v-1.5c0-.4-.4-1-1-1s-1.1.4-1,1h0v.3Z"/>
  <path class="st0" d="M179.1,109c0,1.1.7,2.2,1.9,2.5s1.2,0,1.8-.2.2,0,.3,0c-.2,0,.2,0,0,0s.1,0,0,0,0,0,0,0c-.3-.2-.2,0-.3-.2h0c0,0,0,0,0,0v1.7c0-.3,0,0,0,0,0,0,0-.2,0,0,0,0,.1,0,0,0h-.1c-.1.2,0,0,0,0,.1,0,0,0,0,0l-.6.3c-.2.1,0,0-.1,0s.1,0,0,0-.2,0-.3,0c-.2,0-.4,0-.7.2,0,0,.2,0,0,0h0s-.1,0,0,0h0c.1,0,.2,0,.3.2h0c-.1-.2-.2-.5-.3-.7s0,0,0-.2h0c0,0,0-.2-.1-.4-.1-.3-.2-.5-.3-.8s0-.3-.1-.4,0,0,0-.2h0c0,0,0,.4-.3.5h-.5c-.2,0-.4,0-.6-.2,0,0,0-.2,0,0v.2c0,.2.1.3.2.5.2.3.4.5.6.7.5.4,1.1.8,1.7,1.3s.8.5,1.2.3.7-.4.9-.8c.3-.6.5-1.3.6-2s-.3-1.2-1-1.3-.8.2-1.1.4-.2,0-.2.2h.6c-.5-.2-1.1-.2-1.4.4s-.2,1.1.4,1.4,1,.2,1.4,0,.3-.2.4-.3.1,0,.1,0c0,0-.2,0-.3,0l-1-1.3c0,.4-.1.8-.3,1.1s0,.2,0,.3-.1.3,0,0c-.3.5.3-.7.9,0,0,0-.2-.2-.3-.2-.3-.2-.7-.5-1-.7s-.2,0-.2-.2c-.3-.2.1,0,0,0s-.1,0-.2-.2h0c0-.4-.3-.8-.7-1.1-.7-.4-1.6,0-1.8.8s0,1,.2,1.5.3.8.5,1.2c.3.8.7,2,1.7,2.2s.9,0,1.3,0,.8-.3,1.2-.5c.8-.4,1.6-1,1.8-1.9s0-.9,0-1.4,0-.9-.2-1.4c-.2-.6-.8-1.1-1.5-1.1s-.5,0-.7,0-.3,0-.4.2h-.2q.1,0,0,0s-.3,0,0,0c0,0-.4,0-.2,0h-.2c.3,0-.2-.2,0,0,0,0-.1,0-.2-.2.2.2,0,0,0,0,.1.2,0,0,0,0q0,0,0,0v-.2c0-.5-.5-1-1-1s-1,.4-1,1h-.6Z"/>
  <path class="st1" d="M87.8,70.3c2.6,3.8,5.8,7.2,9.5,10s1.1,0,1.4-.4,0-1-.4-1.4c-3.4-2.6-6.4-5.8-8.8-9.3s-.9-.6-1.4-.4-.7.9-.4,1.4h.1Z"/>
  <path class="st1" d="M98.6,66.6c-2.4,4.4-5.3,8.6-8.5,12.4s.6,2.4,1.4,1.4c3.4-4,6.4-8.3,8.8-12.8s-1.1-2.1-1.7-1h0Z"/>
  <path class="st1" d="M118.6,57.2c0-.2.2-.6.4-.9s.4-.7.6-1,.4-.5.6-.8.5-.6.8-.9.5-.5.8-.7.2-.2,0,0c0,0,.2,0,.2-.2.2,0,.3-.2.5-.3.3-.2.6-.4,1-.5s.4-.2.5-.3,0,0,0,0,.2,0,.3,0c.5-.2.9-.7.7-1.2s-.7-.9-1.2-.7c-3.4,1.3-6.1,3.9-7.4,7.3s.2,1.1.7,1.2,1-.2,1.2-.7h0v-.2Z"/>
  <path class="st1" d="M67.2,64.7l7.2-3c.7-.3,1-1,.4-1.7-1.2-1.4-2.8-2.5-4.5-3s-1.1.2-1.2.7.2,1.1.7,1.2c1.4.4,2.7,1.2,3.6,2.5l.4-1.7c-2.4,1-4.8,2-7.2,3s-.9.7-.7,1.2c.2.5.7.9,1.2.7h0Z"/>
  <path class="st3" d="M13.4,29.7c2.9-1.4,5.1-4,8.1-5.4s2.9-1.1,4.3-.5,2.1,1.6,1.8,2.9,1.8,2.6,2.7,1.2c1.8-2.9,4.4-5.3,7.4-6.8s3.4-1.6,5.3-1.5,3.7,1,3.5,2.8,1.4,2.8,2.5,1.5,3.2-2.9,5.2-3.8,4.4-1.8,6.7-1.9,3.8.4,4.5,2.1.5,2.7-.8,3.3-.4,3.1,1.2,2.7,1.7.6,1.9,1.4-.3,2-.9,2.7c-1.6,1.7-4.3,1.9-6.5,2.1s-2,1.2-1.3,2.3c3.3,5,.9,11.5-3.8,14.6s-5.3,2.6-8.2,2.8-5.2-.2-4.8-2.2h-2.9c.6,2.7,0,5.5-1.6,7.8s-4.7,3.7-7.8,4-3.3,0-5,0-1.6,0-2.3-.2-.9-1.1-1.1-1.8c-1-3.7-1.3-7.4-1-11.2l-2.9.4c.3,1.9-2.4,2.9-3.8,3s-3.6-.4-4.9-1.7c-2.3-2.3-1.3-6.6,2.1-7.1s1.2-2.4,0-2.9c-3.7-1.5-6.9-5.2-5.6-9.4s1.8-3.1,3.6-3.3,3.3.4,4.1,1.8,3.6.2,2.6-1.5-3.9-3.5-6.5-3.3-5.2,2-6.4,4.6c-2.6,6.1,1.7,11.9,7.3,14.1v-2.9c-2.6.4-4.6,2.6-5.3,5.1s.2,5.6,2.4,7.5,5.3,2.5,8.1,1.9,5.7-3.3,5.2-6.6-2.8-1.2-2.9.4c-.4,4.3-.2,9.5,1.6,13.5s2.5,2.5,4.5,2.6,4.5.3,6.7,0c4-.4,7.5-2,9.8-5.3s2.8-6.7,2-10.2-2.6-1.5-2.9,0c-.7,3.4,2.4,5.5,5.4,5.9s7.8-.7,11-2.5,6-4.8,7.1-8.5.8-7.6-1.3-10.8l-1.3,2.3c3.9-.3,8.4-1.1,10.1-5.1s-1.4-7.8-5.3-6.9l1.2,2.7c2.1-1,2.9-3.4,2.5-5.6s-2.4-4.5-4.9-5.1-6.3.1-9.2,1.2-5.7,2.6-7.7,5.1l2.5,1.5c.3-2.4-.7-4.5-2.8-5.7s-5.4-1-7.9,0c-4.6,1.7-8.4,4.9-11,9l2.7,1.2c1-4.2-3.1-7.3-6.9-6.9s-7.6,4.6-11.6,6.5-.2,3.4,1.5,2.6h0Z"/>
  <path class="st2" d="M232.8,117.8c0-2.6,0-5.3,0-7.9s0-2.1.2-3,.2-.8.3-1c0-.1.1-.2.2-.3,0,0,0,0,0,0,0,0,0,0,0,0-.1,0,0,0,0,0,1.5.3,2.2,1.8,2.4,3.2.4,2.3-.3,4.8,0,7.1s.5,1.4,1.3,1.5,1.5-.3,1.6-1.1c.3-1.8.6-3.6,1-5.3s0-.3,0-.4c0,0-.1.1,0,0,.3-.2.8-.2,1.2-.3.8-.2,1.8-.3,2.6-.6,0,0,.2,0,.2,0-.5-.6-.8-.8-.7-.4,0,0,0,.1,0,0,0,.2,0,.6,0,.8-.1.9-.3,1.7-.4,2.6-.3,1.8-.7,3.6-1.1,5.4s2.5,2.7,2.9.8,1-4.6,1.3-6.9.5-2.2.3-3.3-1.1-2-2.3-2-2.2.4-3.2.7-2.2.4-3,1.2-.9,2.2-1.1,3.4-.4,2.4-.7,3.6l2.9.4c-.3-2.3.3-4.6,0-6.9s-.9-3.8-2.3-5.1-4-1.9-5.5-.2-1.3,3.8-1.4,5.8c0,2.8,0,5.6,0,8.3s3.1,1.9,3,0h0Z"/>
  <path class="st2" d="M249.5,114.3c2.5.3,5.7.5,7.2-1.9s.8-2.9-.3-3.9-3-1.1-4.4-1.2-3,0-4.1.9-1.1,2.8-1.2,4.2,0,3,0,4.5,0,3.1,1.5,3.9,3.2.2,4.6-.2,3.3-1,4.8-1.7.9-1.4.5-2.1-1.3-.9-2.1-.5c-1.9.8-3.9,1.5-5.9,1.8.3,0-.3,0-.4,0-.1,0-.2,0,0,0h0c-.1,0,0,0,0,0,0,0-.2-.1,0,0s.1.1.1.1c0,0,0-.3,0-.3,0-1.1,0-2.2,0-3.4s0-2.3.1-3.4,0-.2,0-.4,0-.3,0,0c0-.1,0-.2,0-.3,0,.2,0,0,0,0s0,0,0,0c-.1,0,.2,0,0,0s.6,0,.3,0c1,0,2,0,3,.1s.5.1.8.2.2,0,.3,0,0,0,0,0h0s0,0,0,0c0,0,0-.1,0-.2.2.3,0,0,0,0,0,.2,0,.2,0,0,0-.1,0,0,0,0,0,0-.1.3,0,0,0,0-.2.3-.1.2s-.1,0-.1.1c0,0,0,0,0,0h-.1c-.4.3-.5.3-1.1.5s-.1,0,0,0c-.2,0-.3,0-.5,0-.2,0-.5,0-.7,0s-.5,0-.7,0-.2,0-.3,0-.5,0-.2,0c-.8-.1-1.6.2-1.8,1s.2,1.7,1,1.8h0Z"/>
  <path class="st2" d="M263.4,118.1c.6-1.9,0-3.7,0-5.6s0-.4,0-.5c0,.3,0-.1,0-.2,0-.2,0-.3.1-.4,0-.3,0,0,0,0,0,0,0-.2.1-.3s.3-.3,0-.2c0,0,.4-.3.2-.2,0,0,.1,0,.2-.1,0,0-.2,0,0,0s.2,0,.3,0c.1,0,0,0,0,0h.1s.3,0,0,0c0,0,.2,0,.3,0s.1,0,.2,0c.2,0-.2,0,0,0,.4.2.5.3.8.6.6.6.9,1,1.3,1.8s.3.6.4,1,.1.4.2.6,0,.2,0,.3v.2c0,0,0,0,0,0,0,.2,0,.4,0,.6s0,.2,0,.3,0,.3,0,0c0,.2,0,.4-.1.6s-.1.4,0,.2,0,.2,0,.2c0,0-.3.4-.1.2-.1.2-.3.3-.4.4s.2-.1,0,0-.2.1-.3.2-.5.2-.2.1c-.2,0-.4,0-.5.2s.2,0,0,0-.2,0-.3,0-.3,0,0,0c0,0-.2,0-.2,0s-.2,0-.2,0c.2,0,0,0,0,0l.7.9c-.2-.7-.3-1.4-.5-2.1s-1.1-1.3-1.8-1-1.2,1.1-1,1.8.3,1.3.4,1.9.9,1.3,1.8,1.5,2.2,0,3.2-.4c2.2-1.1,3.2-3.6,2.9-5.9s-1.6-4.8-3.6-6.2-4.9-1-6,1.4-.7,2.3-.6,3.5.2,1.4.2,2.1,0,1.3-.1,1.9.3,1.7,1,1.8,1.6-.2,1.8-1h0Z"/>
  <path class="st2" d="M273.7,111.9v7.6c0,1.3,0,2.5,0,3.8s.1,2.7,1.5,3.2,2.1-.1,3-.7,1.7-1.3,2.5-2.1,1.5-1.6,2.1-2.5,1.2-2.3.2-3.3-4-1.1-5.2.1c-1.8,1.9.4,4.2,2.1,5.2,3.6,2.2,8.4.9,10.5-2.8s1-2.5.6-3.8-1.6-2.1-2.5-2.9c-2-1.7-4.1-3.3-6.3-4.7s-3.2,1.6-1.5,2.6,4,2.7,5.8,4.3,1.9,1.3,1.7,2.2-.8,1.7-1.5,2.2c-1.4,1.1-3.3,1.3-4.9.5s-.8-.4-1.1-.8-.3-.3-.4-.4c-.1-.2-.1-.2,0,0,0,0,0,.2,0,.3,0,0,0,.2-.2.2.2,0,.2,0,0,0,.2,0,.3,0,.4,0,.2,0,.4,0,.6,0-.1,0,0,0,0,0,0,0-.2-.2-.3-.2l-.2-.8c0-.3-.1,0-.2.2-.1.2-.2.3-.3.5-.2.3-.4.5-.6.7-.5.6-1,1.1-1.5,1.6s-1.1,1-1.7,1.3-.5,0,0,.5.4.2.4-.3,0-.5,0-.7v-10.9c0-1.9-3-1.9-3,0h0Z"/>
  <path class="st2" d="M221.5,106.9c-1.3-2.1,3.6-4,4.9-4.5,3.1-1.3,6.3-2.5,9.5-3.6,6.5-2.2,13.2-3.2,20.1-2.8s13.9,2.1,20.6,4,6.3,1.9,9.5,2.9,5.2,2.3,6.4,5.2,1.4,5,1.8,7.5.5,5,0,7.4-1.4,4.2-3.4,5.2-6.4.8-9.4.6-6.9-.4-10.3-.1-7,.9-10.4,1.6c-6.3,1.2-12.4,1.4-18.6-.6s-6.2-2.6-9-4.5-5.1-4.3-7.9-6.1c-6.2-3.8-13.5-2.9-20.4-1.9l1.5,2.5c3.2-2.6,7.2-4.1,11.4-4.1s1.5-.7,1.5-1.5c0-1.6,0-3.1,0-4.7s-3-1.9-3,0,0,3.1,0,4.7l1.5-1.5c-5,0-9.7,1.8-13.5,5s.2,2.7,1.5,2.5c3.4-.5,6.9-1,10.4-.7s6.3,1.3,9,3.3,5.1,4.3,7.9,6.1,5.6,3.1,8.7,4,6.3,1.5,9.5,1.6,7.2-.5,10.8-1.2,7.3-1.4,11.1-1.5,7.7.2,11.6.4,6.3,0,8.9-2.1,3.1-3.8,3.6-6.2.4-5.5,0-8.3-.8-5.6-1.9-8.2-3.2-5-6.1-6.3-6.7-2.3-10.1-3.3c-7.2-2.2-14.5-4-22-4.6s-16.3.7-24.1,3.5-3.8,1.4-5.7,2.2-3.5,1.3-5.1,2.2c-2.5,1.5-5.2,4.4-3.3,7.4s3.6.1,2.6-1.5h0Z"/>
  <path class="st3" d="M54.9,77.7c1.2-.2,2.2-.3,3.3-.4s1.1,0,1.7-.1.5,0,.8,0h0c-.3,0-.5-.1-.6-.4h0s0,0,0-.2c0,1.1,0,2.3,0,3.4s0,1.1,0,1.7,0,.5,0,.8,0,.2,0,.3c0-.2,0,.2,0,.2,0-.2,0,0,0,.1,0,0-.2.3,0,0,0,0-.4.3-.2.2,0,0-.2.1-.3.2s-.3.1,0,0c-.2,0-.4.1-.6.2-.4,0,.2,0,0,0s-.2,0-.3,0c-.2,0-.3,0-.5,0-.4,0,.2,0,0,0s-.2,0-.3,0c-.2,0-.4-.1-.7-.2s-.2,0-.3,0c.3.1,0,0,0,0-.2,0-.4-.2-.5-.3s-.2,0-.2-.2c0,0-.3-.3-.2-.1s-.2-.2-.2-.1c-.1,0-.2-.2-.3-.3s-.2-.3-.4-.4c-.3-.3,0,.1,0,0s-.1-.2-.2-.3c0-.2-.2-.3-.3-.5,0,0-.2-.4,0-.2s0-.2,0-.3c0-.2-.1-.5-.2-.7,0,0,0,.3,0,0s0-.3,0-.4c0-.3,0,0,0,0,0-.1,0-.3,0-.4,0-.4,0,.2,0,0,0,0,0-.1,0-.2,0,.1-.1.1,0,0,0-.1-.2,0,0,0s-.1,0,.2,0,.2,0,.3,0c-.3,0,.2,0,.2,0,.6,0,1.3,0,1.9-.2s1.3-1.1,1-1.8-1-1.3-1.8-1-.5.1-.2,0c-.1,0-.3,0-.5,0-.3,0-.6,0-.9,0-.8,0-1.6.3-2.3.9-1,.8-1.3,2.2-1.1,3.4.3,2.5,2,4.7,4.2,5.8s5.2,1.3,7-.7,1.1-2.8,1.1-4.3,0-2.9,0-4.3-.3-1.8-1.2-2.3-1.7-.3-2.5-.2c-1.8.1-3.5.3-5.2.6s-1.3,1.1-1,1.8,1,1.2,1.8,1h0Z"/>
  <path class="st3" d="M70.9,79.2s0,0-.1,0c.2,0,.3.2.1,0,.3.3.1.2.1.1s0-.1,0-.1c0,0,.1.4,0,.1s0-.1,0-.2,0-.1,0-.2c0,0,0,.4,0,.1,0-.5,0-1,0-1.5s0,.3,0,0,0-.1,0-.2c0-.1,0-.3.1-.4,0-.2-.1.2,0,0s0-.1,0-.2,0,0,0-.1c-.1.2-.2.2,0,.1,0,0,0,0,0-.1,0,0,.1,0,.1-.1,0,0-.3.2,0,0s.1,0,.2,0c.1,0,.1,0-.1,0,0,0,0,0,.1,0,.2,0-.3,0-.1,0s.1,0,.2,0c.2,0-.4,0-.1,0s0,0-.1,0,.1,0,.1,0c-.2,0-.2-.2-.1,0s0,0,.1.1c.1.1,0,0,0,0,0,0,0,.1.1.1,0,.1.1.2.2.4.1.3,0-.2,0,0s0,.3.1.4,0,.3.1.4,0,.2,0,.2v-.2c0,0,0,.1,0,.2,0,.1,0,.3,0,.4s0,.3,0,0,0,0,0,0,0,.2,0,.3,0,.1,0,.2c0-.2.1-.3,0-.2,0,0,0,0,0,.1,0,0-.1.2-.2.3,0,0,.2-.3,0,0s0,0,0,0-.3.3-.1.1,0,0,0,0-.1,0-.2.1c-.2.1,0,0,.1,0,0,0-.1,0-.2,0s-.1,0-.2,0c-.2,0,.4,0,.1,0s-.1,0-.2,0c.2,0,.3,0,.2,0,0,0,0,0-.1,0,0,0-.1,0-.2,0-.2,0,0,0,.1,0,0,0-.1,0-.1,0,0,0,0,0-.1,0,0,0,0,0,.1.1,0,0,0,0-.1-.1,0,0-.2-.2,0,0s0-.2,0-.2c0,0,.1.3,0,.1s0-.4,0,0c0-.8-.6-1.5-1.5-1.5s-1.6.7-1.5,1.5.6,1.9,1.4,2.5,1.7.7,2.6.5c1.8-.3,3-2.1,3.2-3.8s0-1.8-.4-2.6-.8-1.7-1.7-2.2-2-.5-2.9,0-1.5,1.3-1.7,2.3-.3,1.8-.2,2.6.4,2.1,1.4,2.6,1.7.2,2.1-.5.2-1.7-.5-2.1h0Z"/>
  <path class="st3" d="M44.5,62c1.3-.3,2.6-.5,3.9-.6s1.3,0,1.9,0,.4,0,.6,0,.3,0,.1,0c.6,0-.7.3-.4-.5,0,0,0,.4,0,.5,0,1.4.2,2.9.3,4.3s0,1.5.1,2.2,0,.5,0,.8,0,.4,0,.6c0-.1-.1,0-.1,0,.1,0-.2.1-.2.1,0,0-.6.3-.4.2-.2,0-.5.2-.7.2s-.2,0-.3,0c.3,0-.2,0-.3,0-.6,0-.9,0-1.2,0-.5-.1-1-.3-1.3-.4-1.7-.9-2.7-2.6-2.9-4.5s0-.6,0-.9,0-.2,0-.3c0-.2,0-.3,0-.4,0-.5.3-1.3.4-1.7s.2-.5.4-.7c-.1.1,0,0,0,0,.1-.1.2-.1,0,0,.2,0,.2-.1,0,0h0c.2,0,.2,0,0,0,0,0,.1,0,.2,0,.1,0,0,0,0,0,0,.2.2,0,0,0-.1-.1-.1-.1,0,0-.1-.1-.1-.1,0,0,.3.7,1.4.9,2.1.5s.9-1.3.5-2.1c-.7-1.6-2.9-1.9-4.3-1s-2,2.5-2.2,4c-.5,3,.2,6.5,2.7,8.6s5.7,2.6,8.4,1.2,1.5-.9,1.9-1.7.4-1.8.3-2.8c-.1-1.8-.2-3.7-.3-5.5s0-2.4-.8-3.3-2-.7-3-.7c-2.1,0-4.2.2-6.2.7s-1.3,1.1-1,1.8,1.1,1.2,1.8,1h0Z"/>
</svg>