<?xml version="1.0" encoding="UTF-8"?>
<svg id="Layer_2" xmlns="http://www.w3.org/2000/svg" version="1.1" viewBox="0 0 272.2 234.2">
  <!-- Generator: Adobe Illustrator 29.8.2, SVG Export Plug-In . SVG Version: 2.1.1 Build 3)  -->
  <defs>
    <style>
      .st0 {
        fill: #231f20;
      }

      .st1 {
        fill: #f6ff3b;
      }
    </style>
  </defs>
  <path class="st1" d="M113.2,109.8c-1.5-14.9-2.6-30.2,1.7-44.5,4.3-14.3,15.1-27.6,29.7-30.6,5.3-1.1,11.4-.6,15.2,3.4,1.9,2,3,4.7,3.9,7.4,4.2,12.2,6.6,24.9,7,37.8.3,10.5.9,23.7,10.6,27.8,11.9-23.6,25.3-46.5,40.1-68.5,1.9-2.8,5.5-5.8,8-3.6.7.6,1,1.5,1.3,2.4,5.3,16.4-8.6,32-16.9,47.1-8.3,15.1-11.9,33.4-24.8,44.8-4.9,4.3-10.8,7.4-15.8,11.5s-9.3,10.1-9,16.6c.3,5.8,4,10.9,5.1,16.6s-3.1,13.3-8.6,11.6c-2.6-.8-4.5-3.5-7.2-3.9-6.7-1.1-9.9,11.4-16.5,10-2.2-.5-3.8-2.5-6.1-3-3.3-.7-6.1,2.2-8.7,4.4s-7,3.7-8.9.9c-.9-1.2-.8-2.9-1.5-4.2-2.3-4.6-9.3-2.1-13.4,1,.7-3.8-1.7-8-5.4-9.3s-8.2.2-10.2,3.5c-3.6-3.9-3.6-10-1.7-15s5.2-9.2,7.9-13.7c4.6-7.6,7.5-16.3,8.4-25.2.4-3.9.3-8.1-2-11.2-1.8-2.4-4.7-3.8-7.4-5.1-22.2-11.3-39.8-31.3-48.2-54.8-1-2.8-1.9-5.9-1.3-8.8s3.4-5.6,6.3-5.2c3.4.5,5,4.4,6.2,7.6,9,24.2,30.4,43.4,55.4,49.9l6.5,2.5Z"/>
  <path class="st0" d="M115.7,109.8c-1.4-13.6-2.5-27.7.9-41.1s8.3-20.4,17.2-26.5,9.3-5.1,14.5-5.4,5.1.1,7.3,1.3,3.9,3.6,4.9,6.1c2.5,6.4,4.2,13.2,5.5,19.9s1.9,13.4,2.1,20.2c.3,10.1,1,24.2,11.8,29s2.8.4,3.4-.9c6.2-12.4,12.9-24.6,19.9-36.5s7.1-11.9,10.9-17.7,3.7-5.8,5.6-8.7,3.1-5.5,5.4-7.5,1.5-1.2,2.1-1.1.9,1.5,1.1,2.2c.7,2.5.9,5.1.7,7.8-.4,5.5-2.7,10.8-5.2,15.6s-6.2,10.5-9.4,15.7-5.6,10-7.9,15.3c-4.3,10-7.9,20.8-14.9,29.3s-8.8,8.2-13.9,11.6-10.3,7.3-13.5,12.8-2.5,5.5-2.8,8.5.5,6.1,1.5,9c1.8,4.9,5,9.9,3,15.1s-1.9,3.2-3.1,3.6-1.3.3-2.2,0-2.2-1.4-3.2-2.2c-2-1.4-4.5-2.2-6.9-1.6s-3.5,1.7-4.9,3-2.5,2.8-3.8,4.2-1.2,1.3-2,1.9c.3-.3-.5.3-.6.4s-.3.2-.5.3c-.2,0-.1,0,.1,0-.1,0-.3,0-.4.1,0,0-.8.1-.2,0-.1,0-.3,0-.4,0s-.8,0-.2,0c-.3,0-.6-.1-.9-.2-1.1-.5-2.1-1.3-3.1-1.9-2.8-1.5-5.9-1.3-8.6.4s-4,3.7-6.4,4.9-1.6.7-2.5.6-.4,0-.6-.1c-.3-.2-.5-.7-.7-1.2-.7-2.6-1.6-5-4.2-6.1s-4.8-.8-7.1-.1-4.5,1.8-6.5,3.3l3.7,2.8c.8-5.2-1.9-10.4-7-12.4s-10.4.3-13.2,4.6l3.9-.5c-2.4-2.8-2.6-6.8-1.8-10.3s3.8-8.3,6.2-12.1c5.3-8.1,9-16.9,10.5-26.5s1.2-9.3-.7-13.5-5.9-6.4-9.9-8.5c-7.3-3.8-14.1-8.4-20.2-13.9-12.1-10.9-22-25.1-27-40.7s-1.3-4.5-.6-6.6,1.5-2.5,2.7-2.7c3-.5,4.4,4.7,5.2,6.8,3,7.7,7.1,14.8,12.2,21.3,10,12.7,23.6,22.4,38.9,27.6s3.8,1.2,5.7,1.7c3.1.8,4.4-4,1.3-4.8-15.8-4.1-30-13.3-40.5-25.7s-9.5-13.2-12.5-20.7-2.6-8-6.2-10.2-9-.2-11,3.8-.6,9.8,1.1,14.4,3.4,8.1,5.5,12c4.1,7.6,9.2,14.6,15,21s12.5,11.9,19.7,16.6,7.4,4.2,11.2,6.3,3.5,2.2,4.5,4.1,1.1,3.8,1,5.7c-.1,9.5-3.6,19.2-8.5,27.2s-11.3,16-8.7,25.7,1.6,4,3.1,5.7,3.1.8,3.9-.5c1.5-2.3,4.6-3.4,7.2-2.4s4.2,3.8,3.8,6.3,0,2,.9,2.6,2,.8,2.8.2c1.9-1.4,4-2.5,6.3-3s1.7-.2,2.3,0,1,.5,1.3,1.3c.5,1.2.6,2.6,1.3,3.8s2,2.4,3.5,2.8c2.7.8,5.7-.2,7.9-1.7s3.8-3.8,6.3-4.7,1.9-.2,2.8.4c1.3.8,2.5,1.7,4,2.2,4.3,1.5,7.9-1.5,10.6-4.5s2.5-3,4-4.2.1-.1,0,0c.2-.1.4-.3.6-.4s.4-.2.6-.3c.6-.3-.3,0,.1,0s.3-.1.5-.2c.6-.2-.5,0,.2,0s.4,0,.7,0c-.6,0,.4,0,.5.1,1.1.4,2.1,1.3,3.1,2s2.5,1.6,4,2c2.6.5,5-.3,7-2,4.2-3.6,5.1-9.8,3.6-14.9s-5.6-11-4.3-17,5.8-10.1,10.3-13.4,11.1-7.1,15.7-11.8c8.2-8.5,12.5-19.7,16.9-30.3s4.7-10.6,7.6-15.6,6.6-10.5,9.7-16,5.6-10.7,6.6-16.6.7-5.9.3-8.9-.9-6.5-3.3-8.5-6.1-1.1-8.5.8-4,4.8-5.7,7.4c-4,6-7.8,12-11.6,18.1-7.5,12.2-14.5,24.6-21.2,37.2-1.6,3.1-3.2,6.2-4.8,9.2l3.4-.9c-8.9-3.9-9-16.1-9.3-24.7s-.9-14.2-2.3-21.3-3-14-5.7-20.6c-1.3-3.2-3-6-5.8-7.9s-5.5-2.5-8.4-2.7c-5.7-.5-11.7,1.4-16.6,4.1-10.1,5.6-17.2,15.6-21,26.3-5.4,15.2-4.2,31.8-2.6,47.6s1.1,2.5,2.5,2.5,2.6-1.1,2.5-2.5h0Z"/>
  <path class="st0" d="M125.3,90.6c.2-.1.4-.2.6-.3s.6-.3.2-.1c.3-.1.6-.2,1-.3.5-.1,1.2-.2,2.1,0-.3,0,.6.1.7.2.4,0,.8.2,1.1.4-.3-.1,0,0,.1,0,.2,0,.3.2.5.2.3.2.8.5.9.6.3.2.6.5.9.8.4.4.2.2.5.6.5.8.6,1.1.9,2,.3,1.4.2,2.9-.3,4.4s-1.4,2.7-2.6,3.8-1,.8-1.7.9c0,0-.5,0-.3,0,0,0-.4-.2-.2,0-.3-.2-.3-.2-.2,0-.2-.2-.4-.4-.6-.6-.4-.4-.8-1.3-1.2-2-.6-1.1-1.1-2.2-1.6-3.4-.9-2.1-1.7-4.2-2.4-6.4s-.4-1.2-.5-1.8,0-.3-.1-.5c-.1-.5,0,.2,0-.3s0-.3,0-.5c0-.6,0,.2,0-.3s0,0,0,0-.6.3-.6.3h-.1c.2,0,.5.1.7.2.4.1.7.3,1.1.4.6.3,1.2.5,1.9.8,1.4.6,2.7,1.1,4.1,1.7s2.7-.5,3.1-1.7-.5-2.6-1.7-3.1-3-1.2-4.5-1.8-3.1-1.5-4.7-1.4c-3.1.1-4.5,3.2-4.1,5.9s1.6,5.7,2.6,8.4,2.2,5.5,3.8,7.9,4.5,4.1,7.6,2.9,4.6-3,6-5.3c2.6-4.4,2.6-10.2-.8-14.2s-9.9-5.5-14.5-2.6-1.6,2.2-.9,3.4,2.3,1.6,3.4.9h0Z"/>
  <path class="st0" d="M153.7,101c-.6-3-1.8-7.9,1.9-9.4s1.9,0,2.4,1,.6,3.3.6,4.9c0,2.6,0,5.2,0,7.7s0,3.4-.5,5c-.7,2.7-2.7,4.3-5.3,2.6-3.8-2.6-2.8-8.2-2.1-12s-.4-2.7-1.7-3.1-2.8.4-3.1,1.7c-1,5.7-1.8,12.4,3,16.6s4.6,2.7,7.3,2.3,4.7-2.1,5.8-4.4,1.4-4.7,1.5-7.2,0-6.2,0-9.3-.1-5.4-1.5-7.7-3.8-3.6-6.4-3.3-5.7,2.6-6.9,5.5-.6,7,0,10.4,5.5,1.8,4.8-1.3h0Z"/>
  <path class="st0" d="M125.3,125.3c1.8,3.7,6.5,5.9,10.5,4.6s6.7-5.9,6-10.3-1.6-2-2.7-1.8-2.1,1.2-2.2,2.5c-.4,7.1,4.7,13.9,11.6,15.6,1.3.3,2.7-.4,3.1-1.7.7-2.9,1.4-5.8,2.2-8.6s-4-4.5-4.8-1.3-1.4,5.8-2.2,8.6l3.1-1.7c-4.8-1.2-8.2-5.9-7.9-10.8l-4.9.7c.3,1.7-1,3.8-2.8,4.3s-3.7-.6-4.5-2.4-2.3-1.5-3.4-.9-1.5,2.2-.9,3.4h0Z"/>
</svg>