<?xml version="1.0" encoding="UTF-8"?>
<svg id="Layer_2" xmlns="http://www.w3.org/2000/svg" version="1.1" viewBox="0 0 243.4 175.9">
  <!-- Generator: Adobe Illustrator 29.8.2, SVG Export Plug-In . SVG Version: 2.1.1 Build 3)  -->
  <defs>
    <style>
      .st0 {
        fill: #ff0049;
      }
    </style>
  </defs>
  <path class="st0" d="M103.4,143.3c1.7-14.4-2.7-28.6-11.4-40.1s-17.2-18.4-22.4-29.9-3.3-13.7-3.3-20.8-.3-7.6,1.4-11,4-5.3,6.5-7.4c5.3-4.3,11.7-7.6,18.5-8.7s12.4.4,17.8,3.2,9.9,7.5,12.6,13.2c2.6,5.6,3.3,12.2,2.1,18.2s-.8,3.1-1.4,4.6.5,2.7,1.7,3.1,2.6-.5,3.1-1.7c4.9-13.1,1-28.9-9.9-37.8s-12.1-7.2-19.1-7.9-14.5,1.3-20.9,4.8-6.4,4-9.3,6.5-5.3,5.3-6.7,8.8-1.4,8.1-1.4,12.2.1,8.2.8,12.3c2.1,13.9,11.8,24.2,20.6,34.5,4.3,5,8.4,10.3,11.3,16.3s4.9,14.4,4.8,21.9-.2,3.8-.4,5.6,1.3,2.5,2.5,2.5,2.3-1.2,2.5-2.5h0Z"/>
  <path class="st0" d="M128.6,64.6c5.9-11,17.7-18.6,30.2-19s7,.1,10,1.8,4.1,3.3,5.4,5.7c2.8,5.1,3.4,11.3,3.5,17s-.7,14.5-4.8,20.6-8.2,8.3-13.2,11-11.3,5.3-17,7.8-11.9,5.5-17.4,9.1c-11,7.2-20.9,16.9-26.3,29s-1.3,3.2-1.9,4.8.5,2.7,1.7,3.1,2.6-.5,3.1-1.7c4.4-12.7,14-22.9,25.1-30.3,5.7-3.8,11.7-6.8,18-9.5s12.1-5,17.8-8.2c5.6-3.1,10.7-7.1,14.4-12.5s5.6-14.5,5.5-22.3-.7-13.3-3.6-19.2-3.3-5.3-5.7-7.3-6.7-3.4-10.5-3.8c-13.9-1.3-27.9,6-36,17.1s-1.9,2.8-2.6,4.3c-1.5,2.8,2.8,5.4,4.3,2.5h0Z"/>
</svg>