<?xml version="1.0" encoding="UTF-8"?>
<svg id="Layer_2" xmlns="http://www.w3.org/2000/svg" version="1.1" viewBox="0 0 310.2 176.5">
  <!-- Generator: Adobe Illustrator 29.8.2, SVG Export Plug-In . SVG Version: 2.1.1 Build 3)  -->
  <defs>
    <style>
      .st0 {
        fill: #8200ce;
      }

      .st1 {
        fill: #ffe98a;
      }
    </style>
  </defs>
  <path class="st0" d="M91.8,67.9c5.1,18.3,9,36.9,11.6,55.7s3.7,2,4.1,0c3.1-15.4-3.2-30.4-9.7-44.1s-2-1.3-2.9-.8-1.3,1.9-.8,2.9c5.9,12.5,12.1,26.6,9.3,40.8h4.1c-2.7-18.8-6.6-37.4-11.6-55.7s-4.8-1.5-4.1,1.1h0Z"/>
  <path class="st1" d="M117.3,96.5h27.8v-3.1c-10.4.2-20.8,0-31.2-.6l.4,3c5.8-1.9,11.7-3.7,17.7-4.6l-1.7-2.2c-1,2-1.9,4.1-2.3,6.2s-.8,4.3-.3,6.4,1.6,3.3,3.5,3.8,3.5-.5,4.3-2.2c1.5-3.3,1.4-8.9-2.9-9.9s-3.6.5-4.7,2-1.3,3.7-1.3,5.7c0,3.8.6,8.2,4.2,10.3,3.6,2.1,2,0,2.2-.9,1.3-6.3-.8-13-5.7-17.3s-2.3-.5-2.5.7c-1,5.3-1,10.7,0,16s2.9,1.2,3-.4.3-4.5.5-6.8.2-2.2.4-3.4,0-1,.2-1.4c0-.2,0-.5.1-.7s0-.2-.3,0l-1.1-.4c1.7,2,3.1,4.4,4,6.9s.8,2.5,1,3.8.5,2.5,0,2.7l1.9,1.1c-1.3-4.8-1.7-11.2,3.3-14.2s4.2-1.1,6.2,0,4.3,3.5,4.8,5.8l1.5-1.9c-3.1.3-6-.9-8.8-2s-5.3-2.3-7.8-3.6c-5-2.6-9.6-5.8-13.3-10v2.1c1.2-1,3.5,0,4.7.2,1.8.5,3.5,1.1,5.3,1.7,3.9,1.4,7.9,2.8,11.8,4.3,7.4,2.7,15.2,5,22.1,9l1.2-2.8c-9.9-1.6-19.6-4.5-28.7-8.5l-1.2,2.8c10.6,3.4,20.4,8.9,28.7,16.3l1.1-2.6c-7.1-.8-14.3-1.6-21.4-2.4l.4,3c7.1-1.2,14.3-1.5,21.5-1.1l-1.3-2.3c-1.4,2-3.1,3.6-5.2,4.7l1.5,2.6c1.9-1.3,3.3-3,4.7-4.7s3-3.2,5.1-3.4l-1.1-2.6c-2.6,3-5.7,5.5-9.3,7.4s-3.6,1.7-5.5,2.3-1.9.6-2.9.8-1.9.2-2.8.5h-.5c-.1.9,0,1.1.4.7.3,0,.8-.5,1.1-.6,1.1-.5,2.2-.7,3.4-.7s1.8,0,.7.7-2.2.9-3.2,1.2c-4.3,1.3-8.9,1.4-13.3.4v2.9c1.8-.4,3.6-.6,5.4-.3s3.7.5,3.6,1.5l1.1-1.5c-6.5,1.7-13.3.9-19.9.2l.4,3c2.2-.7,4.7-.3,6.5,1.2l1.1-2.6c-12.9.4-25.9-2.1-37.7-7.3v2.6c.9-.7,2,0,2.9.6,1.3.7,2.5,1.5,3.6,2.3,2.3,1.6,4.6,3.4,6.8,5.1s3.4-.3,2.4-1.8c-3.5-5.4-7-10.7-10.5-16.1l-2.6,1.5c3.7,5.1,7.6,10,11.7,14.6s2.9,0,2.5-1.5c-1.1-4.4-2.3-8.9-3.4-13.3l-2.8,1.2c3.5,5.4,7,10.8,10.5,16.2s2.7.7,2.8-.8c.3-3.9-.8-8-1.5-11.8s-1.5-8.1-2.3-12.2l-2.9.8c1.8,5.6,4.6,10.8,8.3,15.4s2.6.2,2.6-1.1c0-4.5-.2-9-.3-13.5l-3,.4c3,8.6,6.8,17,11.3,24.9,4.5,7.9,2.9.8,2.8-.8-.3-4.7-.6-9.5-.8-14.2l-3,.4c1.2,4.8,2.6,9.6,5.9,13.4s2.4.4,2.5-.7c.8-4.8.7-9.6-.2-14.4s-2.9-1.2-3,.4,0,2.9.6,4.3,3,1.4,3-.4c0-5.4-.3-10.8-.9-16.2l-3,.4c2.6,7.9,6.3,15.4,10.9,22.3s2.8.8,2.8-.8c.1-4.2.3-8.5.4-12.7l-2.8.8c.7,1.1,1,2.4.7,3.7s.4,2,1.5,1.9,2.6-.4,3.9-.8,2.3-.6,3.4-.2,1.2,1.3,1.2,2.3,0,2.4.5,3.5,2.1,1.6,2.8.4.6-1,.9-1.6c.9-1.7-1.7-3.2-2.6-1.5s-.6,1-.9,1.6l2.8.4c-.5-1.4-.2-2.9-.5-4.4s-1.1-2.5-2.3-3.1c-3.1-1.6-6,.4-9.1.5l1.5,1.9c.4-2.1,0-4.2-1-6s-2.8-.7-2.8.8c-.1,4.2-.3,8.5-.4,12.7l2.8-.8c-4.5-6.7-8-13.9-10.6-21.5s-3.2-1.4-3,.4c.6,5.4.9,10.8.9,16.2l3-.4c-.4-1.2-.5-2.3-.5-3.5l-3,.4c.8,4.2.8,8.5.2,12.8l2.5-.7c-3-3.3-4.1-7.8-5.2-12s-3.1-1.3-3,.4c.3,4.7.6,9.5.8,14.2l2.8-.8c-4.4-7.7-8.1-15.8-11-24.2s-3-1.4-3,.4c0,4.5.2,9,.3,13.5l2.6-1.1c-3.3-4.2-5.9-9-7.5-14.1s-3.3-1.1-2.9.8c.7,3.9,1.4,7.8,2.2,11.7s1.8,7.7,1.5,11.5l2.8-.8-10.5-16.2c-3.5-5.4-3.2-.5-2.8,1.2,1.1,4.4,2.3,8.9,3.4,13.3l2.5-1.5c-4-4.5-7.8-9.1-11.3-14s-3.7,0-2.6,1.5c3.5,5.4,7,10.7,10.5,16.1l2.4-1.8c-2.8-2.2-5.5-4.4-8.5-6.4s-5.8-4.1-8.5-2.1-1.2,2.1,0,2.6c12.4,5.4,25.8,8.1,39.3,7.7s2.1-1.7,1.1-2.6c-2.7-2.2-6.1-3-9.4-2s-1.2,2.8.4,3c6.9.8,13.9,1.5,20.7-.3s1.1-.8,1.1-1.5c.1-2.5-2.5-3.7-4.5-4.2s-5.6-.6-8.3,0-1.5,2.6,0,2.9c4.9,1.1,10,1.1,14.9-.4s4.7-1.3,5.7-3.4-.5-4.1-2.8-4.4-4.8.3-6.9,1.5-1.7,1.2-1.9,2.3.3,1.9,1.1,2.4c1.7,1.1,4.3.2,6.1-.2s4.3-1.3,6.4-2.2c4.7-2.1,8.9-5.2,12.2-9,.8-.9.3-2.7-1.1-2.6-2.5.2-4.5,1.4-6.2,3.1s-3.1,4-5.2,5.3-.2,3.6,1.5,2.6c2.5-1.5,4.6-3.4,6.3-5.8s-.3-2.2-1.3-2.3c-7.5-.4-15,0-22.3,1.2s-1.1,2.8.4,3c7.1.8,14.3,1.6,21.4,2.4s2-1.8,1.1-2.6c-8.7-7.7-18.9-13.5-30-17.1s-2.8,2.1-1.2,2.8c9.4,4.1,19.3,7.1,29.5,8.8s2.7-1.8,1.2-2.8c-7.5-4.4-16.1-6.9-24.2-9.8s-8.3-3.1-12.6-4.5-7.8-3-10.8-.4-.5,1.6,0,2.1c4,4.5,9,7.9,14.3,10.7s5.4,2.6,8.2,3.7,6.2,2.5,9.6,2.1,1.6-.9,1.5-1.9c-.6-3-3.5-5.9-6-7.5s-5.9-2-8.8-.6c-6.8,3.3-6.9,11.6-5.3,17.9s1.1,1.4,1.9,1.1c3-1.3,2.5-4.6,2-7.2s-2.1-6.4-4-9.1-1.8-2.9-3.5-2.4-1.9,2-2.1,3.3c-.5,3.9-.9,7.9-1.1,11.8l3-.4c-.8-4.8-.7-9.6,0-14.4l-2.5.7c4.1,3.5,6.1,9,4.9,14.3l2.2-.9c-2.3-1.3-2.6-4.4-2.7-6.8s-.2-3.2.5-4.4,2-1.6,2.8-.3.4,3.4-.2,4.7-2,0-2.2-1.1c-.4-1.7,0-3.6.4-5.2s1.1-3.5,1.9-5.1-.4-2.4-1.7-2.2c-6.1.9-11.9,2.7-17.7,4.6s-1.3,2.9.4,3c10.4.6,20.8.8,31.2.6s2-3,0-3h-27.8c-1.9,0-1.9,3.1,0,3.1h0v.4Z"/>
  <path class="st1" d="M93.2,97.5v24.1c0,1.9,3,1.9,3,0,0-7.9.3-15.9.7-23.8s-2.5-2-3-.4c-2.8,10.3-5.8,20.4-9.2,30.5l3,.4c-.3-3.7-.3-7.4,0-11.1s.3-3.5.5-5.3.3-2,.4-2.9,0-1,.3-1.4v-.3c.3-.4.2-.4-.4,0l-1.1-1.9c-2.2,11.6-4.8,23.2-7.8,34.6l3,.4c-.6-7.5-.8-15.1-.4-22.6s.6-14.2,3.9-20.3l-2.8-1.2c-2.9,11.2-7.3,21.9-13,31.9l2.8.8c0-13.2,4.2-26.2,11.9-37l-2.8-.8c-.4,3.8-1.5,7.5-2.6,11.1s-2.4,7.4-3.7,11c-2.5,7.3-5.2,14.6-8,21.9l3,.4c-.4-4.8,1.4-9.2,3.9-13.2s2.5-3.9,3.9-5.8,2.6-3.5,4.7-4.5l-2.1-.5c.5,1-.6,2.9-1,3.9-.6,1.5-1.1,3-1.7,4.5-1.1,2.9-2.3,5.8-3.7,8.7-2.4,4.9-5.8,9.7-11.1,11.5l1.2,2.8c5.7-4,11.4-8,17.2-12s.2-3.5-1.5-2.6c-5.5,2.6-10.8,5.7-15.8,9.1s-.2,3.4,1.5,2.6c7.4-3.2,14-7.7,20.2-12.7s6.2-5,9-7.7,2.2-2.6,2.6-4.3,0-3.5,1.1-4.7l-2.5-1.5c-1.8,4.5-4.2,8.8-7,12.7l2.8.8c-.2-9.8-.2-19.5,0-29.3s-2.8-1.9-3,0l-1.5,16.5h3c-.6-5.7-.6-11.4,0-17.1s-2.6-2-3-.4c-1.9,7.3-4.8,14.3-8.7,20.7l2.8.4c-.7-3.4-1.1-6.9-1.1-10.4s0-8.9.9-8.9l-1.3-.7c1.5,3.2,3,6.4,4.5,9.5s3.4.2,2.6-1.5c-1.5-3.2-3-6.4-4.5-9.5s-.8-.8-1.3-.7c-1.7,0-2.8,1.3-3.2,2.9s-.6,4.4-.7,6.6c-.2,4.6.3,9.1,1.2,13.6s2.1,1.4,2.8.4c4.1-6.7,7.1-13.9,9.1-21.4l-3-.4c-.7,5.7-.7,11.4,0,17.1s2.8,2,3,0l1.5-16.5h-3c-.3,9.8-.3,19.5,0,29.3s2,2,2.8.8c3-4.2,5.4-8.7,7.3-13.4s-1.6-2.6-2.5-1.5-1.5,2.9-1.7,4.6-.5,3-1.8,4.3c-2.8,2.7-5.8,5.1-8.8,7.5-6.1,4.9-12.7,9.4-20,12.5l1.5,2.6c5-3.4,10.3-6.5,15.8-9.1l-1.5-2.6c-5.7,4-11.4,8-17.2,12s-.6,3.3,1.2,2.8c6.3-2.1,10.3-7.5,13.1-13.3s2.8-6.5,4.1-9.9,1.4-3.6,2-5.4.7-2.9,0-4.4-1.4-.9-2.1-.5c-2.2,1-3.8,2.9-5.2,4.8s-3.1,4.3-4.5,6.5c-2.7,4.4-4.7,9.5-4.3,14.8s2.3,2,3,.4c2.9-7.4,5.6-14.8,8.2-22.3s5.4-14.7,6.3-22.4-2.1-1.8-2.8-.8c-8,11.2-12.3,24.8-12.3,38.5s2.1,2.1,2.8.8c5.8-10.2,10.3-21.2,13.3-32.6s-1.9-2.7-2.8-1.2c-3.4,6.3-3.9,13.8-4.3,20.8s-.3,15.8.4,23.6,2.5,2.1,3,.4c2.9-11.5,5.5-23,7.8-34.6s-.2-1.6-1.1-1.9c-2-.7-3.1,1.3-3.4,2.9-.4,2.3-.7,4.6-1,6.9-.5,4.7-.5,9.5-.2,14.3s2.4,2.1,3,.4c3.4-10.1,6.4-20.2,9.2-30.5l-3-.4c-.4,7.9-.6,15.9-.7,23.8h3v-24.1c0-1.9-3-1.9-3,0h0v-.5Z"/>
  <path class="st1" d="M49.4,49.3c0,8.2.2,16.6,3.9,24.1s2.7.6,2.8-.8c.3-3.9.6-7.8.9-11.7s-2.7-2.1-3-.4c-1.1,7.2.2,14.4,3.7,20.8s2.1,1,2.6,0c2.7-6,0-12.2,1.1-18.3l-3-.4c.8,9.9,6.4,18.2,12,26.1s2.8.8,2.8-.8c0-4.8-3.2-9.2-5.2-13.4s-4.2-9.2-6-13.9l-2.8,1.2c4.8,8.3,10.5,16.1,16.9,23.1s3.4-.7,2.1-2.1c-10.1-11.2-23.3-19.3-32.3-31.6l-1.7,2.2c8.8,3.1,17.1,7.7,24.4,13.6l1.5-2.5c-4-1.2-7.1-4.2-10.2-6.8s-6.5-5.7-9.1-9.1l-2.1,2.1c15.4,9.8,29.3,21.7,41.3,35.4l1.8-2.4c-.3,0-.3-.2-.3-.5l-1.5,1.5c3-.3,5.8.8,7.9,3l.3-2.4c-1.7.8-2.8-1.5-1.3-2.5l-2.1-.5c.7,1.4.8,3.1.2,4.6s-.5,1.4-1.2,1.5-1.8-.8-2.5-1.2c-2.7-1.8-4.9-4.2-6.5-7s-1.4-2.8-1.8-4.2,0-.6-.2-.8v-.3c0-.4,0-.4-.8,0l.3.7c.2.6.3,1.2.4,1.8.8,3.9,1.1,7.8,1.1,11.8s0,3.8-.3,5.7-.2,1.9-.4,2.9-.5,1.9-.6,2.9l-.2.3c.8.3,1,.2.8-.3,0-.3,0-1-.2-1.4,0-1-.3-1.9-.4-2.9-.2-2.1-.4-4.2-.5-6.3,0-3.5,0-7.2,1.1-10.5s1.1-2.4,2.1-3.2.5-.3.8-.4h.3c.6-.2.5-.4-.4-.7,0,0,.4,2.9.4,3.2.2,3.6.2,7.6-.9,11.1s-1,2.5-2.1,3.1c-1.6.9-3.5-.3-4.8-1.3s-2.5-2.3-3.5-3.6-2.2-3.2-1.4-4.8,1.9-1.3,2.3,0,.5,3.4.6,5c.2,3.7.3,7.5-.7,11.2s-.8,3.5-2.4,3.6-3.1-1.3-3.9-2.4-1.7-2.6-1.8-4,0-1.4.7-1.3.7,1.6.9,2c.5,1.8.8,3.6.8,5.4s0,1.8-.2,2.7,0,.5-.2.7c.4,0,.4,0,0-.2-.2,0-.4-.3-.6-.5-5.4-5.1-7.4-13.4-8.9-20.4s-.9-3.4,0-4.4,3.4.8,4.1,1.7c2.3,2.8,3.1,6.6,2.3,10.1l2.5-.7c-6.5-8-10.7-17.7-12.2-27.9l-2.5,1.5c3.9,3.9,5.6,9.8,7.6,14.8,2,5,4.6,11.5,6.9,17.2s3.2,1.1,2.9-.8c-1.6-10.1-3.2-20.3-3.6-30.6l-3,.4c1.5,8.3,4.4,16.3,8.4,23.8s2.8.7,2.8-.8c0-3.5.2-7,.3-10.5v-2.5c0-.5,0-1,0-1.5s0-.8,0-.9c0-.3,0-.2-.5.3l.3.2c0,.3.5.6.7.8.6.7,1.2,1.4,1.7,2.1,4.4,5.3,8.8,10.7,13.2,16s3,0,2.5-1.5c-3-8.5-6-17-9.1-25.5s-3.5-1.1-2.9.8c1.5,5.1,3.7,9.9,6.6,14.2l2.4-1.8c-2.9-3.4-5.4-7.1-7.4-11.1l-1.7,2.2c1.2.3,1.9,1,2.2,2.2l2.2-1.7c-4.7-2.5-9.4-5.1-14.2-7.6s-2.7.7-2.1,2.1c4.5,8.8,8.1,18,11,27.5l2.2-1.7c-3-1.9-5.3-4.5-7.7-7.1s-5.4-5.6-8.1-8.5c-5.4-5.7-10.9-11.4-16.3-17.1s-3.3.4-2.4,1.8c5.2,8.5,10.7,16.9,16.4,25s3.4.2,2.6-1.5c-1.4-3.3-3.4-6.2-5.8-8.8s-2.5-.2-2.6,1.1c-.2,6.8-.3,13.7-.2,20.5l2.8-.8c-.6-1.3-.6-2.7-.5-4.1s-2.8-1.9-3,0,0,3.8.9,5.6,2.8.6,2.8-.8c0-6.8,0-13.7.2-20.5l-2.6,1.1c2.3,2.4,4.1,5.1,5.4,8.2l2.6-1.5c-5.7-8.2-11.2-16.5-16.4-25l-2.4,1.8c5.5,5.8,11.1,11.6,16.6,17.4s5.5,5.8,8.2,8.6,4.9,5.1,7.8,7,2.6-.5,2.2-1.7c-3-9.7-6.7-19.2-11.3-28.2l-2.1,2.1c4.7,2.5,9.4,5.1,14.2,7.6s2.5-.4,2.2-1.7c-.5-2.1-2.2-3.8-4.3-4.3s-2.3,1-1.7,2.2c2.1,4.2,4.8,8.2,7.9,11.7s3.3-.4,2.4-1.8c-2.8-4.2-4.9-8.7-6.3-13.5l-2.9.8c3,8.5,6,17,9.1,25.5l2.5-1.5c-2.6-3.2-5.2-6.4-7.9-9.5s-2.7-3.3-4.1-5-2.4-3.2-3.8-4.6-2.8-1.6-4-.3-.8,3.2-.9,4.7c0,4.2-.2,8.5-.3,12.7l2.8-.8c-3.9-7.2-6.6-15-8.1-23.1s-3-1.3-3,.4c.4,10.5,2,21,3.7,31.4l2.9-.8c-2.4-6.1-4.8-12.1-7.3-18.1s-3.9-11.1-8-15.2-2.7,0-2.5,1.5c1.6,10.7,6.2,20.8,13,29.3,6.8,8.5,2.3.4,2.5-.7,1-4.7-.2-9.7-3.4-13.3s-3.7-3.1-6-2.6-3.4,2.6-3.5,4.8.6,4.7,1.2,6.9,1.2,4.7,2.1,7,1.9,4.6,3.1,6.7,2.7,4.3,4.6,5.6,4.3.6,4.9-1.8.5-5.6,0-8.3-1-5.2-3.2-5.9-4.2,1-4.6,3c-.9,4.4,3.5,9.8,7.8,10.5s6.7-7.4,7-11.4,0-5.4-.2-8.1-.2-4.6-1.8-6.2-4.2-1.3-5.7.3-1.8,4.3-.9,6.4,2.7,4.4,4.6,6.1,4.2,3.3,6.8,3.1c5.1-.2,6.3-6.1,6.8-10.1s.4-5.9,0-8.8,0-2.5-.7-3.4-1.9-1.1-3-.8c-4.6,1.3-5.8,6.8-6.3,10.9s-.3,5.8,0,8.7.5,5.9,1,8.7,3,3.5,4.6,1.4.8-1.9,1-2.9.5-2.9.6-4.4c.6-5.8.4-11.6-.6-17.4s-.5-5.2-2.8-5.9-3.4,1.7-3.2,3.6,1.5,4.5,2.6,6.4,2.7,3.8,4.4,5.4,3.8,3.3,6.1,3.8,4.3-1.3,5.1-3.6.5-4.8-.5-7-1.4-.9-2.1-.5c-2,1.2-2.9,3.9-1.7,6.1s4,2.7,6.1,1.7.9-1.7.3-2.4c-2.6-2.7-6.3-4.2-10-3.9s-1.5.6-1.5,1.5c0,1.3.6,2.4,1.8,3.1s3-1.1,1.8-2.4c-12.1-13.9-26.3-26-41.9-35.9s-3,.8-2.1,2.1c2.9,3.8,6.3,6.9,9.9,10s6.8,6,11.2,7.3,2.7-1.5,1.5-2.5c-7.7-6.2-16.4-11.1-25.7-14.4s-2.5,1.2-1.7,2.2c9.1,12.5,22.5,20.8,32.7,32.2l2.1-2.1c-6.3-6.9-11.8-14.4-16.4-22.5s-3.4-.5-2.8,1.2c1.7,4.5,3.6,9,5.7,13.3,2.1,4.3,2.1,4.2,3.1,6.3s2.2,4.3,2.2,6.8l2.8-.8c-5.2-7.3-10.9-15.3-11.6-24.5s-2.6-2.2-3-.4c-.5,3-.3,5.9,0,8.9s.5,6-.8,8.7h2.6c-3.1-5.6-4.3-12.1-3.4-18.5l-3-.4c-.3,3.9-.6,7.8-.9,11.7l2.8-.8c-3.5-7-3.6-14.9-3.5-22.6s-3-1.9-3,0h0l.9.8Z"/>
  <path class="st1" d="M106.2,26.3l.8,4.1,1.5-1.9c-2.8-.1-5.5-.5-8.2-1s-2.5,1.8-1.2,2.8c6.6,4.8,13.1,9.6,19.7,14.4l.8-2.8c-3,0-5.9-.2-8.9-.6s-2.8,1.4-1.5,2.5c5.3,4.6,10.4,9.4,15.2,14.5l1.1-2.6c-6-.7-11.5-3.2-16.9-5.7s-3.2,1.5-1.5,2.6c4.1,2.7,7.9,5.7,11.5,9l1.5-2.5c-3.2-1.3-6.3-3.1-9-5.1s-2.8,1.2-1.8,2.4c2.7,3.4,5,7,7,10.8l2.4-1.8c-4.6-5-8.5-10.5-11.5-16.6s-3.3-.5-2.8,1.2c2.3,7.1,4.5,14.2,6.8,21.2l2.8-1.2c-3.1-6.1-5.4-12.6-6.9-19.4s-3.2-1.1-2.9.8c.9,6.6,1.8,13.3.7,19.9l2.8-.4c-3.9-6.6-4.9-14.4-5.8-22h-3c1.3,10.8,1.8,21.6,1.6,32.5l2.8-.8c-1.4-3.1-1.9-6.7-1.3-10.1h-2.9c1,4.2,2,8.5,4.4,12.2s2.7.7,2.8-.8c1.6-14.3,3.2-28.6,7.4-42.4h-2.9c2,7.4,2.3,15.3,3,22.9.8,7.9,1.5,15.8,2.3,23.7s3.1,2,3,0c-.2-5.1-.3-10.1-.4-15.2s0-4.9,0-7.3,0-4.6,1-6.6l-2.8-.4c1,3,1.1,6.2,1.3,9.3s.4,6.7.5,10.1c.2,6.7.2,13.5,0,20.2l3-.4c-1.2-4.2-1.9-8.5-2-12.9s0-4.5.3-6.8.4-3.8,1.8-2.6,1.5,3.5,1.6,5.1,0,4.1-.7,6c-1,3.1-3.4,6.9-7,7.2s-6.1-2.8-7.7-5.6-3.1-7.7-3.5-11.7-.5-8.3,1-12,1.9-3.8,3.6-3.6,2.6,2.7,3.2,4c1.8,4,2.6,8.6,3.4,12.9s1.2,9,1.3,13.5,0,4.5,0,6.7.2,3.8-.8,4.9-3.6-1.5-4.3-2.3c-1.3-1.5-2.3-3.2-3.3-4.9-4.1-7.4-5.9-15.8-7.4-24.1s-2.4-16.9.3-24.8,1.4-3.3,2.4-4.8,1-1.2,1.5-1.8.6-.6.9-.9.3-.2.4-.4q.2-.3.3-.2c.3.2.5,1.1.6,1.4,0,.4.3.8.4,1.3.3,1.1.5,2.2.6,3.3.3,2.2.4,4.4.6,6.6.6,9.4.7,18.7.8,28.1s.3,4.1-.6,5.8l2.8.4c-3.2-8.7-4.8-17.9-5.6-27.1s-1.2-19.4-1.1-29,0-10.8,1.5-16l-2.5.7c1.9,2.2,2.3,5.5,3,8.2s1.5,6.5,2.1,9.7c1.3,6.6,2.4,13.2,3.5,19.9s3,1.3,3-.4c0-4.3,0-8.5.4-12.8h-3c.9,17,1.3,34,1.1,51.1s3,1.9,3,0c.2-17,0-34.1-1.1-51.1s-2.8-1.9-3,0c-.4,4.2-.6,8.5-.4,12.8l3-.4c-1.2-7-2.3-13.9-3.7-20.8-.7-3.4-1.4-6.8-2.3-10.2s-1.4-5.8-3.4-8.1-2.3-.4-2.5.7c-1.2,4.6-1.4,9.3-1.5,14.1s0,10.1,0,15.1c.3,9.6.9,19.3,2.6,28.8,1.7,9.5,2.3,10.6,4.1,15.7s2.1,1.6,2.8.4c1.2-2.2,1-4.6,1-7s0-5.6,0-8.5c0-5.7-.2-11.4-.6-17.2-.3-5.1-.3-10.7-2.1-15.5s-.7-2-1.7-2.6-2.2-.4-3.2.3c-1.7,1.2-3.1,2.8-4.3,4.5-5.4,8.1-4.7,19-3.4,28.2s3.6,20.7,9,29.5,2.5,3.9,4.3,5.4,3.8,2.8,5.9,2,2.6-2.8,2.8-4.7.3-5.2.3-7.8c0-5.5-.6-11-1.5-16.4s-1.9-10.5-4.4-15.1-2.5-3.7-4.7-4.1-4.3,1.3-5.5,3c-2.7,3.8-2.9,9.2-2.6,13.7s1.5,9.9,3.8,14.4,5,7.3,9.4,7.7,8.1-2.9,10-6.6,2.8-9.6,1.2-14.1-1.9-3.8-4.1-4.1-3.7,1.5-4.2,3.5-.6,4.9-.7,7.3.2,5.2.5,7.8.9,5.2,1.6,7.8,2.9,1.3,3-.4c.2-6.9,0-13.8,0-20.7s-.3-6.7-.5-10.1-.4-6.5-1.4-9.6-2.1-1.5-2.8-.4c-1.1,2-1.4,4.3-1.4,6.6v7.9c0,5.4.2,10.8.4,16.2h3c-.8-8.1-1.6-16.1-2.3-24.2s-1-15.7-3.1-23.2-2.5-1.4-2.9,0c-4.3,14-5.9,28.7-7.5,43.2l2.8-.8c-2.3-3.5-3.2-7.5-4.1-11.4s-2.7-1.5-2.9,0c-.7,4.3,0,8.5,1.6,12.4s2.8.6,2.8-.8c.2-10.8-.3-21.7-1.6-32.5s-3.2-1.9-3,0c.9,8.1,2,16.4,6.2,23.5s2.6,1,2.8-.4c1.1-7.2.2-14.4-.7-21.5l-2.9.8c1.6,7,4,13.7,7.3,20.1s3.3.5,2.8-1.2c-2.3-7.1-4.5-14.2-6.8-21.2l-2.8,1.2c3.2,6.3,7.2,12.1,12,17.2s3.1-.4,2.4-1.8c-2.1-4-4.6-7.8-7.4-11.4l-1.8,2.4c3,2.3,6.3,4,9.8,5.4s2.5-1.6,1.5-2.5c-3.8-3.5-7.8-6.7-12.1-9.5l-1.5,2.6c5.9,2.7,11.9,5.4,18.5,6.2,6.6.8,1.9-1.7,1.1-2.6-4.9-5-10-9.9-15.2-14.5l-1.5,2.5c3.2.4,6.4.7,9.7.7s1.9-2,.8-2.8c-6.6-4.8-13.1-9.6-19.7-14.4l-1.2,2.8c3,.6,6,1,9,1.1s1.6-1,1.5-1.9l-.8-4.1c-.4-1.9-3.3-1.1-2.9.8h0l-.8.3Z"/>
  <path class="st0" d="M99.8,114.3c.9-8.5,0-17-1.2-25.4s-1.4-8.5-2.1-12.7-.7-4.3-1.1-6.5-.2-1-.2-1.4,0-1.1-.2-1.3h-.2q-.3,0,0,0s.3.2.3.3c.3.3.5.6.7.9.9,1.8,1.5,3.9,2.2,5.9s1.3,3.8,1.9,5.8c1.2,4,2.2,8,3.1,12,1.8,8.1,2.9,16.3,3.3,24.6s0,2.3,0,3.5,0,2-.3,2.9-.9,1.2-1.4.7-.8-2.2-1-2.9c-1.1-4.5-1.4-9.1-.8-13.6l-2.8.8c1.5,2.3,4.8,3.1,7.1,1.5s2.3-5.4,0-7.3-2.6-1.2-4.1-.9-1.2.2-1.7-.3-.7-1.1-.7-1.8c-.2-1.8.9-3.6,1.5-5.2s.8-3.3.7-4.9c-.3-3.6-2.2-6.9-5.2-9s-3.1,1.5-1.5,2.6c2.6,1.8,4,5,3.7,8.1s-3.1,6.5-1.8,10.1,1.3,2.5,2.6,3.1,1.6.4,2.4.3,1.4-.4,2.1,0,1.1,1.9.3,2.5-2.3.4-2.9-.5c-.9-1.4-2.6-.7-2.8.8-.6,4.7-.4,9.6.8,14.2s.9,4.3,2.7,5.2,3.7,0,4.8-1.3,1.2-3.9,1.1-5.9-.2-5-.4-7.5c-.4-4.8-1-9.6-1.8-14.3-1.7-9.5-4.2-18.9-7.6-28s-1.3-4-3.2-5.2-3.6-.4-4.2,1.5,0,2.1,0,3.1.4,2.6.6,3.8c.4,2.5.8,5,1.3,7.4,1.9,11.2,3.8,22.6,2.6,34s2.8,1.9,3,0h0l.2.2Z"/>
  <path class="st0" d="M99.3,65.9c3.8-16.6,6.2-33.5,7.1-50.5l-2.8.8c5.9,10.8,11.8,21.6,16.1,33.2,2.1,5.7,3.7,11.5,4.7,17.5s1.5,10.9.6,16.2-2.8,9.5-7.7,10.7l1.9,1.9c2.3-6.3,11.1-6.7,16.7-6,8.5,1.1,16.8,4,24.3,8.3s8.2,5.3,11.7,8.6v-2.1c-7,7.2-15.5,13.1-25.1,16.2s-19,3.1-28.1,0-9.8-4.6-13.6-8.4-3.5.8-2.1,2.1c7.3,7.1,17.2,11,27.3,11.5,10.5.6,20.9-2.7,29.8-8.1,5.1-3.1,9.8-6.9,13.9-11.2s.6-1.6,0-2.1c-7-6.4-15.1-11.3-24-14.4-4.4-1.6-9-2.7-13.7-3.3s-7.7-.5-11.3.6-7.2,3.6-8.7,7.5.8,2.1,1.9,1.9c4.7-1.2,7.6-5.2,9-9.6s1.5-10.7.9-16c-1.4-12.9-6-25.2-11.6-36.9s-6.7-13.1-10.2-19.5-2.7-.7-2.8.8c-.9,16.7-3.3,33.3-7,49.7s2.5,2.7,2.9.8h0v-.2Z"/>
  <path class="st0" d="M88.8,70.7c-3.7,1.9-7.7.2-10.8-1.9s-6.9-6.1-10.2-9.3c-7.2-7.3-14.4-14.5-21.6-21.8s-3,.3-2.4,1.8c6.1,13.7,10.9,27.9,14.2,42.6,1.3,5.9,1.9,12.1,4.4,17.7,2.5,5.6,6.6,8.9,12.2,8s10.6-6.7,9.6-12.8-.8-1.1-1.5-1.1c-3.6,0-6.6,2.3-8.3,5.4s-2.1,8-2.5,12.1c-.7,7.5-3.4,14.8-7.5,21.1-4.1,6.3-5.3,6.9-8.6,9.7s-.2,2.6,1.1,2.6c15.2-.6,29.4-9,37.8-21.5,2.4-3.5,4.2-7.4,5.5-11.5s-2.3-2.7-2.9-.8c-4.2,13.4-15.3,24.3-28.6,28.7-3.8,1.3-7.7,2-11.7,2.1l1.1,2.6c5.5-4.7,9.9-10.7,12.9-17.3s2.6-6.8,3.4-10.4.7-7.8,1.4-11.6,2.8-8,7.1-8l-1.5-1.1c.8,4.5-3.7,8.9-8,9.1s-7.7-4.7-9-8.8-1.3-5-1.7-7.5-1.3-6.6-2.1-9.8c-1.6-6.6-3.4-13.1-5.6-19.5s-5.2-14.3-8.3-21.2l-2.4,1.8c6.1,6.1,12.1,12.2,18.2,18.2,6.1,6,5.9,6,8.9,8.9s5.4,4.8,8.7,6.3,7.2,1.9,10.6,0,.2-3.5-1.5-2.6h0l-.4-.2Z"/>
  <path class="st0" d="M93,63.9c-3-4.8-8.2-7-13.2-9s-10.1-3.8-12.6-8.6-3.5-.2-2.6,1.5c2.6,4.9,7.8,7.3,12.7,9.3s10.3,3.7,13.1,8.3,3.6,0,2.6-1.5h0Z"/>
  <path class="st0" d="M95.6,63.3c-4.6-5-9.1-10-13.7-15s-9.1-9.3-6.1-14.9-1.7-3.3-2.6-1.5c-3.3,6.2.9,12.3,5,16.9s10.2,11.1,15.2,16.7,3.4-.7,2.1-2.1h0Z"/>
  <path class="st0" d="M110.8,57.2c.5,6.2-2.5,12.5-7.7,16s-.2,3.6,1.5,2.6,4.6-2.5,6.9-3.8,1.1-.6,1.7-.9.7-.5.8-.4c.5.4.3,2.2.3,2.7,0,3.6-.5,9.7-5.2,10.2s-1.9,3.2,0,3c2.9-.3,5.3-2.1,6.7-4.6s1.7-6.3,1.5-9.5,0-2.5-.8-3.6-2.3-1.6-3.7-1-3.1,1.6-4.6,2.5-3.4,1.9-5.2,2.8l1.5,2.6c6.1-4.1,9.7-11.3,9.2-18.6s-3.2-1.9-3,0h0Z"/>
  <path class="st0" d="M89.7,79.4c-6,.6-13.5,1.2-18.2-3.5s-2.6-.3-2.6,1.1c0,2,1.1,3.7,2.7,4.8s1.7.9,2.6,1,.9,0,1.4,0,1-.3,1.3,0,.2.5.2.6c.2.5.3,1.1.4,1.6.2,1,.4,2,.2,3.1s-.6,1.3-1.2,1.7-1,.4-1.3,0c-.6-.5-1.5-.6-2.1,0s-.6,1.6,0,2.1c1.8,1.5,4.1,1.2,5.9-.3s2.1-4.5,1.7-7-1.3-5.2-4.4-5-1.9.3-2.8-.3-1.4-1.4-1.4-2.4l-2.6,1.1c5.3,5.3,13.4,5,20.4,4.4s1.5-.6,1.5-1.5-.7-1.6-1.5-1.5h-.2Z"/>
  <path class="st0" d="M94.3,102.8l-4.5,6.8c-.6.9-1.3,2.1-1.9,2.9s-.6.7-1,.9-.2,0-.4.2c.2,0,0,0,0,0,0,0-.2,0,0,0-.3,0,0,0-.2,0-1.9-.5-2.7,2.4-.8,2.9,3.1.8,5-2.2,6.4-4.4s3.4-5.2,5.2-7.7,0-1.7-.5-2.1-1.6,0-2.1.5h-.2Z"/>
  <path class="st0" d="M109.4,104.3c6.9,2.6,14.2,4.1,21.6,4.3,7.4.2,1.9-3,0-3-7.1-.2-14.1-1.7-20.8-4.2s-2.6,2.2-.8,2.9h0Z"/>
  <path class="st1" d="M170.9,129.4c-.6-.9-.5-1.9,0-2.8s.5-.9.9-1.3.4-.4.6-.7l.2-.2q.3-.3,0,0h-.9.1l-.6-.7c.2.5,0,1.3,0,1.8v2.1c0,1.4-.6,2.1-1.4,3.2-1.5,1.9-2.5,4.3-2.4,6.8s.5,2.4,1.9,2.5,2.1-.7,2.5-1.8c.9-2.2.6-4.8-.4-6.9s-1-1.9-1.9-2.5-2.5-.7-3.8-.2-2.2,1-3.3,1.6-2.3.9-2.8,2c-1.3,2.7,2.9,3.3,4.6,3.1,2.5-.3,4.6-1.6,6.7-2.9s2.2-1.4,3.3-1.9,1.2-.5,1.9-.6,1.5-.2,1.6,0c.2.9-2.4.9-2.8.9-.7,0-1.5-.2-2.2-.4s-1.4-.3-1.5-.7c-.3-1.5-2.6-.9-2.3.6s1.5,1.8,2.6,2.2,2.7.7,4.1.7c2.2,0,5.4-1.4,4.4-4.2s-4.8-1.5-6.7-.7-4.3,2.7-6.6,3.9-2.4,1-3.7.9-.8-.3-1-.2-.2-.4-.1.2,0,.2.2.2.6-.3.8-.4c.3-.2.7-.3,1-.5.6-.3,1.3-.6,1.9-1s1.3-.7,1.9-.6c1.1.1,1.7,2,1.9,2.8s.4,2.5,0,3.7-.3.3,0,.5.1,0,.2-.2,0-.5,0-.6c0-.7.1-1.3.3-1.9.4-1.3,1.1-2.3,2-3.4s1.3-2.2,1.4-3.6,0-1.6,0-2.3v-2.5c0-.8-.7-1.1-1.4-1.2s-1.3.6-1.7,1.1c-1.8,2-3.4,5-1.7,7.6s3,0,2.1-1.2h0v-.3Z"/>
  <path class="st1" d="M201.3,137.4c-1.5.2-2.1-1.6-2.2-2.8s.4-3.2,1.4-4.5l-2.2-.3c.5,2.6,1,5.1,1.1,7.7s0,4.9-2.1,5.6l1.4,1.8c.5-1.2,1.2-2.5,1.8-3.6s1.1-2.4,2.2-2.7,2.5-.2,3.7-.2h4.4c1.5,0,1.6-2.4,0-2.4-3.4,0-6.7.9-10,1.5s-3.3.4-4.9,0-2.8-.7-3.1-2.1l-1.2,1.5c1.6-.2,2.8.8,4.2,1.4s3,.8,4.6,1,2.5.7,3.1,2,.6,2.5.4,3.7l2-.5c-1.6-1.4-2.6-3.4-2.8-5.5s-2.6-1.6-2.4,0c.3,2.8,1.4,5.3,3.5,7.2s1.8.4,2-.5c.6-3.2-.3-7.1-3.6-8.3s-3.9-.3-5.7-1.1-3.3-1.9-5.2-1.7-1.3.7-1.2,1.5c.6,3.7,5.7,4.2,8.6,4s7.7-1.7,11.6-1.6v-2.4h-5.1c-1.7,0-2.9,0-4.1.5s-2,1.7-2.7,2.8-1.6,2.9-2.3,4.4.3,2.1,1.4,1.8c2.8-.9,3.9-3.8,3.9-6.5s-.6-6.6-1.2-9.7-1.6-1-2.2-.3c-1.5,2-2.1,4.5-1.6,7s2.1,4.3,4.4,4,1.2-.5,1.2-1.2-.6-1.3-1.2-1.2h0v-.3Z"/>
  <path class="st1" d="M236.9,125c-1.4-2.4-2.1-5.1-2.2-7.9s0-2.6.3-3.9,0-.7.2-.9c.2-.3-.2-.4.3,0s.5,1.2.6,1.7c.6,4.4-.9,8.9-3.6,12.4s-3,3.3-4.9,4.4-1.9,1-2.9,1.3-1.2.5-1.3.2.5-1.6.6-1.8c2.4-4.9,7.5-6.5,12.7-6.1s5.7.8,8.5,1.5,2.7.6,4.1,1,1.3.3,1.8.6.1,0,.2,0c-.1.2-.9.3-1.2.4-2.8.9-5.7,1.7-8.6.5s-4.8-3.2-7-4.9-4.7-3.3-6.4-5.5-1.7-2.6-.6-3,1.4.3,1.8.4c.6.2,1.1.5,1.6.8,4.5,2.7,6.1,8.1,6.3,13.1.2,5,0,3.3,0,4.9s-.1,1.7-.2,2.6,0,1.4-.7,1.2c-1.2-.4-1.3-2.8-1.5-3.8-.2-1.5-.3-3-.2-4.6.3-5.6,4.2-11.7,10.5-10.9l-.9-2.1c-1.5,1.6-3.1,3.1-4.9,4.3s-1.7,1.1-2.6,1.5-2.2,1.3-3.3.7-2.6,1.4-1.2,2.1c2.5,1.3,5.1-.3,7.2-1.6s4.6-3.3,6.5-5.4.2-1.9-.9-2.1c-3.3-.4-6.6,1-8.9,3.4s-3.7,5.9-4,9.4,0,3.8.3,5.6.5,3.4,1.6,4.6,2.5,1.5,3.8.9,1.5-2.7,1.6-4.3c.5-7.1.3-15.3-5.5-20.3s-6-4.2-8.3-2.2.5,6.4,2.4,8.1c3,2.6,6.2,5.2,9.5,7.5,3.3,2.3,6.8,3,10.7,2s3.7-.7,4.8-1.8.9-2.6-.3-3.4-3.5-1.3-5.2-1.7-4.1-.9-6.1-1.3c-3.7-.7-7.5-1.2-11.2-.2s-6.1,2.9-7.9,5.7-1.6,2.8-1.6,4.2,1.3,2.5,2.8,2.4c2.9-.2,6-2.3,8.1-4.2,4.5-4,7.3-10.3,6.7-16.3s-.5-3.1-1.7-4.1-2.7-.7-3.6.5-1,3.3-1.1,4.9,0,3.6.5,5.4,1.1,3.6,2,5.2,2.9,0,2.1-1.2h.4Z"/>
  <path class="st1" d="M209.9,108.4l-1.5-3.2c-.2-.5-1.3-2.2-.7-2.7s.4,0,.5.3c.2.6,0,1.3-.2,1.8-.3.9-.5,1.9-.8,2.8-.6,1.8-1.3,3.7-2.2,5.4s-1,1.6-1.6,2.4-.6.8-1,1.1-.3.3-.4.4-.6.4-.3.4l.9.4c-.1,0-.2-1-.2-1.2,0-.6,0-1.1.2-1.7.3-1.1.9-2.1,1.7-2.9,1.8-1.9,4.4-2.7,6.9-2.9s2.7,0,4.1,0,1.1.2,1.6.4.1.2,0,0,0,0-.1,0c-.3,0-.5.2-.8.3-1.4.2-2.9-.4-4.3-.9s-2.9-1.3-4.4-1.9-3.2-1.4-4.8-2.1-2.4-1.1-2.8-2.2l-.8,1.5c6.6-1.6,10.8,8.1,9.5,13.3l2.2-.3c-.7-1.7-.9-3.6-1-5.4s0-4,.7-5.7.7-1.2,1.3-1.6.5-.3.8-.3h.4c.3,0-.1,0,0,0-.6.5-1.1,1.2-1.8,1.7s-1.6,1-2.5,1.3c-1.5.5-.8,2.9.6,2.3s2.5-1.1,3.6-1.9,2.2-1.7,2.5-3-.6-2.2-1.7-2.6-2.4,0-3.4.6c-2.4,1.6-2.8,4.5-2.9,7.2s0,5.9,1.2,8.7,2,.7,2.2-.3c1.8-7.1-4-18.3-12.5-16.3s-1.1.9-.8,1.5c1,2.9,4.3,3.9,6.9,5s3.4,1.5,5.1,2.2,3.1,1.4,4.8,1.6,3.1,0,4.2-.9,1-2.6,0-3.5-2.6-1-3.9-1.1-3.2,0-4.7,0c-2.9.4-5.8,1.5-7.7,3.9s-2.7,5-1.9,7.6,1.8,1.9,3,.8,2.1-2.2,2.9-3.4c1.6-2.5,2.7-5.3,3.6-8.1s1.3-3.6.8-5.3-2.2-2.7-3.8-1.9-1.8,2.5-1.4,3.9,1.6,3.7,2.5,5.5,2.7.2,2.1-1.2h0v.2Z"/>
  <path class="st1" d="M246.5,91.8c-1.2-1.8-2.2-3.8-2.7-5.9s-1.2-5.8,1.2-5l-.8-.8c.7,5.1,1.6,12.6-3.7,15.9s-1.2.7-1.8.6-.7-.6-.3-1.1c.8-.9,2-1.7,3.1-2.3,2.3-1.4,4.9-2.3,7.5-2.6s2.5-.2,3.7,0,1.5,0,.9.4-1.6.3-2.3.3c-3,0-6-.3-8.9-1s-2.9-.7-4.3-1.2-2.5-.8-3.5-1.7-1-1.7.1-2.1,2.6.3,3.5,1.2c2.3,2.1,4.6,4.4,6.6,6.8s3.8,4.8,4.1,7.9l.6-1c-1.1.5-2.2.8-3.4.7s-.8,0-.8-.7,0-1.2.2-1.8c.3-2.4.9-4.8,1.7-7.1s.9-2.3,1.4-3.3,1-2.6,1.6-2.7.2.4,0,.7c-.3.4-.8.8-1.2,1.1-1,.7-2,1.2-3.1,1.7s-.2,2.7,1.2,2.1,3.6-1.7,4.8-3.2,1.3-2.9.2-4.1-2.8-.9-3.8.2-1.9,3.1-2.6,4.7c-1.5,3.6-2.5,7.4-2.8,11.4s.2,3.1,2.1,3.4,3.9-.2,5.7-1,.6-.7.6-1c-.4-3.8-2.5-6.9-5-9.7s-2.8-3-4.3-4.4-2.7-3-4.5-3.8c-2.8-1.2-7.2.7-5.9,4.3s2.1,2.5,3.6,3.2,3.9,1.4,5.9,1.9,4.2.8,6.3,1,4.2.4,6.1,0,3-1.8,2.5-3.6-2.8-1.8-4.3-1.9c-3.7,0-7.4.8-10.6,2.5s-7.7,4.5-4.7,7.5,3.9,1,5.5,0,2.9-2.7,3.7-4.5c2-4.4,1.4-9.2.8-13.9s-.5-.7-.8-.8c-1.3-.4-2.7,0-3.6,1.1s-1.2,2.9-1,4.4c.4,3.2,1.6,6.3,3.4,9s3,0,2.1-1.2h0v-.6Z"/>
  <path class="st0" d="M193.6,126.4c-.8-2.2-1.7-4.5-3.3-6.3.3-1.4-.1-3-1.4-3.9-.4-.3-1.1,0-1.4.4-.3.5,0,1.1.4,1.4,0,0,.3.3.2.2,0,0,0,.1.1.2,0,0,.1.2,0,0,0,.1,0,.2.1.3-1.3-.7-2.8-1-4.3-.7-.4,0-.7.5-.7,1-.2,2.7,3.1,4.8,5.4,3.3.2-.1.3-.2.4-.4,1.2,1.4,1.9,3.3,2.5,5,.2.5.7.9,1.2.7.5-.1.9-.7.7-1.2ZM186.1,120.4c-.3-.2-.5-.4-.6-.6.7,0,1.5.3,2.1.7-.5.3-1,.2-1.5-.1Z"/>
  <path class="st0" d="M220,125c-.7-.5-1.5-.4-2.3-.3-.2,0-.5.3-.6.5-.1.2-.2.5-.1.8,0,.2.2.5.5.6,0,0,.2,0,.2.1.1,0,.2,0,.3,0,.2,0,.5,0,.7,0,0,0,0,0,0,0,0,0,0,0,0,0,0,0,0,0,0,.1,0,0,0,0,0,.1,0,0,0,0,0,0,0,0,0,0,0,0,0,0-.2,0-.3,0-.2,0-.3,0-.5,0-.3,0-.7-.2-1-.3-.5-.2-1.1.2-1.2.7-.1.6.2,1,.7,1.2,1.2.4,2.8.6,3.8-.4.5-.4.7-1,.8-1.7,0-.7-.3-1.3-.9-1.7Z"/>
  <path class="st0" d="M224.7,89.3l-1-2.1c-.2-.4-.3-.7-.5-1.1-.1-.2-.4-.6-.4-.9,0-.5,1.5-.3,1.9-.2,1.3.3,1.8-1.7.5-1.9-1.1-.2-2.5-.3-3.5.4-.5.3-.8.8-.9,1.4-.2.9.4,1.8.8,2.6.8,1.6,1.6,3.2,2.3,4.9.7,1.5,1.2,3.1.6,4.6-.2.5.2,1.1.7,1.2.6.2,1-.2,1.2-.7,1.2-2.8-.5-5.8-1.7-8.2Z"/>
  <path class="st0" d="M264.3,96.3c-.1-.5-.7-.8-1.2-.7-.5.1-.8.7-.7,1.2.3,1.2.5,2.4.6,3.6,0,.6,0,1.2,0,1.8,0,.2,0,.3,0,.4,0,0-.1,0,0,0,0,0-.2.1-.3.2-.4.2-1.1.4-1.6.5-.5.1-1.1.2-1.6,0-.3,0-.6-.2-.8-.5,0,0,0-.1-.1-.2,0,0,0-.1,0-.2,0,0,0-.2,0-.2,0,0,0,0,0,0,0,0,0,0,0-.1,0,0,0,0,0,0,0,0,0,0,0,0,0,0,0,0,0,0,0,0,0,0,0,0,0,0,.2-.2.3-.2.4-.1.9-.1,1.4,0,.5,0,1-.5,1-1s-.5-1-1-1c-1.3,0-2.9.1-3.6,1.5-.6,1.3,0,2.7,1.1,3.5,1.3,1,3.1.8,4.6.3.7-.2,1.5-.4,2.1-1,.6-.6.7-1.5.7-2.3,0-1.9-.3-3.8-.7-5.6Z"/>
  <g>
    <path class="st0" d="M267.8,70.5c-.1-.2-.4-.4-.6-.5-.5-.1-1.1.1-1.2.7,0,.1,0,.2,0,.4,0,0,0,.1,0,.2,0,0,0,.1,0,.2,0,0,0,0,0,0,0,0,0,.1,0,.2,0,.1-.1.2-.2.3,0,0,0,.1-.1.2,0,0-.2.2-.3.3,0,0,0,0,0,0,0,0,0,0,0,0,0,0,0,0,0,0,0,0,0,0,0,0,0,0,0,0,0,0-.1,0-.2.1-.3.2-.1,0-.2.1-.3.2h0c0,0-.1,0-.2,0-.1,0-.2,0-.4.1,0,0-.1,0-.2,0,0,0,0,0,0,0,0,0,0,0,0,0,0,0,0,0,0,0-.1,0-.1,0,0,0,0,0-.2,0-.3,0,0,0-.3,0-.3,0,0,0,0,0,0,0,0,0-.1,0-.2,0-.1,0-.3,0-.4-.1-.5-.2-1.1.2-1.2.7-.1.6.2,1,.7,1.2,2.5,1,5.8-.9,6.2-3.5,0-.3,0-.5-.1-.8Z"/>
    <path class="st0" d="M263.5,73.1s0,0,0,0c0,0,0,0,0,0,0,0,0,0,0,0Z"/>
    <path class="st0" d="M265,72.5s0,0,0,0c0,0,0,0,0,0,0,0,0,0,0,0Z"/>
  </g>
  <path class="st0" d="M175.3,142.3c-1.2.4-2.1,1.1-3,1.9-.9.7-1.9,1.3-3,1.6-2.4.7-4.9.4-7.3,0-.5,0-1,.5-1,1,0,.6.5.9,1,1,2.5.3,5.1.5,7.6-.1,1.2-.3,2.3-.8,3.3-1.5,1-.7,1.8-1.7,3-2.1,1.2-.4.7-2.4-.5-1.9Z"/>
</svg>