<?xml version="1.0" encoding="UTF-8"?>
<svg id="Layer_2" xmlns="http://www.w3.org/2000/svg" version="1.1" viewBox="0 0 251.8 221.8">
  <!-- Generator: Adobe Illustrator 29.8.2, SVG Export Plug-In . SVG Version: 2.1.1 Build 3)  -->
  <defs>
    <style>
      .st0 {
        fill: #231f20;
      }

      .st1 {
        fill: #53c5f1;
      }
    </style>
  </defs>
  <path class="st1" d="M129.2,136.3c.3-8.4.5-16.7-.8-25s-3.7-2.5-4.6-.6c-4.5,9.5-9,19.1-13.5,28.6l4.7,1.3c-1.3-16.3-2.6-32.6-4-48.9s-3.8-3.3-4.9-.7c-3.3,8.1-6.6,16.3-10,24.4l4.9.7c-.2-12.2-.3-24.3-.5-36.5h-5c1.4,13,4.6,25.6,9.7,37.7s2.7,6.1,4.2,9,2.8,6.4,6.4,5.7,4-4,4.6-6.6,1.7-6.9,2.5-10.3c1.9-7.7,3.8-15.4,5.7-23.1l-4.9-.7c-.4,6.8,1,13.5,3.7,19.7s1.9,1.4,2.8,1.1,1.8-1.3,1.8-2.4c.6-15.7-1.2-31.4-5.2-46.5s-1.5-2-2.7-1.8-2.3,1.2-2.2,2.5c.8,5.9,2.7,11.5,5.8,16.6s5.6.9,4.6-1.9c-6.4-18-13.5-35.8-21.4-53.3s-4.5-9.9-6.9-14.8-5.5-.8-4.6,1.9c8.6,25.4,18.9,50.2,30.9,74.1s6.8,13.4,10.5,19.9,4.9,1.3,4.7-1.3c-2.5-22.1-5.8-44.1-10-65.9s-2.4-12.4-3.7-18.5-5-2.1-4.9.7c.6,16.5,4.4,32.6,8.8,48.4,1.3,4.6,2.6,9.1,4,13.6l4.8-1.3c-7.2-18.2-13.7-36.7-19.7-55.3s-3.3-10.5-4.9-15.8l-4.8,1.3c6.4,16.4,13.5,32.6,21.3,48.5,1.2,2.5,5.5.8,4.6-1.9-4.4-12.5-9.5-24.8-15.2-36.9s-4.5-1-4.7,1.3c-1.2,23.9-1.4,47.8-.5,71.6.2,6.8.6,13.6,1,20.4s5,3.2,5,0c-.2-18.3-.3-36.6-.5-54.9v-15.5c-1.8.2-3.4.4-5,.7,5.2,17.8,12,35.1,20.1,51.8s4.6,1.1,4.7-1.3c.3-16.3.6-32.7,3.8-48.8s2-9,3.4-13.4h-4.8c1.4,3.4,1.8,7.1,2.1,10.7s.5,8.2.8,12.3c.5,8.4,1.1,16.7,1.6,25.1.3,4.7.6,9.4.9,14.2s4.9,3.2,5,0c.5-22.4.9-44.8,1.4-67.2.1-6.3.3-12.6.4-18.9h-5c.3,16.7.6,33.3,1,50l.3,14.2c0,3.2,4.9,3.2,5,0,.6-13.9,1.2-28.4,7.5-41.1l-4.7-1.3c.7,10-.3,20-1.6,30s-2.6,20.1-3.9,30.2c-.7,5.8-1.5,11.6-2.2,17.3h5c.6-17.8,5.3-35.4,13.7-51.2l-4.7-1.3c-2.2,16.8-4.4,33.5-6.6,50.3l-1.9,14.3c-.1,1.1.9,2.1,1.8,2.4s2.2-.2,2.8-1.1c6-9.3,12.7-19.7,23.4-24.1l-3.1-3.1c-5.8,19.8-11.7,39.6-17.5,59.5s.5,2.7,1.7,3.1,2.6-.5,3.1-1.7c9.2-22.7,18.8-45.2,29.1-67.5,2.7-5.8,5.6-11.6,9.5-16.8l-4.7-1.3c-1.9,16-4.5,31.8-7.8,47.6l4.9.7c.2-3.6,1.6-7,4-9.7l-4.3-1.8c-1,11.9-4.2,23.7-9.4,34.5l4.6.6c-2.1-9.9-2.4-20.1-1-30.1l-4.9.7c.8,3.9.5,7.9-.8,11.7s-.9,3.3-2.1,3.4-3.2-1.6-4.2-2.4c-6.1-5.1-11.4-11.1-15.6-17.8l-1.5,3.7c2.5-.9,5.2-.8,7.6.4s2.2,1.3,3,2.3,0,1.8-.9,2.6c-4.8,4.5-11.1,7.7-17.5,8.9s-12.7-.3-15.6-5.9.1-10.2,5.3-10.4,10.3,3.2,12.6,8c2.3,4.7,1.3,10.5-2.1,14.5s-3.9,3.6-6.5,4.3-5.8-.9-8.1-3.1c-4.3-3.9-7.5-9.4-8-15.3-.5-5.7,1.4-11.5,5.6-15.5s10-5.1,15.2-3.5,8.5,6.5,9.2,11.7c.8,5.5-1.4,10.9-5.2,14.8s-10.3,6.6-16.4,7.3-11.9.9-17.5-.5-4.4-1.4-6.3-2.8-4.2-3.8-3.8-5.9,1-1.2,1.7-1.5c1.6-.7,3.5-1,5.2-1.4,3.6-.9,7.2-1.6,10.9-2.3,7.5-1.3,15.2-2.2,22.8-2.5s3.5-.1,5.3-.2,3.5-.4,4.5.1.2.3,0,0c.2.5,0-.2,0,.4s-.1.9-.3,1.4c-.4,1.1-1.2,2-2,2.9-8.6,9.3-19.5,16.5-31.4,20.7-2.9,1-5.9,1.9-9,2.5l1.3,4.8c-.7,0-1.2-.2-1.6-.6,0-.2,0-.2,0,.1.1-.4,0,.8,0,.4-.2,1.1-.7,2.3-1.1,3.4-.7,2.2-1.5,4.5-2.2,6.7-1.6,4.5-3.2,9-5,13.5-3.5,8.9-7.5,17.7-11.8,26.2l4.7,1.3c-1-10.5,1.6-20.8,4.6-30.8s6.3-20.1,9.9-30c2-5.6,4.2-11.1,6.4-16.6l-4.8-1.3c-3.8,11.5-8.3,22.8-13.7,33.7s2.7,5.3,4.3,2.5l6.2-10.8-4.3-2.5c-8.3,17.4-18.3,34-29.8,49.5s-6.6,8.6-10.1,12.8,1.1,5.7,3.5,3.5l12-10.4c2.1-1.9-.7-5.5-3-3.9-6.3,4.1-12.6,8.1-18.9,12.2l3,3.9c6.7-7.7,13.4-15.4,20.1-23.1l9.9-11.5c2.9-3.4,6.4-6.9,7.2-11.5s-1.7-4.1-3.7-2.8c-12.4,7.7-23.2,17.6-32.1,29.2s2.2,5.2,3.9,3c11.2-13.9,23.2-27.2,35.9-39.8l-3.5-3.5c-13.5,13.8-27.5,27.1-41.9,39.9s.7,5.6,3,3.9c13.1-9.5,24.9-20.8,34.9-33.5,10.1-12.8,18.4-26.9,24.7-41.9,3.5-8.4,6.3-17,8.5-25.8l-4.9-.7c.8,10.3-1.1,20.4-2.8,30.6-1.7,10.4-2.9,20.8-3.5,31.3-.3,5.9-.4,11.8-.3,17.6s3.6,3.6,4.7,1.3c6.5-14.5,13-29.1,21.3-42.7s4.9-7.6,7.6-11.3l-4.7-1.3c-1.1,8-3.4,15.9-6.7,23.3s1.7,5,3.9,3c4.7-4.1,10.2-7.3,16.1-9.2,3-1,1.8-5.7-1.3-4.8-9.2,2.6-18.6,4.4-28.2,5l.7,4.9c11.2-3.8,22.8-6.5,34.5-8.1s2-1.7,1.8-2.7-1.2-2.2-2.5-2.2l-11.6.5c-3.3.1-3.2,4.7,0,5,11.5,1,23.2,0,34.4-2.8,1.4-.3,2-1.8,1.7-3.1-1.5-9-3-18-4.4-27s-.8-8.6-5.1-10.1-7.5,0-10.9.6-7,1.5-9.6-.7l-1.8,4.3c7.2-.7,14.3-1.5,21.5-2.2s2.1-.7,2.4-1.8-.2-2.3-1.1-2.8c-9.6-5-20.4-7.5-31.2-7.1s-3.2,4.9,0,5c8.3.3,16.6.7,24.9,1v-5c-14.6.9-29.2,2.7-43.5,5.4l2.8,3.7c7-15.3,10.2-32.2,8.9-49-.4-4.8-1.1-9.5-2.1-14.2l-2.4,3.2c3.8-.1,7.9-.5,11.4,1.3s4.6,3.8,4.6,7.1-.7,8.3-1.3,12.4-1.4,8.6-2.2,12.9l4.9.7c0-16.9.2-33.9.2-50.8s-3.6-3.6-4.7-1.3c-1.9,4-4.9,7.2-8.8,9.3s-4.2,2.2-5.3,4.3-1,5,.8,6.8,4.7,0,4.2-2.4-1.2-5.7-1.8-8.5-1.6-2-2.7-1.8-2,1.2-2.2,2.5c-1.4,10.5-2.8,21-4.2,31.6s1.3,2.5,2.5,2.5,2.3-1.2,2.5-2.5c1.4-10.5,2.8-21,4.2-31.6l-4.9.7c.6,2.8,1.2,5.7,1.8,8.5l4.2-2.4c0,0-.1-.4,0-.8.3-.6.9-1,1.5-1.4,1.7-1,3.4-1.8,5-3,3.3-2.4,5.9-5.6,7.6-9.2l-4.7-1.3c0,16.9-.2,33.9-.2,50.8,0,2.7,4.3,3.5,4.9.7,1-4.8,1.8-9.5,2.4-14.3s.6-4.9.9-7.4.5-4.8.2-7.2c-.6-4.1-3.4-7.4-7-9.2s-9.1-2-13.8-1.9-2.8,1.5-2.4,3.2c3.4,15.4,2.9,31.6-1.5,46.7s-2.8,8.5-4.7,12.6.6,4.1,2.8,3.7c13.9-2.6,28-4.4,42.2-5.2s3.2-4.9,0-5c-8.3-.3-16.6-.7-24.9-1v5c9.9-.3,19.8,1.8,28.7,6.4l1.3-4.7c-7.2.7-14.3,1.5-21.5,2.2s-1.9.5-2.3,1.5-.2,2.1.5,2.7c5.8,5.1,13,1.7,19.7,1.2s2.7-.4,3.4.6.4,1.3.5,1.9c.2,1.1.4,2.2.5,3.3.7,4.3,1.4,8.7,2.1,13l2.5,15,1.7-3.1c-10.8,2.7-22,3.5-33,2.6v5l11.6-.5-.7-4.9c-11.7,1.6-23.3,4.3-34.5,8.1-1.2.4-2,1.5-1.8,2.7s1.2,2.3,2.5,2.2c10-.7,19.9-2.5,29.5-5.2l-1.3-4.8c-6.8,2.2-13,5.8-18.3,10.5l3.9,3c3.8-8.2,6.2-16.8,7.4-25.8s-.9-2.1-1.8-2.4-2.2.2-2.8,1.1c-9.4,12.8-16.7,27.1-23.3,41.5s-3.8,8.3-5.6,12.5l4.7,1.3c-.2-10.5.2-20.9,1.3-31.3,1.1-10.3,3.2-20.5,4.5-30.8s1.1-11.5.7-17.3-4.2-3.6-4.9-.7c-3.7,15.3-9.5,30-17.2,43.6s-17.3,26.3-28.4,37.4-13,12.1-20.2,17.3l3,3.9c14.4-12.8,28.4-26.1,41.9-39.9s-1.2-5.8-3.5-3.5c-12.7,12.6-24.7,25.9-35.9,39.8l3.9,3c8.3-10.9,18.7-20.2,30.3-27.4l-3.7-2.8c-.7,4.2-4.2,7.3-6.9,10.4l-9.6,11.1c-6.5,7.5-12.9,14.9-19.4,22.4s.5,5.6,3,3.9c6.3-4.1,12.6-8.1,18.9-12.2l-3-3.9-12,10.4,3.5,3.5c12.5-15.1,23.7-31.3,33.1-48.5,2.7-4.9,5.2-9.8,7.6-14.8s-2.7-5.3-4.3-2.5l-6.2,10.8,4.3,2.5c5.5-11.3,10.3-22.9,14.2-34.9s-.5-2.7-1.7-3.1-2.6.5-3.1,1.7c-4,9.8-7.7,19.8-11.1,29.8s-6.9,20.4-8.9,30.9-1.8,12-1.2,18.1.7,2.1,1.8,2.4,2.3-.2,2.8-1.1c7.8-15.5,14.4-31.5,19.7-48s1.4-3.9.9-6-2.4-3.7-4.6-3-1.8,5.5,1.3,4.8c14.8-3.3,28.6-10.7,39.5-21.3s5.3-5.1,6.5-8.6-.8-7.6-5-8-4.2,0-6.3,0-4.5.2-6.7.3c-4.6.3-9.1.8-13.6,1.4s-8.7,1.4-13.1,2.3-4.4,1-6.6,1.5-3.6.9-5.2,1.8c-3.9,2.2-4.3,6.6-2.3,10.3s4,5.1,6.7,6.6c5.7,3.2,12.7,3.7,19.1,3.4s16.3-1.8,22.9-7c5.5-4.4,9.3-11,9.3-18.2s-3.5-14.1-9.7-17.5-14.8-2.9-20.7,1.2-9.5,11.3-9.8,18.6,3.1,14.9,8.3,20.2,6.2,5.7,10.3,6,7.8-1.6,10.7-4.1c5.3-4.5,7.9-12.1,6.1-18.8s-7.5-12.3-14.3-13.6-8-.4-11.1,2.3-4,5.7-4.1,9.1c-.2,7.5,6.5,13.3,13.5,14.6,8.2,1.5,17-1.6,23.8-6.2s3.3-2.4,4.9-3.8,2.9-3.1,3.1-5.2c.3-4-3.8-7-7.1-8.4s-6.9-1.5-10.2-.3-2.4,2.2-1.5,3.7c4.1,6.4,9,12.2,14.6,17.3s5.9,5.6,9.7,5.4,6.1-4.6,7.1-8.1,1.3-8.9.4-13.3-1.6-2-2.7-1.8-2,1.2-2.2,2.5c-1.4,10.5-.9,21.1,1.2,31.5s3.7,2.5,4.6.6c5.6-11.7,9-24.1,10.1-37s-2.9-3.3-4.3-1.8c-3.3,3.7-5.2,8.3-5.5,13.2s4.3,3.4,4.9.7c3.4-16.2,6-32.5,8-48.9s-.9-2.1-1.8-2.4-2.1.3-2.8,1.1c-3.5,4.6-6.1,9.7-8.6,14.9-2.6,5.5-5.1,11.1-7.6,16.7-5.1,11.4-10.1,22.8-14.9,34.3s-5.4,13-8,19.5l4.8,1.3c5.8-19.8,11.7-39.6,17.5-59.5.5-1.7-1.3-3.8-3.1-3.1-12.1,4.9-19.5,15.8-26.4,26.3l4.7,1.3c2.2-16.8,4.4-33.5,6.6-50.3l1.9-14.3c.3-2.5-3.6-3.3-4.7-1.3-8.8,16.6-13.7,35-14.4,53.7,0,1.4,1.2,2.5,2.5,2.5s2.3-1.2,2.5-2.5c1.3-10.1,2.6-20.2,3.9-30.2s2.8-20,3.6-30.1c.5-5.7.6-11.5.2-17.2s-3.5-3.6-4.7-1.3c-6.8,13.5-7.6,28.8-8.2,43.6h5c-.3-16.7-.6-33.3-1-50l-.3-14.2c0-3.2-4.9-3.2-5,0-.5,22.4-.9,44.8-1.4,67.2s-.3,12.6-.4,18.9h5c-1.1-16.9-2.2-33.8-3.3-50.7s-.7-8.9-2.3-13-4-2.5-4.8,0c-5.1,15.9-6.5,32.7-7.1,49.3s-.3,9.4-.4,14.1l4.7-1.3c-7.9-16.3-14.5-33.2-19.6-50.6s-4.9-2.2-4.9.7c.2,18.3.3,36.6.5,54.9v15.5h5.1c-1.5-23.8-1.9-47.8-1.3-71.6s.4-13.6.8-20.4l-4.7,1.3c5.5,11.6,10.4,23.5,14.7,35.7l4.6-1.9c-7.5-15.5-14.5-31.2-20.8-47.3s-1.7-2.1-3.1-1.7-2.1,1.8-1.7,3.1c5.6,18.8,11.8,37.3,18.6,55.7s3.9,10.3,5.9,15.4,1.7,2.1,3.1,1.7,2.1-1.8,1.7-3.1c-4.6-15.5-9.2-31.1-11.5-47.1-.6-4.5-1-9.1-1.2-13.6l-4.9.7c4.5,21.4,8.2,43.1,11.2,64.8s1.6,12.2,2.3,18.3l4.7-1.3c-12.7-23.1-23.8-47.1-33.2-71.7s-5.2-14.1-7.6-21.2l-4.6,1.9c8.1,16.9,15.5,34.2,22.2,51.8s3.8,10.1,5.5,15.1l4.6-1.9c-2.7-4.3-4.5-9.1-5.1-14.1l-4.9.7c3.9,14.7,5.6,30,5,45.2l4.7-1.3c-2.4-5.4-3.3-11.3-3-17.2s-4.2-3.4-4.9-.7c-1.5,6.2-3,12.3-4.5,18.5s-1.5,6.2-2.3,9.4-.7,2.9-1.1,4.3-.5,2.7-1,3.8c0,0-.3.5-.3.6,0,0,.1,0,.1,0,0,0,.9,0,.9,0s-.6-2.5-.2-.3c-.1-.6-.7-1.4-1-1.9s-.7-1.3-1-2c-1.3-2.5-2.4-5.1-3.5-7.7-2.2-5.4-4.1-10.9-5.6-16.5s-2.9-12.7-3.6-19.2-1-2.5-2.5-2.5-2.5,1.1-2.5,2.5c.2,12.2.3,24.3.5,36.5s.9,2.3,2.2,2.5,2.3-.6,2.7-1.8l10-24.4-4.9-.7c1.3,16.3,2.6,32.6,4,48.9s.7,2.1,1.8,2.4,2.4-.2,2.8-1.1c4.5-9.5,9-19.1,13.5-28.6l-4.6-.6c1.2,7.8.9,15.8.6,23.7s4.9,3.2,5,0h0Z"/>
  <path class="st0" d="M120.3,129.4c-6,.3-12.1.3-18.1-.4s-3.4-.9-4.2-2.8-.9-3.8-1-5.7c-.4-6-.9-12-1.3-18s-.4-6.1-.6-9.1-.2-2.8-.3-4.2-.5-3-.2-4.3.3-.6.8-.6c.9,0,1.8.1,2.7.4,2.9.7,5.7,1.4,8.6,2,5.8,1.1,11.6,1.9,17.4,2.3s11.6.5,17.4.2,2.5,0,2.5,0c0,.2-.3-.4-.4-.4-.1,0-.2.5-.2.7-.3.8-.5,1.5-.8,2.3-1,2.9-2,5.7-3.1,8.6s-2,6-3.2,8.9-.8,1.8-1.6,2.3-2.5.5-3.6.4c-4.3-.5-8.5-3.5-10.2-7.5s-1.7-2.1-3.1-1.7-2.3,1.8-1.7,3.1c2.1,5.1,6.3,9.1,11.7,10.6s5.9,1,8.6,0,4.1-3.9,5.1-6.6,2.4-6.6,3.5-9.9,1.1-3.1,1.7-4.6,1.3-3.3,1.7-4.9c.9-3.6-1.6-6-5-6.1s-6.5.3-9.7.3c-6.6,0-13.2-.5-19.8-1.5s-6.6-1.1-9.8-1.8-5.7-1.8-8.6-1.7-5.6,2.3-5.8,5.6.1,3.1.2,4.6.3,3.6.4,5.4c.5,6.9,1,13.8,1.5,20.7s-.1,14.1,5.8,17.2,7.5,1.5,11,1.7,7.9.2,11.9,0,3.2-5.1,0-5h0Z"/>
  <path class="st0" d="M122.5,86.6c-1.9-18.2-6.2-36-12.9-53s-4-9.6-6.2-14.3l-2.2,3.8c5.9.2,11.7.4,17.6.6s2.7,0,4.1.1,1.1.1,1.3,1c.8,2.8,1.4,5.7,2.2,8.6,2.9,11.5,5.9,23,8.7,34.5s2.7,12.7,2.3,19.2,4.3,3.4,4.9.7c2.5-11.4,4.2-23,5.1-34.6s.7-11.7.7-17.6,0-5.8-.2-8.7-.2-2.4-.1-3.6,0-.7.1-.9c-.3.3.2,0,.5,0,5.9,0,11.9.2,17.8.3s2.8,0,4.2,0,2.6-.3,3.2.3.4,1.5.4,2c.1,1.3.2,2.7.2,4,.4,10.2-.8,20.5-3.4,30.4s-7.8,21.6-14.2,31.1c-1.8,2.7,2.5,5.2,4.3,2.5,12.4-18.4,18.9-40.7,18.3-62.9,0-2.6,0-5.5-.7-8s-3.3-4.3-6.3-4.4c-6.4-.3-12.8-.2-19.3-.4s-6.6-.8-8.8,1.3-1.5,5-1.4,7.5c.2,6.2.2,12.4,0,18.6-.6,14-2.4,27.8-5.4,41.5l4.9.7c.4-6.3-.6-12.5-2-18.6s-3-12.2-4.6-18.2c-1.6-6.2-3.1-12.4-4.7-18.7s-1.3-6-2.3-8.8-1.2-2.5-2.4-3.2-2.7-.8-4.2-.8c-7-.2-14-.5-21-.7s-2.9,2.1-2.2,3.8c7.6,15.8,13.1,32.7,16.3,50s1.6,9.8,2.2,14.8,1,2.5,2.5,2.5,2.6-1.1,2.5-2.5h0Z"/>
  <path class="st0" d="M161,92.8c2.8-5.7,6.6-13.5,13.8-14.2s4.5.2,6.7.5,4.9.7,7.3,1,4.9.7,7.3,1,2.4.3,3.7.5,2.5.1,3,.5l-.9-.9c-.2-.3.1-.9-.3,0s-.5,1.2-.8,1.8c-.5,1.2-1.1,2.4-1.6,3.6-1.1,2.3-2.1,4.6-3.2,6.9s-2.1,4.7-3.2,7-1.8,3.8-3.4,5c-2.9,2.3-7.2,2.1-10.7,2.1s-3.4.1-4.2-.9-.5-3.6-.3-4.9c.7-4.2,3.2-7.9,6.8-10.1s.2-6-2.5-4.3-6.5,5.7-8.1,9.7-2.5,9.6.4,12.9,8.1,2.8,11.8,2.6,8.8-1.4,11.7-4.9,2.5-3.9,3.4-6,2.3-4.9,3.4-7.4,2.2-4.8,3.3-7.2,1.1-2.4,1.6-3.6,1-2.4.7-3.7c-.7-2.8-3.8-2.8-6.1-3.1s-5.4-.7-8-1.1-5.2-.7-7.8-1-5.3-.8-8-.9c-4.9-.2-9.4,1.7-12.8,5.2s-5.4,7.4-7.4,11.5-.3,2.7.9,3.4,2.8.3,3.4-.9h0Z"/>
  <path class="st0" d="M202.3,90.7c3.5.8,6.9,1.5,10.4,2.3s1.3.3,1.6.5c.1,0,.2.1.3.2.1,0,.1,0,0,0,0-.1-.2-.3-.2-.5,0-.6.3-.5-.3,0s-.5.4-.8.7c-.5.4-1.1.9-1.6,1.3-5,3.8-10.5,6.9-16.4,9s-2.1,1.7-1.7,3.1,1.8,2.2,3.1,1.7c7.3-2.7,14.1-6.5,20.1-11.5s3.1-3,2.6-5.2-2.1-3-3.8-3.7-3.7-.9-5.6-1.3l-6.4-1.4c-1.3-.3-2.7.4-3.1,1.7s.4,2.8,1.7,3.1h0Z"/>
  <path class="st0" d="M208.2,105c4.5,11.9-2.2,24.7-11.7,31.9-12.1,9.2-28.6,9.7-43.2,9s-7.8-.9-11.6-.4-6.5,3.3-8.2,6.8c-3.1,6.1-6.7,11.7-11.4,16.7-9.6,10.2-21.9,17.6-34.9,22.6-15.6,6-32.2,9-48.6,11.6s-4.1.6-6.2,1-2.1,4.1,0,4.8c8.6,2.7,17.3-1.6,24.5-6.1,7.9-4.9,15.6-10.2,23.1-15.6s14.1-10,20.1-16.2,5.4-6.1,7.5-9.7,3-6.1,4.3-9.2c2.5-5.8,5.3-13,11.7-15s1.8-5.8-1.3-4.8c-6.3,2-10.1,7.4-12.8,13.1s-5,12.6-9.3,18-11.5,11.3-18,16-15,10.8-22.8,15.8-16.5,11.6-25.6,8.8v4.8c16.9-2.6,33.8-5.2,50-10.8,14.1-4.8,27.5-11.9,38.4-22.1,5.2-4.9,9.8-10.5,13.3-16.6.9-1.6,1.7-3.2,2.5-4.8s1.4-2.7,2.6-3.6,3.4-.7,5-.6,3.9.3,5.9.4c15.4.8,32.6.5,45.9-8.4,11.1-7.4,19.3-20.7,17-34.3s-.7-3.1-1.2-4.5-1.7-2.1-3.1-1.7-2.2,1.8-1.7,3.1h0Z"/>
</svg>