<?xml version="1.0" encoding="UTF-8"?>
<svg id="Layer_2" xmlns="http://www.w3.org/2000/svg" version="1.1" viewBox="0 0 251.8 221.8">
  <!-- Generator: Adobe Illustrator 29.8.2, SVG Export Plug-In . SVG Version: 2.1.1 Build 3)  -->
  <defs>
    <style>
      .st0 {
        fill: #002566;
      }

      .st1 {
        fill: #53c5f1;
      }
    </style>
  </defs>
  <path class="st1" d="M128.6,136.3c.3-8.3.5-16.6-.7-24.8s-2.8-1.8-3.4-.4c-4.5,9.5-9,19.1-13.5,28.6l3.5.9c-1.3-16.3-2.6-32.6-4-48.9s-2.9-2.5-3.7-.5c-3.3,8.1-6.6,16.3-10,24.4l3.7.5c-.2-12.2-.3-24.3-.5-36.5h-3.8c1.4,12.9,4.6,25.5,9.6,37.5s2.6,6,4.1,8.9,2.5,6,5.7,5.4,3.6-3.8,4.2-6.2c.8-3.4,1.7-6.9,2.5-10.3,1.9-7.7,3.8-15.4,5.7-23.1l-3.7-.5c-.4,6.7.9,13.3,3.6,19.4s3.4.7,3.5-.9c.6-15.6-1.2-31.3-5.2-46.4s-4-1.6-3.7.5c.7,5.8,2.6,11.3,5.7,16.3,1.1,1.7,4.2.6,3.4-1.4-6.3-18-13.5-35.7-21.3-53.1s-4.5-9.9-6.9-14.8-4.1-.6-3.4,1.4c8.6,25.3,18.9,50.1,30.8,74,3.4,6.7,6.8,13.4,10.5,19.9.8,1.5,3.7.9,3.5-.9-2.5-22-5.8-44-9.9-65.7s-2.4-12.4-3.7-18.5-3.8-1.6-3.7.5c.6,16.4,4.4,32.5,8.8,48.3,1.3,4.6,2.6,9.1,4,13.6l3.6-1c-7.2-18.2-13.7-36.7-19.7-55.3s-3.3-10.5-4.9-15.8l-3.6,1c6.4,16.4,13.5,32.5,21.2,48.3.9,1.9,4.1.6,3.4-1.4-4.4-12.5-9.4-24.7-15.1-36.7s-3.4-.8-3.5.9c-1.2,23.9-1.4,47.8-.5,71.6.2,6.8.6,13.6,1,20.4s3.8,2.4,3.8,0c-.2-18.3-.3-36.6-.5-54.9v-15.5c-1.4.2-2.6.3-3.8.5,5.2,17.7,11.9,35,20,51.6.8,1.7,3.5.8,3.5-.9.3-16.3.6-32.8,3.8-48.9s2-9,3.4-13.4h-3.6c1.4,3.5,1.9,7.2,2.1,10.9s.5,8.2.8,12.3c.5,8.4,1.1,16.7,1.6,25.1.3,4.7.6,9.4.9,14.2s3.7,2.4,3.8,0c.5-22.4.9-44.8,1.4-67.2.1-6.3.3-12.6.4-18.9h-3.8c.3,16.7.6,33.3,1,50l.3,14.2c0,2.4,3.7,2.4,3.8,0,.6-14,1.2-28.7,7.6-41.4l-3.5-.9c.7,10-.3,20-1.6,30s-2.6,20.1-3.9,30.2c-.7,5.8-1.5,11.6-2.2,17.3h3.8c.6-17.9,5.4-35.6,13.8-51.5l-3.5-.9c-2.2,16.8-4.4,33.5-6.6,50.3l-1.9,14.3c-.3,2,2.6,2.3,3.5.9,6.1-9.4,12.9-19.9,23.7-24.3l-2.3-2.3c-5.8,19.8-11.7,39.6-17.5,59.5-.7,2.4,2.7,3.2,3.6,1,9.2-22.8,18.9-45.3,29.2-67.6,2.7-5.8,5.6-11.6,9.5-16.8l-3.5-.9c-1.9,16-4.5,31.9-7.8,47.7l3.7.5c.2-3.7,1.7-7.3,4.2-10.1l-3.2-1.3c-1,12-4.3,23.9-9.5,34.8l3.4.4c-2.1-10-2.4-20.2-1.1-30.3l-3.7.5c.8,4,.6,8.2-.8,12s-1.1,3.8-2.7,3.9-3.4-1.6-4.6-2.6c-6.1-5.1-11.4-11.2-15.7-17.9l-1.1,2.8c2.6-.9,5.6-.9,8.1.4s2.3,1.4,3.2,2.5.1,2.4-1,3.4c-4.9,4.6-11.2,7.9-17.8,9.1-6,1.1-13.2-.3-16.3-6.2s.2-11.1,5.8-11.4,10.8,3.4,13.2,8.3c2.5,4.9,1.4,11.1-2.2,15.2s-4.1,3.7-6.7,4.4-6.2-.9-8.7-3.2c-4.4-4.1-7.7-9.7-8.2-15.7-.5-5.8,1.5-11.9,5.8-15.9s10.4-5.4,15.8-3.6,8.8,6.7,9.7,12.1-1.4,11.3-5.4,15.4-10.6,6.7-16.9,7.5-12,.9-17.7-.5-4.6-1.5-6.6-3-4.5-4.2-3.9-6.5,1.3-1.6,2.2-1.9c1.7-.7,3.5-1,5.2-1.4,3.6-.9,7.2-1.6,10.9-2.3,7.6-1.3,15.3-2.2,23-2.5s3.5-.1,5.3-.2,1.9,0,2.9,0,1.5,0,2,.3.2,1.8,0,2.5c-.5,1.2-1.3,2.2-2.1,3.1-8.6,9.4-19.6,16.7-31.7,20.8-2.9,1-5.9,1.9-9,2.5l1,3.6c-.3,0-.6-.2-.9-.3,0,.1,0,.2,0,.3,0,.2,0,.5,0,.7-.2,1.1-.7,2.3-1.1,3.4-.7,2.2-1.5,4.5-2.2,6.7-1.6,4.5-3.2,9-5,13.5-3.6,9-7.5,17.8-11.8,26.4l3.5.9c-1-10.6,1.6-20.9,4.6-31s6.3-20.1,9.9-30,4.2-11.1,6.4-16.6l-3.6-1c-3.8,11.6-8.3,22.9-13.7,33.8s2,4,3.2,1.9l6.2-10.8-3.2-1.9c-8.3,17.4-18.3,34-29.8,49.5-3.3,4.4-6.7,8.7-10.2,12.9s.8,4.2,2.7,2.7c4-3.5,8-6.9,12-10.4s-.5-4.1-2.3-2.9c-6.3,4.1-12.6,8.1-18.9,12.2l2.3,2.9c6.7-7.7,13.4-15.4,20.1-23.1l9.9-11.5c2.9-3.3,6.3-6.7,7-11.2s-1.2-3.1-2.8-2.1c-12.3,7.6-23.1,17.5-31.9,29s1.6,3.9,2.9,2.3c11.2-13.9,23.2-27.2,35.9-39.8l-2.7-2.7c-13.5,13.8-27.5,27.1-41.9,39.9s.5,4.2,2.3,2.9c13.1-9.5,24.8-20.7,34.8-33.4,10-12.7,18.3-26.7,24.5-41.7,3.5-8.4,6.3-17,8.5-25.8l-3.7-.5c.8,10.3-1.2,20.6-2.9,30.7-1.7,10.3-2.9,20.7-3.4,31.1s-.4,11.8-.3,17.6,2.7,2.7,3.5.9c6.5-14.5,13-29.1,21.3-42.7s4.9-7.6,7.6-11.3l-3.5-.9c-1.1,8.1-3.4,16.1-6.8,23.6s1.3,3.7,2.9,2.3c4.8-4.2,10.4-7.4,16.4-9.4s1.3-4.3-1-3.6c-9.3,2.7-18.7,4.4-28.3,5.1l.5,3.7c11.2-3.8,22.8-6.5,34.5-8.1s1.6-3.8-.5-3.7l-11.6.5c-2.4,0-2.4,3.5,0,3.8,11.5,1,23,0,34.2-2.7s1.5-1.3,1.3-2.3c-1.5-9-3-18-4.4-27s-.6-8.3-4.6-9.7-7.3,0-10.6.6-7.4,1.5-10.2-.9l-1.3,3.2c7.2-.7,14.3-1.5,21.5-2.2s2.8-2.6.9-3.5c-9.5-4.9-20.2-7.4-30.9-7s-2.4,3.7,0,3.8c8.3.3,16.6.7,24.9,1v-3.8c-14.6.9-29,2.7-43.4,5.4l2.1,2.8c7-15.2,10.1-32,8.8-48.7s-1.1-9.4-2.1-14l-1.8,2.4c3.9-.2,8.2-.4,11.7,1.3s4.9,4.1,4.9,7.7-.7,8.4-1.3,12.5-1.4,8.6-2.2,12.9l3.7.5c0-16.9.2-33.9.2-50.8s-2.7-2.7-3.5-.9c-1.9,4.1-5,7.4-9,9.5s-4,2-5.1,4.1-.9,4.4.7,6.1,3.5,0,3.1-1.8c-.6-2.8-1.2-5.7-1.8-8.5s-1.2-1.5-2.1-1.3-1.5.9-1.6,1.8c-1.4,10.5-2.8,21-4.2,31.6s1,1.9,1.9,1.9,1.7-.9,1.9-1.9c1.4-10.5,2.8-21,4.2-31.6l-3.7.5c.6,2.8,1.2,5.7,1.8,8.5l3.1-1.8c-1.1-1.1.8-2.6,1.6-3.1,1.7-1,3.4-1.8,5-3,3.2-2.4,5.7-5.4,7.4-9l-3.5-.9c0,16.9-.2,33.9-.2,50.8s3.2,2.6,3.7.5c1-4.8,1.8-9.5,2.4-14.3s.6-4.8.9-7.2.5-4.7.2-7.1c-.6-3.9-3.2-7-6.7-8.7s-8.9-2-13.5-1.8-2.1,1.2-1.8,2.4c3.5,15.5,2.9,31.8-1.5,47-1.3,4.4-2.9,8.6-4.8,12.8s.4,3.1,2.1,2.8c14-2.6,28.2-4.4,42.4-5.3s2.4-3.7,0-3.8c-8.3-.3-16.6-.7-24.9-1v3.8c10.1-.3,20.1,1.9,29,6.5l.9-3.5c-7.2.7-14.3,1.5-21.5,2.2s-2.7,2-1.3,3.2c5.6,4.9,12.8,1.5,19.3,1s3.2-.4,3.9.9.9,3.7,1.1,5.4l2.1,13,2.5,15,1.3-2.3c-10.9,2.7-22.1,3.6-33.2,2.6v3.8l11.6-.5-.5-3.7c-11.7,1.6-23.3,4.3-34.5,8.1s-1.7,3.8.5,3.7c9.9-.7,19.8-2.4,29.3-5.2l-1-3.6c-6.7,2.2-12.8,5.7-18,10.4l2.9,2.3c3.7-8.1,6.1-16.6,7.3-25.5s-.7-1.6-1.4-1.8-1.6.2-2.1.9c-9.4,12.8-16.7,27.1-23.3,41.5s-3.8,8.3-5.6,12.5l3.5.9c-.2-10.5.2-20.9,1.3-31.3,1.1-10.4,3.2-20.5,4.5-30.8s1.1-11.5.7-17.3-3.2-2.7-3.7-.5c-3.7,15.3-9.6,30.1-17.3,43.8-7.7,13.7-17.3,26.4-28.5,37.5-6.3,6.3-13.1,12.1-20.3,17.4l2.3,2.9c14.4-12.8,28.4-26.1,41.9-39.9s-.9-4.4-2.7-2.7c-12.7,12.6-24.7,25.9-35.9,39.8l2.9,2.3c8.4-11,18.8-20.3,30.5-27.6l-2.8-2.1c-.7,4.3-4.3,7.5-7,10.7l-9.6,11.1c-6.5,7.5-12.9,14.9-19.4,22.4s.4,4.2,2.3,2.9c6.3-4.1,12.6-8.1,18.9-12.2l-2.3-2.9-12,10.4,2.7,2.7c12.5-15,23.6-31.2,33-48.3s5.2-9.8,7.6-14.8-2-4-3.2-1.9l-6.2,10.8,3.2,1.9c5.5-11.2,10.2-22.8,14.1-34.7s-2.7-3.2-3.6-1c-4,9.8-7.7,19.8-11.1,29.8s-6.9,20.4-8.9,30.9-1.7,11.9-1.2,17.9,2.6,2.8,3.5.9c7.7-15.4,14.3-31.4,19.6-47.9s1.4-3.7.9-5.7-1.9-3.2-3.8-2.6-1.4,4.1,1,3.6c14.7-3.2,28.4-10.7,39.2-21.1s5.2-4.9,6.3-8.3-.6-6.8-4.4-7.2-4.3,0-6.3,0-4.5.2-6.7.3c-4.5.3-9,.8-13.4,1.4s-8.7,1.4-13.1,2.3-4.4,1-6.6,1.5-3.5.8-5,1.7c-3.6,2-4,6-2.1,9.4s3.8,4.9,6.5,6.4c5.7,3.1,12.5,3.6,18.8,3.3s16-1.7,22.5-6.8c5.4-4.3,9.1-10.7,9.1-17.7s-3.4-13.7-9.4-16.9-14.3-2.8-20.1,1.2-9.2,11-9.5,18,3.1,14.5,8.1,19.8,5.9,5.5,9.9,5.8,7.5-1.6,10.3-3.9c5.1-4.3,7.7-11.7,5.9-18.2s-7.3-11.9-13.9-13.2-7.5-.4-10.5,2.1-3.8,5.4-3.9,8.7c-.2,7.2,6.3,12.8,13,14s16.7-1.7,23.3-6.1,3.3-2.4,4.7-3.7,2.8-2.8,2.9-4.8c.3-3.7-3.6-6.5-6.6-7.8s-6.7-1.4-9.9-.3-1.8,1.7-1.1,2.8c4,6.3,8.9,12.1,14.5,17.1s5.6,5.4,9.2,5.2,5.5-4.4,6.5-7.7,1.3-8.7.4-13-1.2-1.5-2.1-1.3-1.5.9-1.6,1.8c-1.4,10.4-1,21,1.2,31.3s2.7,1.9,3.4.4c5.5-11.5,8.9-23.9,10-36.7s-2.2-2.5-3.2-1.3c-3.2,3.6-5,8-5.3,12.8s3.3,2.6,3.7.5c3.4-16.1,6-32.4,8-48.7s-.7-1.6-1.4-1.8-1.6.2-2.1.9c-3.5,4.6-6.1,9.7-8.6,14.9-2.6,5.5-5.1,11.1-7.6,16.7-5.1,11.3-10,22.7-14.8,34.2s-5.4,13-8,19.5l3.6,1c5.8-19.8,11.7-39.6,17.5-59.5s-1-2.9-2.3-2.3c-11.9,4.8-19.3,15.7-26,26.1l3.5.9c2.2-16.8,4.4-33.5,6.6-50.3l1.9-14.3c.2-1.9-2.7-2.5-3.5-.9-8.7,16.5-13.6,34.8-14.3,53.4s.9,1.9,1.9,1.9,1.7-.9,1.9-1.9c1.3-10.1,2.6-20.2,3.9-30.2s2.8-20,3.6-30.1c.5-5.7.6-11.5.2-17.2s-2.6-2.7-3.5-.9c-6.8,13.4-7.5,28.6-8.1,43.3h3.8c-.3-16.7-.6-33.3-1-50l-.3-14.2c0-2.4-3.7-2.4-3.8,0-.5,22.4-.9,44.8-1.4,67.2s-.3,12.6-.4,18.9h3.8c-1.1-16.9-2.2-33.8-3.3-50.7s-.7-8.7-2.3-12.8-3-1.9-3.6,0c-5.1,15.9-6.5,32.6-7.1,49.2s-.3,9.4-.4,14.1l3.5-.9c-8-16.3-14.5-33.3-19.7-50.8s-3.7-1.7-3.7.5c.2,18.3.3,36.6.5,54.9v15.5h3.9c-1.5-23.8-1.9-47.8-1.3-71.6s.4-13.6.8-20.4l-3.5.9c5.5,11.7,10.5,23.6,14.7,35.8l3.4-1.4c-7.6-15.5-14.5-31.3-20.8-47.4s-4.3-1.4-3.6,1c5.6,18.8,11.8,37.3,18.6,55.7s3.9,10.3,5.9,15.4,4.3,1.4,3.6-1c-4.6-15.5-9.2-31.1-11.5-47.1-.6-4.6-1-9.2-1.2-13.8l-3.7.5c4.5,21.4,8.2,43.1,11.2,64.8.8,6.2,1.6,12.3,2.3,18.5l3.5-.9c-12.7-23.2-23.9-47.2-33.3-71.9-2.7-7-5.2-14.1-7.6-21.2l-3.4,1.4c8.1,17,15.6,34.3,22.3,51.9,1.9,5,3.8,10.1,5.5,15.1l3.4-1.4c-2.7-4.4-4.6-9.3-5.2-14.4l-3.7.5c3.9,14.8,5.6,30.1,5,45.4l3.5-.9c-2.4-5.5-3.4-11.5-3.1-17.5s-3.2-2.5-3.7-.5c-1.5,6.2-3,12.3-4.5,18.5s-1.5,6.2-2.3,9.4-.7,2.9-1.1,4.3-.5,2.8-1.1,4-.5.5-.5.7c0-.3.3.3.2,0s-.3-.5-.3-.4c-.8-1.3-1.4-2.6-2-3.9-1.3-2.6-2.5-5.2-3.6-7.8-2.2-5.4-4.1-10.9-5.6-16.5s-2.9-12.8-3.6-19.3-3.8-2.5-3.8,0c.2,12.2.3,24.3.5,36.5s2.9,2.4,3.7.5c3.3-8.1,6.6-16.3,10-24.4l-3.7-.5c1.3,16.3,2.6,32.6,4,48.9s2.6,2.8,3.5.9c4.5-9.5,9-19.1,13.5-28.6l-3.4-.4c1.2,7.9.9,15.9.6,23.9s3.7,2.4,3.7,0h0Z"/>
  <path class="st0" d="M120.3,129.4c-6,.3-12.1.3-18.1-.4s-3.4-.9-4.2-2.8-.9-3.8-1-5.7c-.4-6-.9-12-1.3-18s-.4-6.1-.6-9.1-.2-2.8-.3-4.2-.5-3-.2-4.3.3-.6.8-.6c.9,0,1.8.1,2.7.4,2.9.7,5.7,1.4,8.6,2,5.8,1.1,11.6,1.9,17.4,2.3s11.6.5,17.4.2,2.5,0,2.5,0c0,.2-.3-.4-.4-.4-.1,0-.2.5-.2.7-.3.8-.5,1.5-.8,2.3-1,2.9-2,5.7-3.1,8.6s-2,6-3.2,8.9-.8,1.8-1.6,2.3-2.5.5-3.6.4c-4.3-.5-8.5-3.5-10.2-7.5s-1.7-2.1-3.1-1.7-2.3,1.8-1.7,3.1c2.1,5.1,6.3,9.1,11.7,10.6s5.9,1,8.6,0,4.1-3.9,5.1-6.6,2.4-6.6,3.5-9.9,1.1-3.1,1.7-4.6,1.3-3.3,1.7-4.9c.9-3.6-1.6-6-5-6.1s-6.5.3-9.7.3c-6.6,0-13.2-.5-19.8-1.5s-6.6-1.1-9.8-1.8-5.7-1.8-8.6-1.7-5.6,2.3-5.8,5.6.1,3.1.2,4.6.3,3.6.4,5.4c.5,6.9,1,13.8,1.5,20.7s-.1,14.1,5.8,17.2,7.5,1.5,11,1.7,7.9.2,11.9,0,3.2-5.1,0-5h0Z"/>
  <path class="st0" d="M122.5,86.6c-1.9-18.2-6.2-36-12.9-53s-4-9.6-6.2-14.3l-2.2,3.8c5.9.2,11.7.4,17.6.6s2.7,0,4.1.1,1.1.1,1.3,1c.8,2.8,1.4,5.7,2.2,8.6,2.9,11.5,5.9,23,8.7,34.5s2.7,12.7,2.3,19.2,4.3,3.4,4.9.7c2.5-11.4,4.2-23,5.1-34.6s.7-11.7.7-17.6,0-5.8-.2-8.7-.2-2.4-.1-3.6,0-.7.1-.9c-.3.3.2,0,.5,0,5.9,0,11.9.2,17.8.3s2.8,0,4.2,0,2.6-.3,3.2.3.4,1.5.4,2c.1,1.3.2,2.7.2,4,.4,10.2-.8,20.5-3.4,30.4s-7.8,21.6-14.2,31.1c-1.8,2.7,2.5,5.2,4.3,2.5,12.4-18.4,18.9-40.7,18.3-62.9,0-2.6,0-5.5-.7-8s-3.3-4.3-6.3-4.4c-6.4-.3-12.8-.2-19.3-.4s-6.6-.8-8.8,1.3-1.5,5-1.4,7.5c.2,6.2.2,12.4,0,18.6-.6,14-2.4,27.8-5.4,41.5l4.9.7c.4-6.3-.6-12.5-2-18.6s-3-12.2-4.6-18.2c-1.6-6.2-3.1-12.4-4.7-18.7s-1.3-6-2.3-8.8-1.2-2.5-2.4-3.2-2.7-.8-4.2-.8c-7-.2-14-.5-21-.7s-2.9,2.1-2.2,3.8c7.6,15.8,13.1,32.7,16.3,50s1.6,9.8,2.2,14.8,1,2.5,2.5,2.5,2.6-1.1,2.5-2.5h0Z"/>
  <path class="st0" d="M161,92.8c2.8-5.7,6.6-13.5,13.8-14.2s4.5.2,6.7.5,4.9.7,7.3,1,4.9.7,7.3,1,2.4.3,3.7.5,2.5.1,3,.5l-.9-.9c-.2-.3.1-.9-.3,0s-.5,1.2-.8,1.8c-.5,1.2-1.1,2.4-1.6,3.6-1.1,2.3-2.1,4.6-3.2,6.9s-2.1,4.7-3.2,7-1.8,3.8-3.4,5c-2.9,2.3-7.2,2.1-10.7,2.1s-3.4.1-4.2-.9-.5-3.6-.3-4.9c.7-4.2,3.2-7.9,6.8-10.1s.2-6-2.5-4.3-6.5,5.7-8.1,9.7-2.5,9.6.4,12.9,8.1,2.8,11.8,2.6,8.8-1.4,11.7-4.9,2.5-3.9,3.4-6,2.3-4.9,3.4-7.4,2.2-4.8,3.3-7.2,1.1-2.4,1.6-3.6,1-2.4.7-3.7c-.7-2.8-3.8-2.8-6.1-3.1s-5.4-.7-8-1.1-5.2-.7-7.8-1-5.3-.8-8-.9c-4.9-.2-9.4,1.7-12.8,5.2s-5.4,7.4-7.4,11.5-.3,2.7.9,3.4,2.8.3,3.4-.9h0Z"/>
  <path class="st0" d="M202.3,90.7c3.5.8,6.9,1.5,10.4,2.3s1.3.3,1.6.5c.1,0,.2.1.3.2.1,0,.1,0,0,0,0-.1-.2-.3-.2-.5,0-.6.3-.5-.3,0s-.5.4-.8.7c-.5.4-1.1.9-1.6,1.3-5,3.8-10.5,6.9-16.4,9s-2.1,1.7-1.7,3.1,1.8,2.2,3.1,1.7c7.3-2.7,14.1-6.5,20.1-11.5s3.1-3,2.6-5.2-2.1-3-3.8-3.7-3.7-.9-5.6-1.3l-6.4-1.4c-1.3-.3-2.7.4-3.1,1.7s.4,2.8,1.7,3.1h0Z"/>
  <path class="st0" d="M208.2,105c4.5,11.9-2.2,24.7-11.7,31.9-12.1,9.2-28.6,9.7-43.2,9s-7.8-.9-11.6-.4-6.5,3.3-8.2,6.8c-3.1,6.1-6.7,11.7-11.4,16.7-9.6,10.2-21.9,17.6-34.9,22.6-15.6,6-32.2,9-48.6,11.6s-4.1.6-6.2,1-2.1,4.1,0,4.8c8.6,2.7,17.3-1.6,24.5-6.1,7.9-4.9,15.6-10.2,23.1-15.6s14.1-10,20.1-16.2,5.4-6.1,7.5-9.7,3-6.1,4.3-9.2c2.5-5.8,5.3-13,11.7-15s1.8-5.8-1.3-4.8c-6.3,2-10.1,7.4-12.8,13.1s-5,12.6-9.3,18-11.5,11.3-18,16-15,10.8-22.8,15.8-16.5,11.6-25.6,8.8v4.8c16.9-2.6,33.8-5.2,50-10.8,14.1-4.8,27.5-11.9,38.4-22.1,5.2-4.9,9.8-10.5,13.3-16.6.9-1.6,1.7-3.2,2.5-4.8s1.4-2.7,2.6-3.6,3.4-.7,5-.6,3.9.3,5.9.4c15.4.8,32.6.5,45.9-8.4,11.1-7.4,19.3-20.7,17-34.3s-.7-3.1-1.2-4.5-1.7-2.1-3.1-1.7-2.2,1.8-1.7,3.1h0Z"/>
</svg>