<?xml version="1.0" encoding="UTF-8"?>
<svg id="Layer_2" xmlns="http://www.w3.org/2000/svg" version="1.1" viewBox="0 0 204 91.4">
  <!-- Generator: Adobe Illustrator 29.8.2, SVG Export Plug-In . SVG Version: 2.1.1 Build 3)  -->
  <defs>
    <style>
      .st0 {
        fill: #ff0049;
      }

      .st1 {
        fill: #ffe98a;
        stroke: #231f20;
        stroke-miterlimit: 10;
        stroke-width: .7px;
      }

      .st2 {
        fill: #231f20;
      }

      .st3 {
        fill: #f0f;
      }

      .st4 {
        fill: blue;
      }
    </style>
  </defs>
  <g>
    <path class="st0" d="M71.9,50.4c.8,5,1.8,11.3,6.2,14.3,2.7,1.6,5.9,2.2,8.6,3.9,5.5,3.8,6.3,8.9,14.5,7.8,7.2-1.3,14.3-3.7,21.6-3.1,7.6.3,14.9,3.7,22.5,4.1,3,.3,5.1-1.8,7.5-3.3,5.3-2.2,11.6-.1,17.2-.9,7.3-.5,14-3.3,20.9-5.7,2.5-.9,6.1-1.7,6.2-4.9-.7-7.6-10-14.7-16.4-18-14.8-7.1-31.3,4.7-47,1-3.9-.7-7.7-1.8-11.5-2.7-12.4-2.9-25.4-4-38.1-3.3-14,1.7-13.1,6.9-10.9,19"/>
    <path class="st2" d="M71,50.6c.7,4.3,1.4,9,4.2,12.6s8.8,4.1,12.5,7.4,4.8,5.6,8.4,6.5,4.5.3,6.7-.1,6.1-1.3,9.1-1.9c6.1-1.2,12-1.2,18.1.2s5.7,1.5,8.5,2.1,5.5,1.3,8.2.9,4.1-1.9,6-3.1,5.6-1.3,8.2-1.2,5.7.4,8.6.1,5.6-.7,8.4-1.4c5.3-1.4,10.6-3.3,15.6-5.3s3.5-1.7,4.2-3.5-.1-4.1-.9-5.8c-1.9-4.2-5.5-7.6-9.1-10.4s-7.7-5.2-12.3-6.1c-10.1-2-20.1,2-30.1,3.2s-5.1.4-7.6.2-5.7-.9-8.4-1.6c-6-1.4-12-2.9-18.2-3.8s-12.3-1.3-18.5-1.4-10.3-.1-15.2,1.6-4.9,2.3-5.9,4.9-.8,5.7-.4,8.5.6,3.7.9,5.6,2.2.7,1.9-.5c-.6-3.2-1.3-6.5-1.2-9.8s.8-4.3,2.8-5.6c3.2-2,7.4-2.4,11-2.5,5.8-.2,11.7,0,17.5.5s11.9,1.5,17.7,2.9,10.6,3,16,3.4c9.8.7,19.1-3.1,28.7-3.8s9.6,0,13.8,2.2,7.5,4.7,10.5,7.8,2.9,3.3,3.9,5.3,1.9,4,.5,5.6-3.2,1.7-4.8,2.3c-2.7,1-5.4,2-8.1,2.9-5.3,1.8-10.9,3.1-16.5,3s-10.5-1.3-14.7,1.5-3.7,2.7-6.3,2.5-5.6-.8-8.3-1.4c-5.4-1.3-10.7-2.8-16.2-2.7s-11.1,1.5-16.6,2.7-4.9,1.1-7.3.4-2.8-1.4-4-2.5-2.5-2.7-3.9-3.8-3.7-2.4-5.8-3.2-4.6-1.7-6.2-3.7-2.1-3.8-2.7-5.9-.9-4-1.2-6.1-2.1-.7-1.9.5h0Z"/>
  </g>
  <g>
    <path class="st4" d="M75,52.4c1.7,8.4,10.7,14.6,19.2,13.1,2.7-.5,5.2-1.6,7.9-2.1,9.4-2,18.7,2.6,28.2,3.9,4.7.7,9.5.6,14.2.4,9.1-.2,18.2-.5,27.2-.7,1.8,0,3.6-.1,5.2-.8,3.8-1.6,5.4-6.7,3.7-10.4s-5.9-6-10-5.8c-3.7.1-7.2,1.9-10.8,2.3-5.9.6-8.4,2.4-14,.1-6.1-2.5-12.7-3.9-19.3-4.2-2.8-.1-5.7,0-8.5-.3-5.5-.6-13.7-7.7-19.2-8.6-5.5-.9-11.5-.5-16.4,2.3s-8.6,8-8.3,13.6"/>
    <path class="st2" d="M74,52.7c1.5,6.8,7.3,12.2,14.1,13.7s7.4,0,11.2-1.1,9-1.6,13.7-.7,9,2.2,13.5,3.2,9.5,1.3,14.3,1.2c10-.1,20-.5,29.9-.7s7.7-.3,10-3.9,2-6.3.6-9.2-4.8-5.2-8.2-5.8-8.2,1.2-12.3,1.9-4.1.5-6.1.9-3.3.6-5,.4-4.3-1.3-6.4-2-4.4-1.4-6.7-1.9c-4.6-1-9.2-1.3-13.9-1.3s-4.1,0-6-.5-3.1-1.2-4.6-2c-3.1-1.7-6.1-3.6-9.3-5.1s-6.8-1.8-10.3-1.7c-7.9.3-15.6,4.3-18.5,12s-.9,3.5-.9,5.3,2,1.3,2,0c-.2-8,6.8-13.6,14.1-15s7.6-.7,11,.4,5.7,2.8,8.4,4.3,5.3,3.1,8.3,3.7,8.2.3,12.3.6,8.7,1.3,12.8,2.7,6.7,2.7,10.5,2.3,3.3-.6,5-.8,4.1-.5,6.1-1c3.8-1,7.5-2.3,11.3-.7s5.4,4.2,5.2,7.6-.7,3.2-1.8,4.4-3.1,2-5,2.1c-4.5.3-9.1.3-13.7.4s-9.2.2-13.9.4c-4.6.1-9.2.3-13.8-.2s-8.7-1.7-13-2.8-8-1.9-12.1-1.9-4,.2-6,.7-4.1,1.3-6.1,1.8c-6.7,1.5-13.8-1.9-17.3-7.7s-1.4-2.9-1.8-4.5-2.2-.7-1.9.5h0Z"/>
  </g>
  <g>
    <path class="st3" d="M76.6,53.7c1.5-.1,2.8,1,3.7,2.2s1.7,2.6,2.9,3.5c2.4,1.8,5.8,1.1,8.8.3,6.1-1.6,12.4-3.2,18.6-2.1,3.2.5,6.2,1.7,9.3,2.4,3.7.9,7.4,1.2,11.2,1.4,2.2.1,4.5.2,6.6-.3s4.2-1.8,5.3-3.7c.6-1.1.7-2.7-.3-3.5-.4-.3-.9-.4-1.4-.5-10.6-2.2-21.3,0-31.9-2.1-6.1-1.3-12-6.9-18.2-6.2s-12.4,3.7-15.4,9.1"/>
    <path class="st2" d="M76.6,54.7c2.6,0,3.7,3.2,5.3,4.8s3.6,2,5.7,1.9,4.7-.9,6.9-1.4,5.7-1.4,8.6-1.7,5.8-.2,8.6.4,5,1.4,7.5,2.1,5.4,1.1,8.1,1.3,5.7.6,8.5.3,9.1-2.7,8.6-7.3-2.7-2.8-4.8-3.1-5.5-.6-8.2-.7c-5.7-.2-11.5.2-17.2-.4s-5.2-.7-7.6-1.6-4.2-2-6.3-3-4.5-2-6.9-2.3-4.9.3-7.2,1c-4.6,1.5-8.8,4.3-11.2,8.5s1.1,2.1,1.7,1c2.1-3.6,5.6-6.1,9.5-7.4s3.9-1.2,5.9-1.2,4.1.6,5.9,1.5c3.8,1.7,7.4,4,11.6,4.9s10.1,1,15.2,1,10.7,0,15.9,1,1.9.6,1.6,1.9-1.1,2-1.9,2.6c-2,1.5-4.6,1.8-7,1.7-5,0-10.2-.6-15.1-2s-4.7-1.5-7.1-1.9-4.8-.5-7.3-.4-5.5.7-8.2,1.4-5.2,1.6-7.9,1.8-2.4,0-3.4-.4-2-1.7-2.7-2.8c-1.3-1.8-2.8-3.5-5.2-3.5s-1.3,2,0,2h0Z"/>
  </g>
  <path class="st1" d="M55,28.9L6.4,81.1s33.1-19.9,67.2-28l-18.6-24.2Z"/>
  <g>
    <path class="st0" d="M56.5,29.9l16.8-19.8,7.9-3.7,9.2.2s12.1,7.4,14.4,11.4,3.5,11.6-.2,19.1-14.6,15.6-19.1,15.9-10.6-.2-10.6-.2l-18.4-22.9Z"/>
    <path class="st2" d="M58.2,23.8c-13,15.6-26.8,30.5-41.4,44.6s-8.4,7.9-12.6,11.8.5,3.8,2,2.6c15.2-11.6,34.3-16.7,52.1-22.7,5.7-1.9,11.3-3.8,17-5.7s1.5-1.8.7-2.8c-6.6-8-13.2-15.9-19.9-23.9s-2.5-.4-2.8.7c-3,11.2-3.1,23.1-.4,34.4s3.7,1.2,3.2-.9c-2.5-10.7-2.4-21.9.4-32.6l-2.8.7c6.6,8,13.2,15.9,19.9,23.9l.7-2.8c-10.1,3.4-20.3,6.8-30.4,10.3-8.8,3-17.7,6.1-26.1,10.3s-9.2,5.1-13.4,8.3l2,2.6c15-13.6,29.3-28.1,42.7-43.3s7.6-8.7,11.3-13.1-1-4-2.3-2.3h0Z"/>
    <path class="st2" d="M49.2,62.4c-3.1-4.9-5-10.4-5.8-16.1s-1.3-1.4-2-1.2-1.3,1.2-1.2,2c.8,6,3,11.8,6.2,16.9s4,.1,2.9-1.7h0Z"/>
    <path class="st2" d="M33.9,64.1c-.2-.6-.4-1.1-.5-1.7s-.1-.5-.2-.7,0-.3,0-.5h0c0-.3,0-.3,0,0,0,0,0-.7,0-.8,0-.3,0-.5,0-.8,0-.6,0-1.2,0-1.8,0-.9-.8-1.7-1.7-1.7s-1.6.7-1.7,1.7c-.2,2.4,0,5,.9,7.3s1.1,1.5,2,1.2,1.5-1.2,1.2-2h0Z"/>
    <path class="st2" d="M25.3,61.9c4.7,3.8,11.1,5.1,16.9,3.1s1.2-3.9-.9-3.2c-4.6,1.5-9.9.8-13.7-2.3s-1.7-.7-2.3,0-.7,1.8,0,2.3h0Z"/>
    <path class="st2" d="M33.9,56.2c6.6.8,13.1,2.5,19.2,5s1.8-.4,2-1.2-.3-1.7-1.2-2c-6.4-2.6-13.2-4.3-20.1-5.1s-1.7.8-1.7,1.7.8,1.6,1.7,1.7h0Z"/>
    <path class="st2" d="M39.6,47.8c10.3,3.7,21.1,5.5,32,5.6s2.1-3.3,0-3.3c-10.6,0-21.1-1.9-31.2-5.4s-2.9,2.5-.9,3.2h0Z"/>
    <path class="st2" d="M46.3,39.1c5.1,3.7,11.1,5.9,17.4,6.5s1.7-.8,1.7-1.7-.8-1.6-1.7-1.7c-5.7-.5-11.1-2.7-15.7-6s-1.9-.1-2.3.6-.1,1.7.6,2.3h0Z"/>
    <path class="st2" d="M60.4,39.7c-1.1,5-.9,10.1.7,15s1.1,1.4,2,1.2,1.4-1.2,1.2-2c-1.4-4.3-1.7-8.8-.7-13.2s-.3-1.8-1.2-2-1.8.3-2,1.2h0Z"/>
    <path class="st2" d="M60.7,28.4c5.1-5.7,8.7-13,15-17.5s6.2-3.4,9.8-3.3,7.5,1.7,10.5,3.9c5,3.5,9,9.4,9.2,15.6s-1.2,6.8-3.1,9.7-4.5,6.3-7.4,8.8c-6.2,5.4-15,6.8-22.6,3.7s-1.8.4-2,1.2.3,1.7,1.2,2c7.4,3,16.3,2.2,22.9-2.3s6.4-5.6,8.9-9,4.7-7,5.3-11.3c2.1-15.1-15.8-30.4-30.2-24.2-9.1,3.9-13.5,13.3-19.8,20.3s.9,3.9,2.3,2.3h0Z"/>
  </g>
</svg>