<?xml version="1.0" encoding="UTF-8"?>
<svg id="Layer_2" xmlns="http://www.w3.org/2000/svg" version="1.1" viewBox="0 0 118.2 91.4">
  <!-- Generator: Adobe Illustrator 29.8.2, SVG Export Plug-In . SVG Version: 2.1.1 Build 3)  -->
  <defs>
    <style>
      .st0 {
        fill: #ff0049;
      }

      .st1 {
        fill: #231f20;
      }

      .st2 {
        fill: #ffe98a;
      }
    </style>
  </defs>
  <path class="st0" d="M60.7,24.5c-.1,2-.6,4-1.4,5.9l2.7,1.2.8-2.7-2.9-.8c-.3,2-.2,3.9.5,5.8s2.1,1.6,2.7.4l4.9-9.7-2.8-.8c.4,3.8.6,7.6.5,11.4s2.5,2,2.9.4c.9-3.6,2.3-6.9,4.1-10.1l-2.7-.4c.6,3,.9,6,1,9.1s2.7,2.1,2.9.4c.9-6.1,2.7-12,5.5-17.4l-2.7-.4c1.1,6.1,1.2,12.2.5,18.4l1.1-1.4c.2,0,0,0-.2-.3s-.2-.6-.3-.9c-.2-.9-.3-1.9-.4-2.9-.1-1.8,0-3.7.2-5.5s.8-3.6,1.4-5.3.6-1.9,1.2-2.2,1.9,0,2.6,0,1.9,0,2.9.1,2.2-.2,2.8.4c1,.9.5,3.1,0,4.1-1.4,3.2-4.9,4.3-8.2,4.2s-1.7,0-2.2-.5-.5-2-.6-2.8c-.3-2-.4-4.1-.3-6.1s0-1.7.6-2.2,1.9-.7,2.8-.9c1.9-.5,3.8-1,5.7-1.4s1.8-.4,2.8-.5,1.7-.5,2.3.3c.9,1.2.5,3.1-.1,4.4-1.6,3.1-5.4,4.9-8.4,6.2s-2,.9-3.1,1.3-2.1,1-2.9.2c-1.1-1.2-1.5-3.2-1.3-4.8.5-3.6,3.9-5.7,7.4-5.3s2-1.8,1.1-2.6c-3.3-2.8-8.1-2.1-11.4.5s-5.4,8-6.4,12.3-.5,4.9,1.2,6.7,3.2,2.1,5,2.2c4.6.3,8.3-3.6,10.7-7.1s2.6-4.7,2-7.4-2.2-4.2-4.5-4.5l.9,2.2c1.7-2.9,4.9-4.9,8.2-5.3s6.8.9,9.3,3.3c5.5,5.3,4.8,14-.3,19.3l2.4,1.8c1.9-3.2,3.8-6.5,4.2-10.2s-.6-6.6-3.1-8.8-3.3.6-2.1,2.1c2.6,3.2,1.7,7.9-.4,11s-3,3.5-4.7,4.9-1.8,1.3-2.7,2-.5.3-.7.5l-.3.2h.6c0,0-.4-1.2-.4-1.4-.3-2.5-.2-5.1,0-7.7s.5-5,1.5-7.2.8-1.6,1.4-1.4.6,1.7.6,2.2c0,1.9-.4,3.8-.9,5.6-1.2,4-3.7,7.9-7.8,9.4l1.8,1c-1.8-5-2.8-10.2-3-15.5s0-2.5,0-3.7,0-1.4.1-2.1,0-1.2.2-1.6c.4-.6,2.4-.3,3.1-.3,1.4,0,2.8.2,4.2.5l-1.1-1.4c.4,3.2.5,6.4.2,9.5s-.4,3.2-.7,4.8-.6,2.8-1.9,3.6c-2.2,1.3-5.2,1.1-7.5.2s-4.2-3-5-5.4-.6-2.5-.5-3.7,1-1.8,2.4-2.1c2.9-.7,6.3-1.4,9.3-1.1s2.2,1.1,2.9,2.3,1.4,2.5,2.1,3.9c1.2,2.5,2.3,5.3,2.4,8.1s-.4,5.3-2.1,7.3-4.2,3.2-6.7,4.1-5.8,1.8-8.8,2.5-1.6.5-2.1.4-.6-1.1-.8-1.5c-.5-1.4-1-2.9-1.3-4.4-.6-2.9-.9-6.1-.2-9s2.7-4.4,5.2-5.5,5.4-1.4,7.7,0,2.8,3,3.1,4.9c.7,5.1-4.1,8.7-8.9,7.7s-4.4-2.4-6-4.3-3.4-4.4-5.7-6.1-1.6,0-2.1.5c-2.6,3.8-2.1,9.2,1,12.5l1.1-2.6c-3.4-.4-5.8-3.8-5.6-7.1l-2.8.8c2.3,4.9,5.5,9.3,9.6,12.9s1.9.6,2.4-.3c3.3-6-1.6-11.5-5.8-15.3s-2.6-.3-2.6,1.1v12c.1,1.5,2.1,2.1,2.9.8,3.8-6.5,7.6-13.1,11.4-19.6l-2.8-.8-1.2,18.9c-.1,1.6,2,1.8,2.8.8,4-5.3,8.4-10.2,13.1-14.8l-2.6-1.1c-.6,6.3-2.2,12.5-4.8,18.3s1.6,3.2,2.6,1.5c3-5.4,7.1-10.1,11.9-13.9l-2.5-1.5c-.9,4.2-2,8.4-3.9,12.3s-.9,1.2-2,1.4-2.3.2-3.4.4c-2.3.2-4.5.5-6.8.7s-2.2,2.1-.8,2.8c4.7,2.3,9.6-.4,12.4-4.3s4-9.9,8.1-13.4l-2.4-.3c2,3.1,1.9,7.1-.2,10.2l2.6,1.5c2.3-4.3,4.3-8.8,4.6-13.7s-.9-8.5-3.8-11.7-3.1,0-2.5,1.5c2.6,6.4,3.8,13.1,3.7,20l2.9-.4c-2.1-7.2-5.1-14.1-8.8-20.6s-3.6-.2-2.6,1.5c3.6,6.3,6.5,12.9,8.5,19.9s2.9,1.3,2.9-.4c.2-7.1-1.1-14.2-3.8-20.8l-2.5,1.5c5.7,6.3,2.1,15.3-1.3,21.7s1.5,3.1,2.6,1.5c2.7-3.9,2.8-9.2.2-13.2s-1.6-.9-2.4-.3c-3.6,3.1-4.9,7.6-7.1,11.6s-5.6,7.7-9.8,5.6l-.8,2.8c2.7-.3,5.4-.6,8-.8s4.9-.1,6.3-2.2,2-4.3,2.7-6.3,1.5-5,2.1-7.6-1.3-2.4-2.5-1.5c-5.1,4-9.3,8.9-12.4,14.5l2.6,1.5c2.8-6.3,4.6-12.9,5.2-19.8s-1.7-1.9-2.6-1.1c-4.9,4.8-9.4,9.9-13.6,15.4l2.8.8,1.2-18.9c0-1.5-2.1-2-2.8-.8l-11.4,19.6,2.8.8v-12c-1,.4-1.8.7-2.7,1.1,3.1,2.7,7.8,7.1,5.3,11.6l2.4-.3c-3.9-3.4-6.9-7.6-9.1-12.3s-2.7-.6-2.8.8c-.3,5.1,3.7,9.4,8.6,10.1s1.9-1.7,1.1-2.6c-2.3-2.4-2.4-6.2-.5-8.9l-2.1.5c2.5,1.8,4.1,4.6,6.1,6.9s4.6,3.8,7.6,4.1c5.8.6,11.4-3.7,11.4-9.7s-1-5.5-3-7.4-5.7-2.9-8.9-2.4-6.5,2.2-8.5,4.8-2.2,6.9-1.9,10.4.5,3.9,1,5.9.9,3.5,1.9,4.8,2.8,1.4,4.5,1,3.8-.8,5.7-1.4c3.3-1,6.9-2,9.8-4.1s4.5-4.9,5.1-8.2,0-7-1.4-10.3-1.5-3.4-2.4-5.1-1.6-3.1-2.9-4.1-3-1.2-4.6-1.2-4.1.3-6.1.7-3.8.5-5.3,1.4-2,2.4-2.2,4c-.6,6.8,5,12.7,11.7,13s7-1,8.4-4.3,1-3.7,1.2-5.5.4-4.1.5-6.1-.1-4-.3-6-.4-1.3-1.1-1.4c-1.6-.3-3.1-.6-4.7-.6s-2.9-.2-4.2.3c-2.8,1-2.3,5.2-2.4,7.5-.1,6.5.9,13,3.1,19.1s1,1.3,1.8,1c5.2-1.8,8.4-6.4,9.9-11.5s1.3-5.4,1-7.9-2.7-4.6-5.3-3.2-3.1,5.1-3.6,7.7-.8,7-.5,10.6.2,2.6,1,3.7.8.8,1.3,1c1,.4,1.6,0,2.4-.5,2.5-1.7,5.1-3.6,7.2-5.8,4.3-4.6,6.4-11.9,2-17.2l-2.1,2.1c4.8,4.3,1,11.1-1.6,15.4s1.2,3,2.4,1.8c4.9-5.1,6.7-12.9,3.4-19.4s-9.8-9.6-16.5-8-6.9,3.2-8.9,6.4,0,2.1.9,2.2c1.8.3,2.6,2.1,2.4,3.8s-1.9,4.1-3.2,5.7-3,3.1-5.1,3.6-3.4,0-4.4-1.2c-1.5-1.8-.3-4.5.4-6.3s1.4-4.1,2.6-5.9c1.8-2.8,6.2-5.8,9.4-3.1l1.1-2.6c-4.6-.6-9.2,2.4-10.2,7s-.2,4.9,1,6.9,3.4,3.1,5.9,2.3,5.5-2.2,8-3.6,4.1-2.6,5.5-4.6,2.1-4.6,1.4-6.9-2.7-3.6-5.2-3.3-5.7,1-8.4,1.8-5.5,1.1-6.4,3.6-.4,2.3-.4,3.4c0,1.6,0,3.2.3,4.8.3,2.4.5,5.5,3.1,6.4,4.5,1.5,10.4-.3,13-4.3s1.8-4.4,1.2-6.6-.8-2-1.7-2.6-2.6-.7-3.9-.8-3.3-.2-5-.2-2.5.3-3.4,1.2-1.5,2.6-2,4-.9,2.8-1.1,4.2c-.5,3-.6,6-.1,9.1s1.5,5.4,4.4,4.6,1-.8,1.1-1.4c.7-6.4.5-12.8-.6-19.2s-2.2-1.5-2.7-.4c-2.9,5.7-4.8,11.8-5.8,18.2l2.9.4c0-3.3-.4-6.6-1.1-9.9s-2.1-1.4-2.7-.4c-2,3.4-3.4,7-4.4,10.8l2.9.4c0-3.8-.1-7.6-.5-11.4s-2.1-2.2-2.8-.8l-4.9,9.7,2.7.4c-.5-1.4-.7-2.8-.5-4.2s-2.4-2.7-2.9-.8l-.8,2.7c-.4,1.6,2,2.7,2.7,1.2,1-2.4,1.7-4.8,1.8-7.4s-2.9-1.9-3,0h0Z"/>
  <path class="st0" d="M101.6,21.5c-.8-4.6-3.5-8.6-7.4-11.1s-3.1,1.2-1.8,2.4,2.7,1.7,4.5,1.9,1.9-2,.8-2.8c-7.9-5.5-18.4-6.2-27.1-2.2s-.6,2.7.8,2.8l3.7.4-1.3-2.3c-4,7-8,14-12,21l2.7,1.2,4.4-11.9-2.9-.4.5,10.6c0,1.5,2,2,2.8.8,3.6-5.6,7.2-11.2,10.9-16.8l-2.8-.8c.3,8,0,15.9-1.2,23.8s2.3,2.7,2.9.8c1.5-4.6,3.5-9.1,5.8-13.3l-2.8-.8c.9,7.7-.1,15.4-3.1,22.6l2.9.4c.5-3.9,2-7.6,4.2-10.9l-2.7-.4c.6,3.8-.3,7.7-2.4,10.9l1.7-.7-3.6-.8c-1.4-.3-2.6,1.4-1.5,2.5,4.9,4.4,12.5,3.5,17.5-.3,5.9-4.4,8.3-11.9,10.4-18.7h-2.9c.7,3.6,1.2,8.2-2,10.9s-3.2.9-5,1.3-3,1.5-4.3,2.9c-6,6.1-15.4,3.5-22.5,1.4s-2.6,2.3-.8,2.9c8.2,2.4,18.6,4.8,25.5-2.1s1.3-1.5,2.2-1.9,2.2-.2,3.3-.4c1.9-.3,3.6-1.4,4.8-2.9,3-3.6,2.6-8.4,1.8-12.8s-2.5-1.3-2.9,0c-1.8,5.8-3.7,12.3-8.5,16.4s-10.3,4.8-14.4,1.2l-1.5,2.5,3.6.8c.7.1,1.3-.1,1.7-.7,2.5-4,3.4-8.6,2.7-13.2s-2.1-1.3-2.7-.4c-2.5,3.7-4.1,8-4.6,12.4s.6,1.4,1.3,1.5,1.4-.4,1.6-1.1c3-7.4,4.1-15.4,3.2-23.3s-2-2.2-2.8-.8c-2.5,4.5-4.5,9.2-6.1,14l2.9.8c1.1-8.2,1.6-16.4,1.3-24.6s-2-2-2.8-.8c-3.6,5.6-7.2,11.2-10.9,16.8l2.8.8-.5-10.6c0-1.7-2.4-2-2.9-.4l-4.4,11.9c-.6,1.6,1.9,2.6,2.7,1.2,4-7,8-14,12-21s-.2-2.1-1.3-2.3l-3.7-.4.8,2.8c7.7-3.6,17.1-2.6,24,2.2l.8-2.8c-.9,0-1.7-.4-2.3-1l-1.8,2.4c3.2,2.2,5.3,5.5,6,9.4s3.2,1.1,2.9-.8h0Z"/>
  <path class="st2" d="M51.2,34.4c-2.7,4-5.5,8-8.2,12s2.1,5.2,3.9,3c3.1-3.5,6.2-7.1,9.3-10.6l-3.9-.5c2.2,4.6,3.7,9.4,4.8,14.3s5.1,2.2,4.9-.7c-.3-4.8-1.1-9.5-2.3-14.1l-4.8,1.3c1.9,4.8,4.5,9.1,7.9,13s3.6.6,4.2-1.1.8-3.2.9-4.9l-4.7,1.3c.5.8.8,1.6.8,2.5l2.5-2.5c-2.1-.1-4.1-.6-6-1.4l-.7,4.9c.9-.1,1.9-.2,2.8-.3l-1.8-4.3c-7.6,5.9-16.3,10.5-25.5,13.6l1.9,4.6c5.1-2.3,10.6-3.4,16.1-4.6l-1.3-4.8c-10.3,3.3-20.8,6.8-31.7,7.6l1.3,4.7c5.8-2.9,11.9-5.1,18.1-6.8l-1.9-4.6c-3.1,1.4-6,3.4-8.6,5.7s-.9,2.4-.2,3.3,2.1,1.2,3.2.6c11.6-5.1,20.6-14.3,29.3-23.3l-3.9-3c-4.9,7.1-11.3,13-18.7,17.3l3.4,3.4c3.1-7,6.3-13.9,9.4-20.9s-1.7-4.9-3.9-3c-5.7,4.9-9.9,11.3-14.2,17.4-4.1,5.7-8.6,11.4-15.1,14.5l2.5,4.3c6.5-3.7,13.3-7,20.7-8.6s14.8-1.5,22.2-2.5,8.2-1.6,12.1-3.4,1.2-3.9-.6-4.6c-7.1-2.5-15-.9-20.9,3.7l3.9,3c2.2-3.2,4.8-6.2,7.6-8.9s-1.2-5.8-3.5-3.5-5.9,6.3-8.3,9.9-.3,2.5.6,3.2,2.3.6,3.3-.2c4.5-3.5,10.7-4.3,16-2.4l-.6-4.6c-6.6,2.9-14,3.2-21,3.8s-15.1,1.9-22.2,4.8-8,3.7-11.8,5.9-.3,5.7,2.5,4.3c14-6.8,19-23,30.3-32.7l-3.9-3c-3.1,7-6.3,13.9-9.4,20.9s1.1,4.8,3.4,3.4c8.1-4.8,15.1-11.4,20.5-19.1s-2-5-3.9-3c-8.4,8.7-17,17.5-28.2,22.5l3,3.9c2.3-2,4.8-3.7,7.6-4.9s.7-5.3-1.9-4.6c-6.7,1.8-13.1,4.2-19.3,7.3s-1.2,4.8,1.3,4.7c11.4-.8,22.2-4.2,33-7.7s1.8-5.5-1.3-4.8c-5.9,1.3-11.7,2.7-17.3,5.1s-.7,5.5,1.9,4.6c10-3.4,19.3-8.4,27.7-14.9s.3-4.5-1.8-4.3-1.9.2-2.8.3c-2.8.4-3.4,3.8-.7,4.9s4.8,1.4,7.3,1.6,2.5-1.2,2.5-2.5-.5-3.5-1.5-5c-1.4-2.2-4.5-1.2-4.7,1.3s-.3,2.4-.7,3.5l4.2-1.1c-2.8-3.2-5-6.9-6.6-10.8s-1.7-2.1-3.1-1.7-2.1,1.8-1.7,3.1c1.1,4.2,1.8,8.4,2.1,12.8l4.9-.7c-1.2-5.4-3-10.6-5.3-15.5s-2.9-1.6-3.9-.5c-3.1,3.5-6.2,7.1-9.3,10.6l3.9,3c2.7-4,5.5-8,8.2-12s.2-2.8-.9-3.4-2.7-.2-3.4.9h0Z"/>
  <path class="st1" d="M58.2,23.8c-13,15.6-26.8,30.5-41.4,44.6-14.6,14.1-8.4,7.9-12.6,11.8s.5,3.8,2,2.6c15.2-11.6,34.3-16.7,52.1-22.7,5.7-1.9,11.3-3.8,17-5.7s1.5-1.8.7-2.8c-6.6-8-13.2-15.9-19.9-23.9s-2.5-.4-2.8.7c-3,11.2-3.1,23.1-.4,34.4,2.7,11.3,3.7,1.2,3.2-.9-2.5-10.7-2.4-21.9.4-32.6l-2.8.7c6.6,8,13.2,15.9,19.9,23.9l.7-2.8c-10.1,3.4-20.3,6.8-30.4,10.3-8.8,3-17.7,6.1-26.1,10.3s-9.2,5.1-13.4,8.3l2,2.6c15-13.6,29.3-28.1,42.7-43.3s7.6-8.7,11.3-13.1c3.7-4.4-1-4-2.3-2.3h.1Z"/>
  <path class="st1" d="M49.2,62.4c-3.1-4.9-5-10.4-5.8-16.1s-1.3-1.4-2-1.2-1.3,1.2-1.2,2c.8,6,3,11.8,6.2,16.9s4,0,2.9-1.7h-.1Z"/>
  <path class="st1" d="M33.9,64.1c-.2-.6-.4-1.1-.5-1.7s0-.5-.2-.7,0-.3,0-.5h0q0-.3,0,0v-3.4c0-.9-.8-1.7-1.7-1.7s-1.6.7-1.7,1.7c-.2,2.4,0,5,.9,7.3.9,2.3,1.1,1.5,2,1.2s1.5-1.2,1.2-2h0v-.2Z"/>
  <path class="st1" d="M25.3,61.9c4.7,3.8,11.1,5.1,16.9,3.1s1.2-3.9-.9-3.2c-4.6,1.5-9.9.8-13.7-2.3s-1.7-.7-2.3,0-.7,1.8,0,2.3h0Z"/>
  <path class="st1" d="M33.9,56.2c6.6.8,13.1,2.5,19.2,5s1.8-.4,2-1.2-.3-1.7-1.2-2c-6.4-2.6-13.2-4.3-20.1-5.1s-1.7.8-1.7,1.7.8,1.6,1.7,1.7h0Z"/>
  <path class="st1" d="M39.6,47.8c10.3,3.7,21.1,5.5,32,5.6s2.1-3.3,0-3.3c-10.6,0-21.1-1.9-31.2-5.4s-2.9,2.5-.9,3.2h.1Z"/>
  <path class="st1" d="M46.3,39.1c5.1,3.7,11.1,5.9,17.4,6.5s1.7-.8,1.7-1.7-.8-1.6-1.7-1.7c-5.7-.5-11.1-2.7-15.7-6s-1.9,0-2.3.6,0,1.7.6,2.3h0Z"/>
  <path class="st1" d="M60.4,39.7c-1.1,5-.9,10.1.7,15s1.1,1.4,2,1.2c.9-.2,1.4-1.2,1.2-2-1.4-4.3-1.7-8.8-.7-13.2,1-4.4-.3-1.8-1.2-2s-1.8.3-2,1.2h0v-.2Z"/>
  <path class="st1" d="M60.7,28.4c5.1-5.7,8.7-13,15-17.5s6.2-3.4,9.8-3.3,7.5,1.7,10.5,3.9c5,3.5,9,9.4,9.2,15.6.2,6.2-1.2,6.8-3.1,9.7s-4.5,6.3-7.4,8.8c-6.2,5.4-15,6.8-22.6,3.7s-1.8.4-2,1.2.3,1.7,1.2,2c7.4,3,16.3,2.2,22.9-2.3s6.4-5.6,8.9-9,4.7-7,5.3-11.3c2.1-15.1-15.8-30.4-30.2-24.2-9.1,3.9-13.5,13.3-19.8,20.3s.9,3.9,2.3,2.3h0Z"/>
</svg>