<?xml version="1.0" encoding="UTF-8"?>
<svg id="Layer_2" xmlns="http://www.w3.org/2000/svg" version="1.1" viewBox="0 0 387.3 255.5">
  <!-- Generator: Adobe Illustrator 29.8.2, SVG Export Plug-In . SVG Version: 2.1.1 Build 3)  -->
  <defs>
    <style>
      .st0 {
        fill: #ff0;
      }
    </style>
  </defs>
  <path class="st0" d="M189,46.7c7.2-.7,14,.7,20.3,4.4l1.5-5.6c-10.7,0-21.5,0-32.2,0s-4.2,5.2-.8,5.9c14,3.1,26.7,9.6,37.3,19.3l1.3-5c-7.5,1.5-15.2-2.3-22.2-4.8s-13.7-4.8-20.6-7.3l-1.6,5.8c17,3.8,33,10.5,47.6,19.9l2.3-5.5c-15.2-2.1-30-6.3-44.1-12.6l-1.5,5.6c8.3.1,15.4,6,21.8,10.6s13.5,10.2,19.9,15.8l2.9-5c-17.6-5.4-35.2-10.8-52.8-16.3s-5.4,3.9-2.3,5.5c25.6,13.1,50.2,27.9,73.7,44.4l2.3-5.5c-33.4-13.5-67.5-25.3-101.6-37-3.2-1.1-5.2,3.8-2.3,5.5,24.8,14,49.6,27.9,74.3,41.9s5.8-2.2,3.6-4.7c-13.5-15.9-17.3-38-10.6-57.6,1-2.8-3.1-5.2-5-2.9-25.3,29.6-47.7,61.7-66.5,95.8l5.6,1.5c-.5-10.4,3.3-20,7.8-29.2s8.4-16.7,12.8-24.9,9.1-16.4,13.9-24.4,9.4-16.4,17.2-21.7l-4.4-1.8c2.2,10.8-8.9,22.8-15.2,30.6s-14,16.3-21.2,24.2c-14,15.5-28.7,30.5-46.3,42l4.1,4.1c16.1-32.5,39.3-61,67.9-83.3l-5-2.9c-.8,5.4-3.6,9.7-6.7,14.1s-7.2,10.4-10.8,15.6c-7,10.1-14,20.2-21,30.3-6.8,9.8-13.5,19.5-20.2,29.3-6.1,8.9-11.9,18-15.9,28.1s3.8,5.2,5.5,2.3c10.4-17.7,24.2-33.1,40.7-45.3l-3.6-4.7c-15,18.5-39.2,28.4-48.9,51.2s1.2,3.8,2.9,3.8c11.9.2,23.7.3,35.6.5s3.9-5.9,0-6c-27.1-.9-54.4-1.7-81.2,3.3-3.4.6-2.5,5.8.8,5.9,24.5.5,48.8,2.8,73,6.7l.8-5.9c-8.8.9-17.6,1-26.5.3l.8,5.9c21.6-4.1,43.6-5.5,65.6-4.3v-6c-29.1,1.8-58-2.2-85.5-11.9l.7,5.5c11.7-5.5,26.3-5.1,38.9-6.2s25.7-2,38.5-2.7c26-1.4,52.1-2,78.2-1.8,3.9,0,3.9-5.9,0-6-29.6-1-58.3-10.6-82.7-27.4-2.8-1.9-6.2,2.5-3.6,4.7,16.9,14.6,32.1,31.1,45.1,49.3s7.4.2,5.2-3c-10.2-14.7-18.7-30.4-25.4-47s-5.2-3.3-5.8,0-1.5,9-2.3,13.4-.6,3.8-1,5.8-.2,5.3-1.1,6.4-1-1.6-1.4-2.8c-.5-1.8-1-3.6-1.3-5.4-.9-4.7-1.1-9.3-.9-14.1l-5.9.8c1.4,6.4,3,13.3,1.3,19.9s-4.9,11.2-10,11.2-4.4-12.4-4.2-16.1c.3-6.6,2-13.1,4.7-19.1l-5.5-.7c3.2,9.8-1,19.9-5.1,28.8s-8.6,16.1-14.1,23.5l5.5.7c-2.6-18.9-.4-39.8,12.8-54.5l-5.1-2.1c.5,12.8-3.2,24.8-10.8,35s2.6,6.3,4.7,3.6c25.6-32,53.8-61.8,84.5-88.9l-5-1.3c1.2,7.7-1.5,15.5-3.3,22.9-1.8,7.4-3.6,14.8-5.5,22.2-3.6,14.8-7.3,29.7-10.9,44.5l5.9.8c-2.5-27,.1-54,7.8-80.1l-5.9-.8c1.9,20.2-3.1,39.9-8.3,59.3h5.8c-4-15.6-5.6-31.5-4.8-47.6h-6c2,31.4-3.3,62.8-15.6,91.7h5.2c-2.8-6.6-3-13.9-3.2-21s-.4-15.3-.5-22.9c-.2-14.9,0-29.9.5-44.8h-6c2.1,22.1,12,42.6,28.3,57.8,1.9,1.7,5.1.5,5.1-2.1,0-36.8,0-73.8,5.9-110.2h-5.8c12.6,30.3,27.2,59.7,43.9,87.9s6.3,1,5.5-2.3c-4.9-18.9-9.8-37.9-14.7-56.8l-5.8,1.6c8.3,22.9,16.7,45.8,25,68.7l5.5-2.3c-6.1-10.5-10.5-21.6-13.2-33.4l-5.5,2.3c10.3,19.3,17.8,39.8,22.3,61.1l4.4-3.4c-11-6.8-19.5-16.4-25-28.1l-4.7,3.6c11.5,10.8,21.2,23.2,29,37l4.1-4.1c-2.6-1.2-8.1-3.2-7.6-6.7-.5-1.8.3-2.3,2.4-1.2.2,1.2.1,2.3-.3,3.3-.7,2.2-2.2,3.8-4.4,4.7l3.4,4.4c1.4-2.2,3.1-3.2,5.6-3.8l-3.4-1.4c1,1.5-.5,3.4-2.2,2.8v5.8c5.1-1.1,10.3-1.9,15.6-2.2s3.7-.1,5.5-.1,5.4.9,7.3.3c-3.6.9-9.6-1.9-13.1-2.8-5.1-1.3-10.3-2.7-15.4-4v5.8c3.8-1,7.4-.3,10.4,2.3l2.1-5.1c-55.9-1.7-111.8-6-167.6-9.2v6c29-.1,58.4-.2,86.6,7.8l.8-5.9c-13.2.2-26.6.6-39.3,4.8-2.9,1-2.8,4.8,0,5.8,8.2,2.9,16.5,5,25.1,6.3s17,2.9,24.4.4,7-3.5,10.7-4.8,8.2-2.2,12.4-2.6c8.3-.8,16.6,0,24.9.6l-1.5-5.6c-5.1,2.4-10.7,2.1-16.2,1.6s-12-1-18.1-1.7c-12.1-1.3-24.1-3-36-5.1-23.2-4-46.1-9.5-68.7-16.3v5.8c12.9-5.4,25.9-10.2,39.3-14.4,6.5-2,13.1-3.9,19.7-5.6s18.6-6.4,20.2,2.4l1.4-3.4c-1.7,1-3.6,1.4-5.6,1.3-1.3-1.7-1.1-2.8.7-3.3,1-.9,3.3-1.3,4.5-1.6,4.3-1.3,8.7-2.5,13.2-2.6,8-.3,17.5,4.4,16.4,13.7l3-3c-12.4,1.1-24.4-5.5-30.5-16.3s-2.5-5.3-3-8.2-1.4-5.5,2.6-6.2,3.3,1.2,4.5,1.8c6.6,3.5,12.9,7.9,19,12.3,12,8.6,23.3,18.4,33.5,29.2,10,10.5,19.7,22,25.7,35.4s2.5,5,2.2,5.6c-.6,1.1-4.3,1-5.3,1-3.8.4-7.6.6-11.3.6-8.2.2-16.4-.3-24.6-1.2-15.8-1.8-31.6-5.2-46.9-9.6-14.3-4.1-28.9-9.2-41.7-16.9s-11.1-7.7-14.4-13.5-3-6.9-3.8-10.6-3.4-10.7,2.4-10.6c8.4,0,17.2,5.1,24.6,8.6s14.3,7.3,21.2,11.4c14.1,8.5,27.2,18.3,39.3,29.4s6.9-1.4,4.2-4.2c-24.3-25.4-43.4-55.8-55.4-88.9s-2.6-5.1-2.2-6.4c-1.1-.6-.7-.8,1.3-.7,1.1-.1,2.2-.2,3.3-.2,4.1-.1,8.2.4,12.2,1.5,8.5,2.2,16.3,6.6,23.5,11.6,13.9,9.7,28.4,22.4,32.7,39.5l2.1-3.7c-4.6,1.2-11.4-6.4-14.4-9.3s-7.3-7.7-10.3-12c-5.8-8.2-10.1-17.4-12.8-27.1l-5.5,2.3c21.3,30.4,34.2,65.3,46.7,100,1.1,3,6.2,2.8,5.9-.8-2.2-25-7.9-49.5-13.6-73.9-.9-3.8-6.5-2.2-5.8,1.6,5.6,28.5,11.6,57.7,28.3,82s5.6,1.6,5.6-1.5c.3-31.4-2.1-62.8-6.9-93.8s-4.9-2.5-5.8,0c-4.4,13-10.4,25.3-17.8,36.8l5.6,1.5c-1.3-14.1-.1-28.1,3.8-41.7.9-3.2-3.9-5.4-5.5-2.3-7.4,14.3-19.6,25.5-34.7,31.3l3.8,2.9c-1.8-21.5-2.5-43.1-2-64.7s-3.3-3.8-5.1-2.1c-23.5,20.9-46.9,41.8-70.4,62.7l5.1,2.1c-1.9-16.4,5.6-32.5,12-47.2s13.4-28.2,21.4-41.6l-5.5-.7c1.5,8.1-1,16-3.5,23.7s3.1,5.3,5,2.9c13.3-16.9,26.5-33.8,39.8-50.6l-4.7-.6c1.7,2.8,1.8,5.4.7,8.5l4.4-1.8c-4.7-2.3-7.7-6-9.1-11.1l-5,2.9c4.4,4,1.2,10.9-1.2,15.2s-6.4,10.8-9.8,16.1c-6.6,10.5-13.5,20.8-20.8,30.9-14.8,20.7-31,40.4-48.3,59.1-2.7,2.9,1.3,6.7,4.2,4.2,16.5-14.1,33.2-28.1,52.1-38.9l-4.1-1.1c3.5,6-1.4,15-3.1,20.9s-3.6,14.3-4.9,21.5-4.4,21.7,7.9,25.2c5.4,1.5,11.3,1.2,16.9,1.4s15.1.6,22.7.9c15.1.6,30.3,1.2,45.4,1.8l-.8-5.9c-20.1,3.3-40.8.7-59.4-7.6l-.7,5.5c25.9-5,52.5-2.9,77.3,6v-5.8c-9.5,2.1-18.7-1.7-27.3-5.4l-.8,5.9c12.9-1.7,25.6-.4,37.8,3.9s5.4-4,2.3-5.5c-9.3-4.3-17.7-9.8-25.3-16.6-2.9-2.6-7.1,1.7-4.2,4.2,8,7.1,16.8,13.1,26.5,17.6l2.3-5.5c-12.7-4.5-26.1-5.9-39.4-4.1-3.4.5-4,4.5-.8,5.9,9.8,4.1,19.8,7.7,30.5,5.4s2.6-4.9,0-5.8c-25.8-9.2-53.6-11.2-80.5-6-2.4.5-3.1,4.4-.7,5.5,20.2,9,42.2,11.8,64,8.2,3.5-.6,2.4-5.8-.8-5.9-13.8-.5-27.6-1.1-41.5-1.6-12.8-.5-26.3.1-39.1-1.7-2.4-.3-5.4-.9-7-2.9s-.8-7.6-.4-10.8c1-6.6,2.3-13.2,3.9-19.8s3.6-11.8,5.2-17.8,1.7-9.7-1-14.2-2.7-1.9-4.1-1.1c-19.4,11-36.4,25.4-53.3,39.8l4.2,4.2c19.3-20.9,37.2-43,53.4-66.2,8.2-11.7,15.9-23.6,23.2-35.8s12-19.9,3.4-27.8-5.8,0-5,2.9c1.8,6.5,5.9,11.6,11.9,14.6s3.7,0,4.4-1.8c1.7-4.5,1.2-9-1.3-13.1s-3.5-2.2-4.7-.6c-13.3,16.9-26.5,33.8-39.8,50.6l5,2.9c2.8-8.9,5.1-17.6,3.5-26.9s-4.3-2.8-5.5-.7c-8.6,14.5-16.3,29.5-22.9,45s-13.2,30.5-11.4,46.8,3.1,4,5.1,2.1c23.5-20.9,46.9-41.8,70.4-62.7l-5.1-2.1c-.5,21.6.2,43.2,2,64.7.1,1.8,1.8,3.6,3.8,2.9,16.5-6.3,30.1-18.2,38.3-34l-5.5-2.3c-4,14.1-5.4,28.7-4,43.3s3.9,4.2,5.6,1.5c7.7-12,13.8-24.8,18.4-38.3h-5.8c4.8,30.5,7,61.4,6.7,92.2l5.6-1.5c-16.4-23.9-22.2-52.6-27.7-80.6l-5.8,1.6c5.6,23.9,11.2,47.8,13.4,72.3l5.9-.8c-12.7-35.1-25.7-70.6-47.3-101.4-1.9-2.7-6.4-1.1-5.5,2.3,3.3,12,9,23.1,16.7,32.9s8.4,9.5,13.3,13.5,9,7.7,14.9,6.1,2.5-2.1,2.1-3.7c-3.6-14.4-13.7-25.6-24.8-34.9s-25.1-18.9-40.4-21.4-14.3-2.4-18.3,1.5-1.5,4.7-.8,7.1c1.2,4,2.8,8,4.4,12,5.8,14.7,12.9,29,21.3,42.4s20.8,29.7,33.3,42.8l4.2-4.2c-13.5-12.4-28.3-23.4-44.2-32.6-8-4.6-16.2-8.7-24.6-12.4-7.2-3.1-15.7-7.5-23.8-6-8.3,1.6-6.5,9.9-5.3,16.3s4.9,15.6,10.9,21.5c12.2,12,30.7,18.3,46.6,23.3s38.6,10.3,58.3,12.2c10.1,1,20.2,1.3,30.3.5,6-.4,16.3-.1,13.9-8.9-4.6-16.6-17.9-31.5-29.5-43.7-12.6-13.2-26.6-25-41.8-35-5.8-3.8-15.5-12.2-23.1-9.6-7.8,2.7-5.2,13.3-2.9,19,6,14.7,21.6,24.8,37.5,23.3s2.8-1.3,3-3c.9-7.1-3.5-13.5-9.6-16.9-7.9-4.4-17.4-2.8-25.7-.5s-13.4,3.7-12.8,10.5,10.7,7,16.1,4.7,1.6-2.2,1.4-3.4c-3.1-16.3-27-6.9-36.6-4.2-17,4.8-33.7,10.7-50,17.5-2.6,1.1-3.1,4.9,0,5.8,24.4,7.3,49.2,13.1,74.3,17.3,11.9,1.9,23.8,3.5,35.8,4.8,10.9,1.1,23.2,3.7,33.5-1.2s1.2-5.4-1.5-5.6c-14.9-1.2-30.4-2.2-44.3,4.4s-7.8,3.5-12.6,3.4-9.3-.5-13.9-1.2c-8.6-1.2-16.9-3.4-25.1-6.3v5.8c12.2-4,24.9-4.4,37.7-4.6s4.1-5,.8-5.9c-28.7-8.1-58.6-8.1-88.2-8s-3.8,5.8,0,6c55.8,3.1,111.7,7.5,167.6,9.2s4.1-3.4,2.1-5.1c-4.6-4-10.2-5.4-16.2-3.8s-2.9,5,0,5.8c8.8,2.3,17.6,5.1,26.5,6.8s10.3-.6,10.3-6.2-7.8-5.9-12.1-6c-8.3-.2-16.5.7-24.5,2.5-3.1.7-2.6,4.9,0,5.8,6.6,2.3,12.9-5.8,9-11.6s-2-1.7-3.4-1.4c-4,.8-7,3-9.2,6.5s.9,5.4,3.4,4.4c4.9-2.1,8.9-6.2,9.2-11.9s-2.4-9.8-7.6-9.5-7.6,5.2-7.3,9.3,6.3,9.2,11,11.3,5.7-1.3,4.1-4.1c-8-14.2-18-27.1-29.9-38.2s-6.1.6-4.7,3.6c5.9,12.6,15.3,23,27.1,30.3,2.3,1.4,4.9-.9,4.4-3.4-4.7-21.8-12.4-42.8-22.9-62.6-1.6-3.1-6.2-.9-5.5,2.3,2.8,12.3,7.4,24,13.8,34.8s6.7,1,5.5-2.3c-8.3-22.9-16.7-45.8-25-68.7s-6.8-2.2-5.8,1.6c4.9,18.9,9.8,37.9,14.7,56.8l5.5-2.3c-16.4-27.8-31-56.7-43.3-86.5-1-2.4-5.2-3.3-5.8,0-6,37-6.2,74.4-6.1,111.8l5.1-2.1c-15-14-24.6-33-26.5-53.5s-5.9-3.9-6,0c-.5,16.3-.7,32.5-.5,48.8.2,14-1.2,29.8,4.4,42.9s4.3,2,5.2,0c12.8-29.9,18.5-62.3,16.4-94.8s-5.8-3.9-6,0c-.8,16.6.9,33.1,5.1,49.2s5,2.8,5.8,0c5.3-19.9,10.4-40.1,8.5-60.9s-4.9-4.2-5.9-.8c-7.8,26.5-10.5,54.2-8,81.7.3,3.2,5,4.3,5.9.8,4-16.1,7.9-32.2,11.9-48.4,1.9-7.7,3.8-15.5,5.7-23.2s3.3-14,2.2-21.3-3.5-2.7-5-1.3c-30.6,27.2-58.9,56.9-84.5,88.9l4.7,3.6c8.1-11,12.2-24.4,11.6-38.1s-3.3-4.2-5.1-2.1c-14.7,16.5-17.3,39.2-14.3,60.4s4.2,2.5,5.5.7c6.4-8.7,11.8-18,16-27.9s7-19.1,3.8-29-4.3-3.2-5.5-.7c-3.8,8.3-5.8,17.2-5.5,26.4s.4,17.6,9,17.9,13-5.6,15.7-11.7c3.8-8.6,2-18.1,0-27s-5.7-2.5-5.9.8c-.3,6.8.3,13.6,2.2,20.2s2.3,9.5,7,9.7,6-4.9,6.7-8.5c1.4-7.7,2.6-15.4,3.9-23h-5.8c6.8,17.1,15.5,33.3,26,48.4l5.2-3c-13.3-18.6-28.7-35.5-46.1-50.5l-3.6,4.7c25.3,17.4,55.1,27.2,85.7,28.2v-6c-27.4-.2-54.8.4-82.1,2-13.5.8-27,1.8-40.5,3s-24.9,1.3-36,6.5-1.5,4.7.7,5.5c27.9,9.8,57.6,13.9,87.1,12.1s3.9-5.8,0-6c-22.5-1.3-45,.3-67.2,4.5-3.5.7-2.4,5.6.8,5.9,8.8.7,17.7.6,26.5-.3s4.4-5.3.8-5.9c-24.7-4-49.6-6.4-74.5-6.9l.8,5.9c26.3-4.9,53.1-4,79.6-3.1v-6c-11.9-.2-23.7-.3-35.6-.5l2.9,3.8c9-21.4,33.2-31.2,47.3-48.6,2-2.4-.7-6.9-3.6-4.7-17.4,12.8-31.9,28.8-42.9,47.4l5.5,2.3c4.1-10.5,10.6-19.7,16.9-28.9,7-10.1,14-20.2,20.9-30.3,6.8-9.8,13.6-19.7,20.4-29.5,6-8.7,14.7-17.9,16.4-28.7s-2.6-4.8-5-2.9c-29,22.6-52.6,51.6-68.8,84.5s1.4,5.9,4.1,4.1c19.5-12.7,35.6-29.5,51-46.8,7.8-8.7,15.6-17.4,22.6-26.7s14.1-18.7,11.8-30.1-2.9-2.8-4.4-1.8c-7.5,5-12.3,12.3-17,19.9s-11.2,18.8-16.4,28.4-10,18.6-14.4,28.2-7.6,18.7-7,29,4.1,4.2,5.6,1.5c18.6-33.7,40.6-65.4,65.6-94.6l-5-2.9c-7.5,21.7-2.7,46,12.1,63.5l3.6-4.7c-24.8-14-49.6-27.9-74.3-41.9l-2.3,5.5c34.1,11.7,68.2,23.5,101.6,37,3.3,1.4,4.9-3.7,2.3-5.5-23.5-16.5-48.1-31.3-73.7-44.4l-2.3,5.5c17.6,5.4,35.2,10.8,52.8,16.3,2.8.9,5.2-3,2.9-5-7.3-6.3-14.8-12.3-22.7-17.8s-14.3-10.2-23.3-10.4-4.3,4.3-1.5,5.6c14.5,6.6,29.7,11.1,45.5,13.3,3.2.4,5.4-3.5,2.3-5.5-15-9.7-31.6-16.6-49-20.6s-5.2,4.5-1.6,5.8c8.1,2.8,16.1,5.7,24.2,8.5s14.1,5,21.8,3.5,2.9-3.6,1.3-5c-11.3-10.4-25-17.5-40-20.8l-.8,5.9c10.7,0,21.5,0,32.2,0s4.1-4.1,1.5-5.6c-7.2-4.1-15.1-5.9-23.3-5.2s-3.8,6.4,0,6h0Z"/>
  <g>
    <path d="M185.4,144c-.1-2.4,1.2-4.7,3.5-5.4s4.5.2,6.1,2,1.4,2.2,1.7,3c.5,1.3.9,2.6,1.2,3.9s.1.6,0,.6.1-.3.2-.3c1-.6.3-.1.1-.2,0,0,.7,0-.2,0s-1,0-1.4,0c-1.9,0-3.7,0-5.6,0s-1.8,0-2.6,0-.6,0-.9-.5c-.6-.9-1.6-2.5-1.6-3.5s.2-.8.5-1c.4-.5.9-.8,1.6-1.1,1.4-.5,3-.8,4.4-.8s1.9.3,2.6,1.4,1.6,2.5,2,3.9.1.4.2.7c0,.4,0,.1,0,0,0,.2,0,.8,0,.8,0,.3-.2.6-.3.7-.5.4-1.1.5-1.7.7s-1.8.5-2.7.8c-1.6.5-3.2,1-4.8,1.4s-1.1.2-1.7.3-.7,0-1,0,.3,0-.2,0-.6-.2-.3,0c-.5-.2-.7-.4-.9-.8s-.4-1-.5-1.6,0-1.2,0-1.7,0-.7,0-1.1,0-.3,0-.4,0-.6,0-.3c0-.1,0-.3,0-.4s.2-.6,0-.3.4-.5.1-.2c.2-.2.2-.1,0,0,.4,0,.7-.1,1.1-.1,1.8,0,3.6,0,5.4,0s2.4,0,3.7.4,0,0,0,0c.2,0,.3.2.5.2,0,0,.3.2.2.1s.2.2.2.3,0,.3,0,.1c0,.5,0,0,.1-.3s.2-.2.3-.3c.1-.3.3,0,0,0s-.7,0-1,0c-.6,0-1.5,0-1.9,0s-.9-.2-1.2-.4-.4-.3-.4-.6c0,.5,0-.5,0-.3s0-.2,0-.2c-.2.2,0,0,0,0,0,0,0,.1-.2.2,0,0,.3,0,.1,0,0,0,.1,0,.1,0-.3,0,.4.2,0,0s.1,0,.1,0c0,0-.2-.1-.2-.2-.2-.2.1,0,0,0,0,0,0,.3,0,.1,0,.3,0,.3-.3.7s-.7.6-1.1.8-1.2.5-1.9.7-1.5.5-2.3.6-.7,0-.9,0-.4-.2-.4-.1c-.1-.1-.3-.2-.3-.3s.1.4,0,.4.4-.5.3-.5c.3-.3.6-.6,1-.9s.9-.7,1.4-1,.4-.2.7-.3c.4-.1.4,0,.2,0,0,0,.5,0,.2,0,.1,0,.3,0,.4.1-.3-.1,0,0,0,0,0,0-.3-.3,0,0s.2.2.2.2c.3.3,0,.1,0,0,0,.1.2.3.2.4s.2.4,0,.1.1.4.1.4c0,.2.1.5.2.7,0-.4,0,0,0,0,0,.2,0,.3,0,.5,0,.8,0,.9-.2,1.6-.3,1.2-.8,2.2-1.7,3,0,0,.2-.1,0,0s-.3.2-.5.3c-.3.2,0,0,0,0-.2,0-.3,0-.5.2s-.4,0-.2,0-.2,0-.3,0c-.1,0-.3,0-.4,0-.4,0,0,0-.2,0s-.8-.3-.5-.1c-.2,0-.6-.4-.6-.3.1.1-.4-.6-.2-.2-.1-.2-.2-.4-.3-.8,0-.7,0-1.4,0-2.1,0-1,0-2-.3-2.9s-.1-.6-.1-.9,0-.5,0-.5c0-.3.4-.6.9-1.1s1-.6,1.4-.8c.7-.4,1.5-.8,2.2-1.1,1.2-.6,2.8-1.2,4.2-1s2.7-.3,3.1-1.7-.4-2.9-1.7-3.1c-3-.4-5.5.3-8.2,1.5s-4,1.9-5.4,3.6-1.3,2.1-1.4,3.4.3,2.4.4,3.6c.1,2.6-.3,5.1,1.6,7.3s3.7,2.4,5.8,2.2,4.5-1.6,6-3.6c2.4-3.4,2.8-8.6.1-12s-9.6-1.2-12.2,2.4-1.3,4.9.6,6.7,5.2,1.8,7.9,1,4.9-1.6,6.4-3.7,1.6-5-.2-6.9-4.4-2-6.5-.8-3,4.2-2.1,6.5,2.9,3.7,5.3,4.1,5.4.4,7.1-1.1,1.5-4.9-.1-6.7-4-2.3-6.2-2.5-4.8,0-7.2,0-5,.9-6.1,3.5-.7,4.1-.5,6.1,1.1,5,3.4,6.4c4.1,2.5,9.5,0,13.6-1.1s5.1-1.3,6.4-3.7.9-5.1-.2-7.4-2.1-4.1-3.7-5.5-4.9-1.8-7.7-1.4-5,1.1-6.8,3-2.5,4.7-1.5,7.2,2.2,4.9,4.5,5.9,2.6.5,3.9.5,2.7,0,4,0c2.4,0,5.8.6,7.7-1.3s1.2-4.7.6-7c-1.1-3.9-3.2-8-7-10s-10.1-1-13.1,3.2-2,4.1-1.8,6.4,1.1,2.5,2.5,2.5,2.6-1.1,2.5-2.5h0Z"/>
    <path d="M172,121.1l5.5,11.4c.7,1.5,2.9,1.6,3.9.5,4.9-4.9,13.6-5.5,19-1s3.5.7,4.2-1.1c1.6-4.4,5.3-7.8,8.4-11.2s7.6-8.1,11.3-12.2,0-5-2.4-4.2c-8.9,3.1-18.2.5-27.1-1.3s-18.1-2.7-26.4,1.3-1.4,2.3-.9,3.4c2,4.6,2.9,9.6,2.8,14.6s4,3.2,4.9.7.3-7-1.1-10.3-3.5-5.8-4.4-9l-1.1,2.8c6.9-3.5,14.5-5.8,22.2-6.7s7.9-.6,11.9-.4,7.2.5,10.6,1.5,5.9,2.3,6.7,5.3l1.1-2.8c-12.3,5.2-20.6,16.1-28.4,26.4l4.7,1.3c.1-3.3,2.1-6.1,3.8-8.8s3.6-6.3,4-10.1-1.7-2.8-3.2-2.4c-4.7,1.4-9.2,3.2-13.5,5.6l3.7,2.8c1.6-4.4,4.8-8.2,8.8-10.6l-3.4-3.4c-2.3,3.3-6.4,4.8-10.2,5.4s-4.6.4-6.7,0-3.8-1.3-3.8-3.2,1.7-1.9,3-2.2c2-.4,4.4-.4,6.5-.2s3.7.9,4.3,2.7-.7,2.2-2,2.5c-2,.6-4.3.5-6.4.3s-4.6-.7-6.5-2.1-1.3-1.2-1.8-2-.3-.6-.4-1c0,.2,0-.8.2-.7s-.4.3-.4.3c-1.3.5-.9-.6-.9.2,0,1.2.5,2.5.7,3.8.4,2.8.6,5.8.3,8.7s0,.6,0,.6c-.6-.3,1.4-.5,1.1-.4.5-.2,0,.3,0,0s-.2-1.2-.2-1.4c0-.7,0-1.4,0-2.1s.2-1.8.7-2.4.9-.6,1.1-.5c.6.3.9,1.2,1.1,1.8.4,1.2.6,2.5.9,3.7s.7,3.2,1,4.8.3,1.6.5,2.4.2.6.2.9c0,.2,0,.4,0,.6h0c0-.2,1.7.2,1.8.2s0-.2,0-.3c0-.5,0-1,0-1.5,0-.7.3-1.7.6-2.4s.4-.7.6-.9c0,0,.6-.5.4-.4s.4-.2.1,0c.7-.3,1.3-.1,2,.5s1.2,2,1.5,3.1.3,1.3.3,1.9c0,0,0,.7,0,.5,0-.1,0,0,0,.3.2-.5.6-.8,1.3-.8l1.3.3h-.2c.4.4.8.9,1.1,1.4-1.8-6.5-2.5-13.9-.8-20.4s.6-2.1,1.3-2.9.7-.6,1.1-.9.4,0,.2-.2c.4.5.4,1.6.6,2.2.2.9.4,1.8.5,2.7.3,1.8.4,3.6.4,5.3l1.2-2.2c.3,0,.6,0,.9,0-.1,0-.2,0-.3-.2,0-.2-.3-.5-.4-.8-.5-1.1-.7-2.3-1-3.4s-.3-2.2-.4-3.3-.2-1.8.2-2.5.8-.6,1.3-.8c1.1-.3,2.3-.5,3.4-.8,2.3-.5,4.7-1.1,7-1.6s2.1-.5,2.9,0,.4.5.6.7c.4.5-.5-.1.2-.2-.2,0-.5.2-.7.2-1,.2-2.1.1-3.2.1-4.7,0-9.4-.7-13.9-2.1v4.8c6.9-1,14.3,1.2,19.6,5.7l1.8-4.3c-.7,0-1.1-.9-1.2-1.6l-3.1,3.1c3.9,1.6,7.6,3.9,10.7,6.7l1.8-4.3c-6.5,0-13.1,0-19.6,0s-12.5.3-18.4,2.2l1.3,4.8c9.9-3.2,20.1-6.5,30.7-5.6l-.7-4.9c-3.6,1.3-8.1,2.3-12,1.5s-1.2-.3-1.6-.7-.2-.3-.3-.4,0-.6,0-.2,0,0,.2-.2c.9-.5,1.8-.2,2.6.4,2.5,2.1.7,5.6-1.2,7.4-2.8,2.6-7,3.7-10.5,5s-9.7,3.6-14.6,5.4-1.9,5.5,1.3,4.8c10-2.2,20.2-3.4,30.5-3.7l-.7-4.9c-3.3.7-6.7.8-10,.2v4.8c.5-.2,1-.4,1.5-.5s.6,0,.7-.1,0,0,0,0c-.1-.4,0-.7.2-.9.2-.2.2-.2-.1,0-.3,0-1,0-1.5,0-.8,0-1.7,0-2.5-.2-3.5-.6-6.8-2-9.5-4.2s-2.5-1-3.5,0-1.1,2.7,0,3.5c4.6,3.7,10.8,6.3,16.8,5.8s5.9-2.3,4.9-5.6c-1.1-3.7-5.3-3.9-8.3-2.7s-1.8,1.2-1.8,2.4.8,2.2,1.8,2.4c4.2.8,8.5.8,12.7-.2s2.1-5-.7-4.9c-10.7.3-21.3,1.6-31.8,3.9l1.3,4.8c5.8-2.1,11.6-4.3,17.4-6.4s10.2-3.9,12.6-8.9,1.6-5,.7-7.5-2.8-4.4-5.3-5.2-5.1-.2-6.8,1.6-1.6,5.6.4,7.7,5.8,2.4,8.7,2.4,6.6-.7,9.7-1.9,2.2-4.7-.7-4.9c-11-.9-21.7,2.4-32,5.8s-1.7,5.8,1.3,4.8c5.7-1.8,11.6-2,17.5-2s12.8,0,19.2,0,3.4-2.8,1.8-4.3c-3.8-3.4-8.2-6.1-13-8s-3.3,1.4-3.1,3.1c.5,3,3.1,4.9,6,5.3s3.4-2.9,1.8-4.3c-6.8-5.7-15.6-8.2-24.4-7s-1.8,1.4-1.8,2.4.8,2.1,1.8,2.4c3.3,1,6.7,1.7,10.2,2s6.5.5,9.6-.1,5-3.5,3.9-6.6-4.4-4.4-7.6-4.1-6.7,1.4-9.9,2.1-6.3,1.5-7.3,4.9-.3,6.5.4,9.4,1.9,6.5,5.2,7.1,3.8-.7,3.9-2.7-.1-3.4-.3-5.1-.5-3.2-.9-4.8-.8-3.2-2.1-4.3c-2.5-2.1-6.3-.8-8.2,1.5s-2.5,4.6-2.9,7.1c-1.1,6.7-.8,13.6,1,20.1s.5,1.8,1.4,2.4,1.6.6,2.4.4c1.5-.4,2.4-1.7,2.7-3.1s0-3.1-.3-4.6-.9-3.3-1.9-4.6c-1.7-2.4-4.7-3.9-7.6-3.1s-4.1,2.8-5,5.2-1.3,5.7,0,7.9c2,3.3,6.6,1.9,7.4-1.6s-.2-3.5-.6-5.2-.8-3.5-1.1-5.3c-.6-2.7-1-5.8-3-8s-5.5-2.5-7.9-.5-3,5.5-2.9,8.7.2,3,1.1,4.3,2.8,2.3,4.5,2c3.6-.7,3.6-4.8,3.6-7.7s-.3-7.1-1.1-10.5-3.2-5.5-6.2-3.9-3.1,4.8-2.1,7.2,3.2,4.8,5.7,6,6.2,1.9,9.4,1.9,5.4-.2,7.8-1.4,3.9-3.8,3.6-6.5-2.6-5.7-5.5-6.8-5.8-1.1-8.7-.9-5.3.6-7.3,2.3-2.9,5.2-1.7,8,3.9,4.4,6.8,5.1c5.4,1.1,11.7.3,16.6-2.3s4.4-3.1,6-5.3-1.4-4.7-3.4-3.4c-5.2,3.2-9,7.9-11.1,13.6s1.9,3.8,3.7,2.8c3.9-2.2,8-3.9,12.3-5.1l-3.2-2.4c-.4,3.2-2.5,6.1-4.1,8.8s-3.5,6.4-3.7,10.1.8,2.1,1.8,2.4,2.1-.3,2.8-1.1c7.3-9.7,15.1-19.8,26.6-24.6s1.4-1.9,1.1-2.8c-2.1-7.9-11.6-9.5-18.5-10.2s-17.7-.1-26.2,2.1-9.6,3.2-14.1,5.4-1.4,1.8-1.1,2.8c.9,3.1,2.6,5.8,4.1,8.7s2.3,5.2,1.3,7.9l4.9.7c0-5.9-1.1-11.7-3.5-17.1l-.9,3.4c7.7-3.7,16.7-2.1,24.7-.4s18.7,4,27.7.9l-2.4-4.2c-4,4.3-8,8.6-12,12.9s-7.2,7.7-9,12.7l4.2-1.1c-7.5-6.2-19.1-5.9-26.1,1l3.9.5-5.5-11.4c-.6-1.2-2.3-1.5-3.4-.9s-1.5,2.2-.9,3.4h0Z"/>
    <path d="M173.4,138.7c-9.2,1.2-18,3.9-26.3,8-1.9.9-1.4,3.3,0,4.3s2.3,2.7,3.1,4.3,1.9,3.6,3,5.4c2.2,3.5,4.7,6.8,7.5,9.8,5.6,5.9,12.9,12,21.3,12.4s2.4-1.2,2.5-2.5c.4-5.5,1.5-10.9,3-16.2s-.5-2.6-1.7-3.1c-3.9-1.4-7.3-4-9.9-7.2s-2.2-3.2-3-5-.7-1.9-1-2.9,0-.6-.1-1.1,0-.4,0-.2-.8.6,0,.2l-3.4-.9c1.3,1.9.7,5.3-1.6,6.2l2.8,1.1c-1.3-3-1.7-6.2-1.4-9.5s-2.9-3.4-4.3-1.8-4,3.5-6.7,3.9-2.1,4.9.7,4.9,4.6-.3,6.9-.8l-1.3-4.8c-2.3,1-4.7,1.9-7,2.9s-1.1.4-1.6.7c-.3.1-.5.2-.8.3.5,0,.8.3,1.1.7,0,.2,0,.2,0-.1,0,.2,0,.1,0-.2,0-.3,0-.4.2-.8.7-2.2-1.8-3.7-3.7-2.8-4.4,2.1-8.8,4.2-13.2,6.4s-1.3,1.6-1.2,2.5.8,1.7,1.8,2.1c3.5,1.5,5.9,4.8,8,7.7s5.1,7.1,8.1,10.3c6,6.5,13.3,11.8,21.2,15.7s2.7.3,3.4-.9c1.4-2.4,2.4-5.1,2.8-7.9s-2.9-4.3-4.6-1.9-1.5,1-2.4,1l2.4,3.2c1-3.8,3.5-6.8,7-8.5l-3.4-3.4c-.9,1.7-2.5,3.1-4.5,3.3l2.2,1.2c-1.1-2.5.5-5.6,3-6.7l-3.4-3.4c-1.5,2.8-4.4,5.6-7.8,5.9s-.6,0-.5,0,0-.1-.1-.4c-.3-.9-.4-1.9-.5-2.8-.2-2.1-.4-4.5,0-6.5,0,0,.1-.6.1-.5,0-.2.2-.1.1-.2,0,0-.6.2-.7.2-.2,0-.6-.3-.7-.3s.1,0,.1.2.2.6.2.9,0,1.1,0,1.5c0,0,0,.4,0,.3,0,.5-.3.1,0,0,0,0,.8-.4.8-.2s-.3-.3-.3-.2c-.5-.7-1.1-1.3-1.6-2s-1.2-1.8-1.8-2.7c-1.1-1.7-2.2-3.4-3.2-5.1-2.3-4-4.2-8.3-5.1-12.9l-4.6,1.9c5.7,8.6,11.1,17.4,16.4,26.3s5.7.3,4.3-2.5c-3.2-6.8-6.6-13.8-7.2-21.4l-4.3,1.8c7.5,9.6,14.9,19.3,22.4,28.9l3-3.9c-6.1-4.5-12.7-8-19.8-10.5s-3.6,1.3-3.1,3.1c1.9,6.5,4.4,12.8,7.5,18.7s5.8.3,4.3-2.5c-3-5.9-7.2-11.2-12.5-15.2s-2-1-3-.4-1.5,1.8-1.1,2.8c1.7,5.3,3.7,10.4,6.2,15.4l3.9-3c-8.5-8.4-16.9-17.1-25-25.9l-1.1,4.2c4.3-.7,8.4-2.4,12.1-4.8s1.7-4.2-.6-4.6c-6.4-1.1-12.9-.6-18.9,1.7s-2.4,3.3-.6,4.6c2.6,1.8,4.1,5,5.7,7.6s4.3,5.9,6.9,8.5c5.5,5.3,12,9.5,18.2,13.9s8.1,5.6,12.1,8.5,3.4,0,3.7-1.5c1.2-7.8,2.3-15.6,3.5-23.5s-.3-2.7-1.7-3.1-3.3-.3-5,.2-2.9,1.2-4.4,1.4c-2.4.4-4.9-.7-6.8-2.1-4.8-3.6-6.1-10.1-7.4-15.6l-4.8,1.3c1.6,5.7,3.2,11.4,4.8,17.1l4.6-1.9c-3-4.5-5.7-9.2-8-14.2s-5.4-.8-4.6,1.9c1.2,3.8.7,7.8-1.4,11.2l4.6.6c-2.6-7.2-4.2-14.7-4.5-22.4l-3.8,2.2c4.2,1.9,8,4.2,12,6.5s7.9,3.4,11.5.5l-4.3-1.8c-.7,6.6,3.2,13.5,9.3,16.2s2.7.4,3.4-.9.3-2.9-.9-3.4c-4.6-2.1-7.4-6.8-6.8-11.9s-.7-2-1.5-2.3-1.9-.1-2.7.5-2.2.1-3-.2c-1.5-.5-2.8-1.4-4.1-2.2-3.3-2-6.7-3.8-10.2-5.4s-3.9,0-3.8,2.2c.4,8.1,2,16.1,4.7,23.7s3.4,2.5,4.6.6c2.8-4.5,3.5-10,1.9-15l-4.6,1.9c2.3,4.9,4.9,9.7,8,14.2s5.4.9,4.6-1.9c-1.6-5.7-3.2-11.4-4.8-17.1s-5.5-1.8-4.8,1.3c1.5,6.5,3.4,13.6,8.9,18s5.6,3.4,8.9,3.5,3.2-.3,4.7-.9,3-1.3,4.5-1l-1.7-3.1c-1.2,7.8-2.3,15.6-3.5,23.5l3.7-1.5c-6.8-4.8-13.7-9.4-20.4-14.3s-11.3-8.8-15-14.9-4-6.9-7.4-9.2l-.6,4.6c5.2-2,10.8-2.7,16.3-1.7l-.6-4.6c-3.3,2.3-6.9,3.7-10.9,4.3s-2.3,2.9-1.1,4.2c8.2,8.8,16.5,17.4,25,25.9s5.1-.5,3.9-3c-2.2-4.6-4.1-9.3-5.7-14.2l-4.2,2.4c4.9,3.8,8.9,8.6,11.7,14.2l4.3-2.5c-2.9-5.6-5.2-11.5-7-17.5l-3.1,3.1c6.7,2.4,12.9,5.8,18.6,10s2.5.3,3.2-.6.6-2.3-.2-3.3c-7.5-9.6-14.9-19.3-22.4-28.9s-4.4-.3-4.3,1.8c.7,8.5,4.3,16.3,7.9,23.9l4.3-2.5c-5.3-8.9-10.8-17.6-16.4-26.3s-5.1-.9-4.6,1.9c1.1,6,3.9,11.5,7.1,16.7s3.2,5.3,5.2,7.6,5.9,3.4,7.9.2,1.2-5.2.3-7.4-4.5-3.9-6.9-1.7-1.9,5.7-1.8,8.4.2,3.3.5,5,.6,3.1,1.8,4.2c2.6,2.5,6.6,1.1,9.4-.3s5.1-3.9,6.6-6.7-1.2-4.4-3.4-3.4c-5.1,2.3-6.9,8.6-4.7,13.5s1.4,1.3,2.2,1.2c3.7-.4,7.1-2.4,8.9-5.8s-1.2-4.5-3.4-3.4c-4.6,2.2-8,6.6-9.3,11.5s.8,3.1,2.4,3.2c2.8.1,5.1-1.2,6.7-3.5l-4.6-1.9c-.4,2.4-1.1,4.6-2.3,6.7l3.4-.9c-6.2-3-11.8-6.9-16.8-11.6s-4.9-5-7.1-7.7-3.8-5.3-5.8-7.9-5.2-5.5-8.8-7l.6,4.6c4.4-2.1,8.8-4.2,13.2-6.4l-3.7-2.8c-.8,2.8,0,6.9,3.6,6.8s3.6-1.2,5.1-1.8,3.6-1.5,5.4-2.2,2.1-1.7,1.7-3.1-1.8-2.1-3.1-1.7-3.7.6-5.6.6l.7,4.9c3.5-.6,6.7-2.5,8.9-5.2l-4.3-1.8c-.4,4.2.4,8.2,2.1,12s1.9,1.5,2.8,1.1c5.2-2.1,7.8-8.7,4.6-13.6s-2.1-1.5-3.4-.9c-2.9,1.4-2.6,5-1.8,7.6s2.1,5.3,3.7,7.6c3.3,4.7,7.9,8.2,13.3,10.1l-1.7-3.1c-1.7,5.7-2.7,11.6-3.2,17.5l2.5-2.5c-3.9-.2-7.4-2.1-10.5-4.3s-5.9-4.9-8.5-7.8-4.8-6-6.7-9.4-3.5-7.1-6.8-9.6v4.3c7.4-3.7,15.5-6.2,23.8-7.3s2.5-1,2.5-2.5-1.2-2.7-2.5-2.5h0Z"/>
    <path d="M198.7,166.3c7.1-5.2,12.1-12.8,13.7-21.5l-2.4,1.8c10.7-.5,21.4-2.2,31.8-5l-3.1-3.1c-2.6,8.3-5.5,16.5-8.9,24.6s-3.2,7.2-5.5,10.4-5.5,5.9-8.5,8.5-7.7,6.6-11.6,9.9l4.2,2.4c1.9-12.4-2.9-25.5-12.9-33.3-1.1-.8-2.5-1-3.5,0s-1.1,2.7,0,3.5c8.5,6.6,13.2,17.7,11.6,28.4-.4,2.5,2.2,4.1,4.2,2.4,3.5-3,7-6,10.5-8.9s6.4-5.4,9.1-8.7,4.6-7,6.3-10.9,3.4-8.3,5-12.6,3.4-9.6,4.9-14.5-1.3-3.6-3.1-3.1c-10,2.7-20.1,4.3-30.4,4.8s-2.2.7-2.4,1.8c-1.4,7.3-5.4,14.1-11.4,18.5s-1.6,2.2-.9,3.4,2.3,1.7,3.4.9h0Z"/>
    <path d="M200.7,159.7l-.3,9.5,4.9-.7c-1-3.5-.1-6.9,2.1-9.8l-4.7-1.3c.3,5.3.4,10.5.3,15.8h5c-.4-4.7,0-9.3,1.3-13.9h-4.8c.6,3,.7,6,.4,9h5c0-3.3,0-6.6,0-9.9s0-1.6,0-2.5.2-1.6,0-1.8l-.6.7c0,0,0,0,.2,0,.2,0,.9,0,1.1,0,.7,0,1.5,0,2.2,0,5.7,0,11.3,1.7,16.2,4.5l1.3-4.7c-2.3.1-3.9-1.8-4.8-3.8s-.8-2.7-1.1-4-.3-1.2-.3-1.8c0-.2,0-.4,0-.6h0c-.2.3-.4.4-.6.6-.6,0-.7,0-.3,0l-1.1-.6c.3-1.7.3-2.3,0-1.7,0,0,0,.1-.2.1-.2,0-.4.2-.6.3-.7.3-1.4.4-2.2.6s-1.2.3-1.9.4-.7,0-.9,0h0c.3.4.5.7.6,1.2l-.3,1.3v-.2c-.2.3-.5.6-.8.9.4-.2,1.6.2,1.2.8s-.3.4-.3.3c-.3.3-.3-.1,0,0s-.1-.2-.1-.3c0,.2-.1-.4,0-.2,0,.1,0,0,0,0,0-.2,0-.2,0,0,.2,0-.4.1,0,.1.5,0,.9-.2,1.4-.2,1.1,0,2.2,0,3.2.4,1.5.5,3,1.7,2.3,3.4l4.2-1.1c-1-1.1-1.1-2.9.5-3s.4,0,.5.3,0,.3,0,.4c0-.2,0,.4,0,.1,0,.2-.3.1,0,0l3.2,2.4c.1-1.8.6-3.7,1.4-5.3s1-1.9,1.7-2.7.5-.6.8-.9.9-.7,1-1c0,0,.1,0,.2,0-.3,0-.6-.1-.9-.2,0,0,.2.7.2.9.1,1,0,2-.2,2.9-.5,2.2-1.5,4.1-2.5,6.1-4,7.7-9.2,14.7-15.3,20.8l4.3,1.8c-.3-4.5,1.2-8.8,4.4-12l-4.2-1.1c1,5.3-1.2,11.2-5.6,14.4l3.4.9c-2.3-4.8,2.3-9.8,5.3-13.1l-3.9-.5c0,.1.2-.4,0-.2s-.2.4-.3.5c-.4.5-.9,1-1.4,1.5-1,1.1-2,2.1-3.1,3.1s-2,1.9-3.1,2.8-1.2,1-1.7,1.5-.5.4-.7.6c-.8.6-.3,0,.2.2l1.1.6c-.3-.2-.4-1.5-.5-2-.1-.8-.1-1.6-.1-2.4,0-1.7.4-3.3,1-4.9,1.1-3.1,3.4-5.8,6.2-7.5l-3.7-1.5c.7,2.5,1.5,5.4,1,8s-1.4,3.5-3.3,4l3.1,1.7c-1-4.6-2.5-11.6,2-15l-3-.4c.9,1,.8,2.5.7,3.7s-.3,2.6-.8,3.8-.3,0-.2,0c0,0,.7.2.6.3,0-.1-.4-2.3-.5-2.6-.2-2.1,0-4.2.3-6.2h-4.8c1.7,5.7-1,11.8-2,17.4s-1.4,12.6-1.7,18.9l4.9-.7c-.8-3.3-1.6-6.6-2.4-10s-.5-3.1-1.5-4.4-2.7-1.8-4.4-1.1-1.2,1.3-1.2,2.2c-.3,3.9.7,7.9,3,11.2s3.4,1.7,4.3,0c2.4-4.5,4.8-9,7.2-13.4l-4.6-.6c1.2,4.1-1.6,8.2-3.8,11.5s-.2,2.8.9,3.4,2.6.2,3.4-.9c2.7-3.6,5.7-6.9,9-10l-4.2-2.4c-.8,2.9-2.1,5.6-4,7.9l4.2,2.4c.4-1,1.6-1.9,2.4-2.6s2.1-1.8,3-2.9c2.1-2.8,3-6.4,4.2-9.6,2.5-6.9,5-13.9,7.5-20.8l-4.9-.7c.4,3-.1,5.8-1.7,8.4l4.7,1.3c.3-4.6,2.4-8.8,5.6-12.1l-4.3-1.8c.3,7.5-3.6,14.7-10,18.6-2.8,1.7-.2,6,2.5,4.3,7.9-4.7,12.8-13.7,12.5-22.9s-2.7-3.3-4.3-1.8c-4.2,4.2-6.6,9.7-7,15.6s3.4,3.2,4.7,1.3c2-3.2,2.9-7.1,2.4-10.9s-3.9-3.5-4.9-.7c-2.5,6.9-5,13.9-7.5,20.8-1,2.8-1.7,6.3-3.9,8.5s-2,1.7-3,2.7-2.1,2.4-2.7,3.9c-.9,2.3,2.6,4.3,4.2,2.4,2.5-3,4.3-6.4,5.2-10.1s-2.4-4.1-4.2-2.4c-3.6,3.4-6.9,7-9.8,11l4.3,2.5c3-4.5,5.9-9.8,4.3-15.4s-3.5-2.5-4.6-.6c-2.4,4.5-4.8,9-7.2,13.4h4.3c-1.8-2.6-2.5-5.5-2.3-8.7l-1.2,2.2h.2c-.4,0-.8.1-1.3.2h.2c-.4-.1-.8-.2-1.3-.3-.2,0-.2-.4,0,.4s.2,1,.3,1.5c.3,1.2.6,2.4.9,3.6.6,2.3,1.1,4.7,1.7,7s4.8,2.1,4.9-.7c.3-6.3.5-12.7,1.8-19s3.6-12.4,1.7-18.6-4.3-2.5-4.8,0-.8,7-.1,10.5,3.6,5.3,6.8,3.7,3.3-4.7,3.6-7.6,0-5.8-2.1-8-2.2-1-3-.4c-2.8,2.1-4.6,5.1-5.2,8.5s0,8.1.9,12.1,1.8,2.1,3.1,1.7c3.3-.9,5.6-3.6,6.6-6.8s.2-7.7-.8-11.3-2.3-2.3-3.7-1.5c-5.6,3.3-9.1,9.4-9.6,15.8s0,8.4,3.2,9.4,3.9-.8,5.4-2.1,3-2.7,4.5-4.1,3.3-3.2,4.8-4.9,2.6-4.2,1.1-6.4-2.8-1.8-3.9-.5c-2.4,2.7-4.8,5.4-6.2,8.8s-1.4,7.1.1,10.4,2.4,1.6,3.4.9c6.3-4.6,9.4-12.4,7.9-20-.4-1.9-2.9-2.3-4.2-1.1-4.1,4-6.3,9.8-5.9,15.5s2.7,3.4,4.3,1.8c6-6.1,11.2-13,15.3-20.5,2.1-3.8,4.5-8.1,4.1-12.6-.2-2.1-.8-4.3-2.7-5.4s-4.6.2-6.2,1.9c-3.3,3.4-5.1,7.9-5.4,12.6s1.7,2.9,3.2,2.4c2.4-.8,3.9-3.1,3.7-5.6s-2.4-4.8-5.2-5-5,1.4-6,3.8-.3,5.7,1.7,7.7,3.5.6,4.2-1.1c1.3-3.4-.8-7.2-3.9-8.8s-7.8-2.3-10.6-.3-2.8,6.1-.3,8.3,7.3.7,8.4-2.8-1.5-6.7-4.9-7.1-4.1.2-4.8,2.1.6,3.8,2.5,4.5,3.7.1,5.4-.3,3.9-.9,5.2-2.2,1.8-3.8.3-5.3-3.6-1.3-5.1-.2-1.8,4.1-1.4,6.3.8,4.1,1.6,6c1.6,3.7,5,6.7,9.2,6.5s3.5-3.4,1.3-4.7c-6.2-3.6-13.3-5.5-20.5-5.2s-3.7,0-5,1.4-1.1,3.5-1.1,5.3c0,3.9,0,7.9,0,11.8s4.7,3.2,5,0,0-6.9-.6-10.3-4.2-2.2-4.8,0c-1.4,4.9-1.9,10.1-1.5,15.2s4.9,3.3,5,0c.1-5.3,0-10.5-.3-15.8s-3.2-3.2-4.7-1.3c-3,3.8-3.8,9-2.6,13.6s4.8,2.1,4.9-.7l.3-9.5c0-3.2-4.9-3.2-5,0h0Z"/>
  </g>
  <path d="M99.4,218.1c26.8.9,53.5-.7,80.2-2.4,26.7-1.7,53.4-3.6,80.1-3.1,14.9.3,29.9,1.2,44.7,3.4l.7-4.9c-29.6.5-59.2.9-88.7-2.2-14.6-1.5-29-3.6-43.6-4.9s-29.3-1.9-43.9-2.2c-16.5-.3-33,0-49.4.2-2.7,0-3.5,4.4-.7,4.9,28.3,5.3,56.9,8.4,85.7,10.1,28.6,1.7,57.2,2.1,85.8,2,16.1,0,32.2-.3,48.3-.5,3.3,0,3.2-4.8,0-5-28-2.2-56.1-3.9-84.2-4.8-27.9-.8-55.8-.8-83.7.8-15.7.9-31.4,2.2-47.1,4.2s-2.5,1-2.5,2.5,1.2,2.7,2.5,2.5c27.9-3.4,55.9-5,84-5.4,27.9-.4,55.9.5,83.8,2.1,15.8.9,31.5,2,47.2,3.2v-5c-28.6.4-57.3.7-85.9.2s-56.8-1.8-85.1-4.9c-15.9-1.7-31.8-4-47.5-6.9l-.7,4.9c29.5-.4,59-.8,88.4,1.6,14.6,1.2,29.1,3.2,43.6,4.8,14.6,1.6,29.2,2.6,43.9,2.9,16.5.4,33.1,0,49.6-.2s2.3-.9,2.5-2.2-.5-2.6-1.8-2.7c-26.6-3.9-53.6-4.2-80.4-3.1-26.9,1.1-53.8,3.4-80.7,4.6-15.1.7-30.1.9-45.2.4-3.2-.1-3.2,4.9,0,5h0Z"/>
  <path d="M82.9,205.3c7.8-20.6,22.8-37.2,34.8-55.3s12.7-21.1,18.7-31.9,12.4-22.1,18.6-33.2,14-25,21-37.5c1.6-2.9-2.5-5.1-4.3-2.5-13.7,19.3-27.3,38.5-41,57.8s-25.2,35.6-36.2,54.4c-6.2,10.5-11.8,21.4-16.6,32.6s-.4,2.7.9,3.4,2.8.3,3.4-.9c12.9-23.4,26.5-46.5,40.3-69.4,13.9-22.9,28.1-45.6,42.4-68.2,3.7-5.9,7.4-11.9,11.3-17.6s7.7-10.3,12.8-14l-3.4-3.4c-15.4,22.7-30.3,45.7-44.7,69s-8.1,13.3-12.1,20-.3,2.5.6,3.2,2.5.8,3.3-.2c15.5-19.9,32.5-38.6,50.6-56.1,5.2-5,10.5-9.8,15.8-14.6l-3.5-3.5c-9.7,9.3-17.8,20.1-25.8,30.8s-16.8,22.7-25.1,34.1c-16.6,22.8-33,45.8-49.1,69-9.1,13.1-18.1,26.2-27,39.4l4.3,2.5c7.6-17.3,18.2-32.9,28.7-48.4s22.6-33.3,33.9-50c6.4-9.4,12.8-18.9,19.2-28.3s-2.5-5.2-4.3-2.5c-11.3,16.7-22.7,33.5-34,50.2-11,16.2-22.3,32.2-32.7,48.7s-10.9,18.1-15.1,27.8,2.5,5.2,4.3,2.5c15.8-23.4,31.9-46.6,48.2-69.6s32.7-45.6,49.4-68.1,17.7-24.2,28.5-34.5-1.1-5.7-3.5-3.5c-18.9,16.7-36.6,34.8-52.9,54s-9.2,11-13.6,16.7l3.9,3c14.1-23.5,28.7-46.7,43.9-69.6,4.3-6.5,8.6-13,13-19.4s-1.4-4.9-3.4-3.4c-9.9,7.1-16,17.8-22.4,27.9s-14.5,22.9-21.6,34.4c-14.3,22.8-28.3,45.8-41.9,69.1-7.7,13.2-15.3,26.4-22.6,39.7l4.3,2.5c8.6-20,19.8-38.7,31.9-56.8,12.6-18.8,25.9-37.1,38.9-55.5,7.7-10.8,15.3-21.6,23-32.5l-4.3-2.5c-12.5,22.4-25.1,44.8-37.6,67.3s-11.9,21.8-18.6,32.3c-6,9.3-12.7,18.1-19.1,27.2-7.2,10.2-13.8,20.7-18.2,32.4s.5,2.7,1.7,3.1,2.6-.5,3.1-1.7h0Z"/>
  <path d="M292.5,207.4c-.6-11.5-4.6-22.4-9.4-32.8s-10.6-21.8-15.9-32.7c-11-22.5-22.1-45-33.1-67.4-6.2-12.6-12.4-25.2-18.6-37.9-1.2-2.5-5.5-.8-4.6,1.9,2.3,6.5,4.7,13,7.9,19.1s7,11.2,10.8,16.7c7.3,10.3,14,21,20.2,32,12.3,22,22.1,45.4,29.4,69.6,4.1,13.6,7.3,27.4,9.7,41.4s5.1,2.1,4.9-.7c-.3-6.9-4-12.6-7.7-18.2s-6.9-11.7-9.5-18-5.1-13.4-7.9-20-5.9-12.7-9.5-18.8c-7.2-12.1-15.7-23.3-23.1-35.3s-13.4-25.5-18.6-39-5.7-15.3-8.6-22.9-5.6-15.6-10.4-22.2-2.7-1.8-3.9-.5c-2.4,2.6-1.3,6,.6,8.5s4.2,5.6,6.3,8.5c4.2,5.7,8.2,11.4,12.2,17.2,7.9,11.6,15.5,23.5,22.7,35.6s14,24.4,20.4,36.9,12.6,25.2,17.9,38.2,11,29.9,13.3,45.6l4.6-1.9c-10.5-20.5-21-41-30-62.2-8.3-19.7-15.2-40-23.9-59.6s-10.2-21.6-16.6-31.6-4.9-1.4-4.7,1.3c.6,6.2,3.1,11.9,5.8,17.5s5.4,10.9,8.1,16.3c5.2,10.2,10.5,20.4,15.6,30.7,9.8,19.7,18.9,39.9,24.7,61.1,3.4,12.5,5.7,25.2,6.7,38.1s4.1,3.5,4.9.7c1.7-6.2-.6-12.3-2.7-18.1s-4.1-10.8-6.3-16.1c-4-9.5-8.3-18.9-11.9-28.5s-6.7-20.6-8.3-31.4-1.4-11.9-3.2-17.6-4.9-11-8.6-15.8-8.9-11-13.4-16.5-9.4-11.5-14.1-17.2c-1.8-2.2-5.6.7-3.9,3,12.4,16.9,24.1,34.5,34.9,52.5s20.7,36.6,29.8,55.5,9.9,21.4,14.4,32.3c.5,1.2,1.7,2.1,3.1,1.7s2.3-1.8,1.7-3.1c-8.1-19.6-17.1-38.9-27-57.7-9.8-18.7-20.6-36.8-32.1-54.5-6.5-10-13.3-19.7-20.4-29.3l-3.9,3c8.1,9.9,16.2,19.8,24.3,29.8s7.1,8.9,9.3,14.2,3.1,11.2,3.8,17c1.4,10.8,3.9,21.4,7.5,31.7s7.5,18.7,11.4,28,4.7,11.3,6.8,17,2.4,6.3,3.3,9.6,1.5,6.2.6,9.3l4.9.7c-1.8-22.8-7.4-45-15.8-66.2-8.3-21-18.8-40.9-29.1-61-3-5.9-6.1-11.9-9-17.9s-6.3-12-6.9-18.6l-4.7,1.3c11.4,17.9,19.5,37.7,27.1,57.4s7.6,20,11.7,29.9,9.1,21,14.1,31.4,11.5,23.2,17.5,34.7c.6,1.1,2,1.5,3.1,1s1.6-1.7,1.4-2.9c-4.2-27.7-16.1-53.6-28.5-78.4-12.3-24.6-26.1-48.5-41.3-71.4-4.3-6.5-8.7-12.9-13.3-19.3s-4.5-6.2-6.8-9.3-2.4-3.2-3.6-4.8-.9-1.2-1.1-1.8,0-.8-.2-.6l-3.9-.5c4.2,5.8,6.6,12.5,9.2,19.1s5.1,13.7,7.7,20.5c5.1,13.5,10.5,27,17.8,39.6,6.9,12.1,15.3,23.2,22.8,35s7.2,11.9,10.1,18.2,5.3,12.8,7.8,19.3,6,14.8,10.2,21.5,8.6,11.7,9,18.8l4.9-.7c-4.3-24.9-11.3-49.4-20.8-72.8s-21.5-46-35.9-66.9-8.5-11.8-12.2-18.1-6.5-13.7-9.1-20.8l-4.6,1.9c10.9,22.3,21.8,44.5,32.8,66.8,10.8,22,21.7,43.9,32.3,65.9,5.4,11.2,10.5,23,11.2,35.6s5.2,3.2,5,0h0Z"/>
  <path d="M21.5,42.8c-2.3,13.1-5.5,26.1-9.6,38.8l4.8,1.3c1.8-7.5,3.9-15,6.3-22.3s2.5-7.1,3.9-10.7,1.4-3.5,2.1-5.3,1.1-3.3,1.8-3.5c0,0-.3,0,.1,0s.6.3.8.5c.4.2.8.5,1.1.8,1,.9,1.9,1.9,2.6,3.1,1.4,2.3,2.1,5,2.5,7.6s.5,6.3-.3,9.2-3.1,5.3-5.6,7.3-6.4,4.6-9.8,6.7-3.7,2.2-5.5,3.1-1.9,1-2.8,1.5c.1,0-1.1.5-.8.4-.3,0-.4,0-.2.1-.7,0-.4.2.8.6-1.7-2.7-6-.2-4.3,2.5,2.6,4.1,8,.3,10.9-1.3s7.5-4.4,11-6.8,6.7-4.8,9.1-8.2,2.9-7.7,2.8-11.8c-.1-6.8-2.2-14.2-8-18.4s-3.6-2.1-5.7-1.6-3.1,2.2-3.9,3.8c-1.9,4-3.5,8.3-5,12.5-3.5,9.5-6.4,19.2-8.7,29s3.8,4.4,4.8,1.3c4.1-12.7,7.3-25.7,9.6-38.8s-.4-2.7-1.7-3.1-2.8.4-3.1,1.7h0Z"/>
  <path d="M45.3,71.2h9.5c1.5,0,3,0,4.5,0s3.3,0,4.8-.4c2.8-.8,5.3-3.6,4.5-6.7s-3-3.8-5.4-4.4c-4.2-.9-9.4-.9-13.3,1s-3.8,3-4.6,5.3-.6,2.9-.8,4.4-.4,3.1-.6,4.7c-.4,3.1-1.7,7.8,2.5,8.9s3.5.4,5.2.6,3.6.3,5.4.5,2.5-1.2,2.5-2.5-1.2-2.4-2.5-2.5c-2.5-.2-4.9-.5-7.4-.7s-.7,0-1,0-.9,0-.5,0c-.2,0-.3-.2-.2,0s.6.6.5.6c0,0,.1-1.2.1-1.3,0-.7.2-1.5.3-2.2.3-2.3.6-4.6.9-6.9s.3-1.8.7-2.5.2-.3.3-.4c-.2.3,0-.1.2-.2.1-.1.3-.3.4-.4.3-.3,0,0,.2-.1.7-.5,1-.6,1.6-.8s.8-.2,1.1-.3.9-.2,1.1-.2c1.7-.2,3.3-.1,5,0s1,0,1.9.3,1,.3.8.2c.2,0,.3.2.5.2.5.3-.3,0,.3.2-.2,0,0-.2,0,.1,0-.4-.1,0-.2,0-.3.3-.9.6-1.6.7-1.3.2-2.6,0-3.9,0h-4.1c-2.9,0-5.8,0-8.6,0s-3.2,5,0,5h0Z"/>
  <path d="M74.8,72.6c2.5-.7,5.1.3,7.7.2s4.7-.9,6.3-2.5,2.4-4.5,1.2-6.8-3.7-3.4-6.1-3.5-5.5,1.4-8,2.6-5.7,2-6.3,4.9,0,3,0,4.4,0,3,0,4.5c0,2.5-.4,5.5.5,7.9s1.2,2.3,2.4,2.9,3.2.4,4.4-.8,1.1-2,1.7-2.5,1.6-.6,2.4-.4c3.1,1,4.4-3.9,1.3-4.8s-3.8-.3-5.6.5-1.5.9-2.1,1.6-1.5,1.7-1.3,2.1c0-.2,1.8-.3,1.7.2,0,0-.3-.5-.3-.5,0,.1,0,.2,0-.2s0-.3,0-.4c0-.5,0,.3,0-.2,0-.6,0-1.3,0-1.9,0-2.3,0-4.6,0-6.9s0-2.2,0-3.3,0-1.2,0-1.2c.3,0-.9.6-.3.4s.6-.3.8-.4c2-.9,3.9-1.9,5.9-2.8s3.1-1.1,4.2-.3c0,0,.4.4.3.3s.2.4.1.2,0-.3,0,0,0,.3,0,.2c-.2.4-.2.4-.5.7s-1.1.7-1.8.9-1.6.1-2.6,0c-2.5-.2-4.9-.6-7.4,0s-1.8,5.6,1.3,4.8h0Z"/>
  <path d="M99.6,67.2c4-.4,8-.3,11.9.5l-1.1-4.2c-5.4,5.7-10.6,11.6-15.5,17.8s-.9,1.5-.6,2.4.9,1.6,1.7,1.7c3.9.8,7.9.7,11.8-.2s2.1-1.8,1.7-3.1-1.8-2.1-3.1-1.7c-3,.7-6.1.8-9.1.2l1.1,4.2c4.9-6.2,10.1-12.1,15.5-17.8s.8-3.8-1.1-4.2c-4.4-.9-8.8-1.2-13.2-.7s-2.5,1-2.5,2.5,1.1,2.6,2.5,2.5h0Z"/>
  <path d="M282.3,60.6c-6.4,1.3-12.9,2-19.4,2.3s-3.3,2.1-2.2,3.8c3.9,5.4,5.9,12,8.2,18.2s5.1,13.5,7.6,20.3,1.7,2.1,3.1,1.7,2.2-1.8,1.7-3.1c-2.6-6.9-5.2-13.8-7.8-20.7s-4.5-13.3-8.5-18.9l-2.2,3.8c7-.3,13.9-1.1,20.8-2.4s2.1-1.8,1.7-3.1-1.7-2-3.1-1.7h0Z"/>
  <path d="M276.8,89.8h6.9c1.3,0,2.6-1.1,2.5-2.5s-1.1-2.5-2.5-2.5h-6.9c-1.3,0-2.6,1.1-2.5,2.5s1.1,2.5,2.5,2.5h0Z"/>
  <path d="M304.7,88.3c-2.5-2.1-5.8-2.1-8.5-.5s-4.3,4.3-4.4,7.4,1.9,6.8,4.4,9.1,6.3,4.5,10.1,3.8,6.6-5.3,4.6-8.9-2.3-1.6-3.4-.9-1.6,2.2-.9,3.4,0,.3,0,0c0,0,0,.2,0,.3,0,.3,0-.2,0-.2,0,0,0,.3,0,.4,0,0,.1-.4,0-.2s0,.3-.1.4c0,.3,0-.1,0-.1,0,.1-.2.3-.2.4,0,.2,0,0,0-.1,0,.1-.2.2-.3.3-.2.2-.5.3-.1.1,0,0-.7.4-.4.3s0,0-.2,0-.5.1-.3,0-.2,0-.3,0c-.1,0-.3,0-.4,0s-.5,0-.1,0c-.1,0-.3,0-.4,0-.3,0-.6-.2-.9-.3,0,0-.4-.1-.2,0s-.4-.2-.4-.2c-.6-.3-1.1-.6-1.6-1s-.6-.4-.3-.2c-.3-.2-.5-.4-.8-.6-.4-.4-.8-.8-1.2-1.2s-.2-.3-.3-.4c0,0,.2.2,0,0s-.4-.5-.5-.8-.3-.5-.4-.7-.1-.3-.2-.4c0,0,.1.3,0,0s-.2-.5-.3-.8-.2-1-.1-.5c0-.6,0-1.1,0-1.7,0,.4,0,0,0-.1s.3-.8,0-.3c.1-.2.2-.4.3-.6s.4-.6,0-.2c.1-.2.3-.3.4-.5s.1-.1.2-.2.5-.4.2-.2.3-.2.4-.3c.2-.1.4-.2.7-.4s-.1,0-.2,0c.1,0,.3-.1.4-.1s.8-.2.5-.1.3,0,.5,0,.3,0,.3,0-.5-.1,0,0,.2,0,.3,0c.5.1-.2-.2,0,0s.8.6.3.2c1,.8,2.6,1.1,3.5,0s1.1-2.7,0-3.5h0Z"/>
  <path d="M322.7,88.7c-.9,5.8,0,11.7,2.7,16.9s4.8,1.2,4.7-1.3-.1-2.3,0-3.5,0-1.9.3-2.9.1-.5.2-.7c0,0,.3-.8.2-.5.1-.3.3-.5.4-.8s.4-.7.3-.4c.6-.9,1-1.1,1.8-1.6,1.3-.7,3.2-1.1,4.7-1.2s4.2,0,6.2.2,2.5-1.3,2.5-2.5-1.2-2.4-2.5-2.5c-4.6-.5-9.9-.7-13.9,1.9s-3.8,3.7-4.6,6.3-.7,5.4-.5,8.2l4.7-1.3c-2.1-4-2.9-8.7-2.2-13.1s-.3-2.7-1.7-3.1-2.9.4-3.1,1.7h0Z"/>
  <path d="M349.4,72.2c-.8,12.8-.5,25.7.8,38.5s1.1,2.5,2.5,2.5,2.6-1.1,2.5-2.5c-1.3-12.8-1.6-25.7-.8-38.5s-4.8-3.2-5,0h0Z"/>
  <path d="M341.4,84.3h18.6c3.2,0,3.2-5,0-5h-18.6c-3.2,0-3.2,5,0,5h0Z"/>
  <path d="M365.5,95.3h10c.3,0,.9.1,1.1,0,.2.1.3.1.3,0l-.8-1.2c0-.2,0-.1,0,0,0,.2,0,.2,0,.1,0,0-.3.5-.3.5-1,1.3-2.2,2.5-3.3,3.7-4.5,5.1-9,10.2-13.5,15.2s-.5,4.4,1.8,4.3c4.2-.2,8.4-.5,12.6-.7s3.9-.1,5.6-1.3,2.7-3.3,2-5.4c-1-3-5.8-1.7-4.8,1.3s0-.2,0,0c-.2.3-1,.3-1.3.3-1.5.1-3.1.2-4.6.3-3.1.2-6.3.4-9.4.5l1.8,4.3c5.4-6.1,10.8-12.2,16.2-18.3s2.4-2.8,2.5-4.6-1.7-3.9-3.9-4.1-3.7,0-5.6,0h-6.2c-3.2,0-3.2,5,0,5h0Z"/>
  <path d="M293.4,81c3.8-.4,5.6,4.2,7.1,6.9s3.9,7.5,6,11.2,4.2,7.1,6.7,10.5,5,7.6,9.2,7.6,4.2-1.8,4.2-4.2-1.9-4.2-4.2-4.4-2.5,1.2-2.5,2.5,1.2,2.4,2.5,2.5c-.2,0-.7,0-.8-.3-.3-.7.7-.8.7-1.1,0,0-1.1-.6-1.3-.8-1.5-1.4-2.8-3.2-4-4.8-2.7-3.6-5-7.5-7.2-11.5s-4.1-7.9-6.2-11.8-5.4-7.8-10.3-7.3-2.5,1.1-2.5,2.5,1.1,2.6,2.5,2.5h0Z"/>
</svg>